<?xml version="1.0" encoding="UTF-8"?>
<svg xmlns="http://www.w3.org/2000/svg" xmlns:xlink="http://www.w3.org/1999/xlink" width="358px" height="400px" viewBox="0 0 358 400" version="1.1">
<g id="surface1">
<path style=" stroke:none;fill-rule:nonzero;fill:rgb(65.490198%,81.568629%,50.588238%);fill-opacity:1;" d="M 166.105469 117.847656 C 159.46875 120.136719 152.578125 122.144531 145.429688 123.875 L 113.121094 131.371094 C 97.1875 134.59375 88.378906 135.457031 86.699219 133.964844 C 83.238281 131.019531 80.578125 126.375 78.707031 120.019531 C 76.886719 114.136719 76.019531 107.78125 76.113281 100.964844 C 76.160156 92.742188 79.6875 81.742188 86.699219 67.960938 L 94.195312 53.460938 C 96.578125 48.648438 97.933594 45.121094 98.261719 42.878906 C 98.824219 38.769531 98.144531 31.527344 96.230469 21.160156 C 94.453125 11.816406 93.144531 6.46875 92.304688 5.113281 C 91.742188 4.273438 91.859375 3.480469 92.65625 2.734375 C 93.355469 2.03125 94.429688 1.636719 95.878906 1.542969 C 115.316406 0.933594 133 6.796875 148.933594 19.128906 C 164.960938 31.503906 174.75 47.011719 178.300781 65.652344 C 179.886719 69.996094 181.265625 77.957031 182.433594 89.542969 C 183.648438 102.015625 183.390625 109.019531 181.664062 110.5625 C 179.375 112.617188 174.1875 115.046875 166.105469 117.847656 "/>
<path style=" stroke:none;fill-rule:nonzero;fill:rgb(56.470591%,70.980394%,44.313726%);fill-opacity:1;" d="M 93.847656 57.101562 L 95.527344 57.242188 C 92.257812 67.566406 89.617188 77.796875 87.609375 87.929688 C 85.226562 100.027344 84.476562 108.855469 85.367188 114.414062 C 86.019531 118.105469 86.511719 124.644531 86.835938 134.035156 L 86.699219 133.964844 C 83.238281 131.019531 80.578125 126.375 78.707031 120.019531 C 76.886719 114.136719 76.019531 107.78125 76.113281 100.964844 C 76.160156 95.5 78.289062 88.257812 82.492188 79.242188 L 93.847656 57.101562 "/>
<path style=" stroke:none;fill-rule:nonzero;fill:rgb(5.098039%,7.450981%,10.196079%);fill-opacity:1;" d="M 180.890625 96.828125 C 180.003906 66.84375 170.589844 43.113281 152.648438 25.644531 C 136.15625 9.621094 116.53125 2.21875 93.777344 3.433594 C 95.363281 8.382812 96.8125 13.871094 98.121094 19.898438 C 100.691406 31.996094 101.136719 40.964844 99.453125 46.804688 C 98.425781 50.351562 95.714844 56.027344 91.324219 63.828125 C 86.652344 72.050781 83.519531 78.542969 81.933594 83.308594 C 77.679688 96.105469 77.003906 107.433594 79.898438 117.289062 C 81.675781 123.359375 84.5 128.21875 88.378906 131.863281 C 91.089844 134.429688 91.765625 135.972656 90.410156 136.484375 C 89.105469 137 87.164062 136.253906 84.59375 134.246094 C 79.503906 130.320312 76.089844 123.476562 74.363281 113.714844 C 72.398438 102.878906 73.542969 92.34375 77.796875 82.117188 C 78.871094 79.453125 82.140625 73.335938 87.609375 63.757812 C 92 56.050781 94.6875 49.839844 95.667969 45.121094 C 96.882812 39.191406 96.742188 31.832031 95.246094 23.050781 C 94.171875 16.699219 92.539062 10.324219 90.34375 3.921875 C 89.734375 2.242188 90.039062 1.144531 91.253906 0.628906 L 97.210938 0 C 119.125 0 137.695312 6.515625 152.929688 19.546875 C 172.457031 36.316406 182.972656 61.820312 184.464844 96.058594 C 184.511719 97.226562 183.929688 98.183594 182.714844 98.929688 C 181.546875 99.632812 180.9375 98.929688 180.890625 96.828125 "/>
<path style=" stroke:none;fill-rule:nonzero;fill:rgb(94.117647%,90.980393%,0%);fill-opacity:1;" d="M 286.722656 190.507812 C 281.019531 202.976562 273.148438 215.074219 263.101562 226.800781 C 237.453125 256.835938 205.960938 275.84375 168.628906 283.832031 C 160.683594 285.515625 151.644531 277.785156 141.503906 260.640625 C 132.394531 245.226562 124.402344 225.960938 117.535156 202.835938 C 110.621094 179.574219 107.09375 159.957031 106.953125 143.984375 C 106.859375 126.09375 111.296875 117.359375 120.269531 117.777344 C 136.621094 118.527344 153.769531 114.042969 171.710938 104.328125 L 190.492188 93.257812 C 196.894531 89.425781 201.800781 87.089844 205.210938 86.25 C 228.339844 80.550781 248.292969 84.054688 265.066406 96.757812 C 283.332031 110.585938 293.027344 132.398438 294.148438 162.199219 C 294.429688 169.671875 291.953125 179.109375 286.722656 190.507812 "/>
<path style=" stroke:none;fill-rule:nonzero;fill:rgb(74.901962%,47.450981%,30.588236%);fill-opacity:1;" d="M 343.421875 137.257812 C 340.757812 141.085938 338.1875 143.5625 335.710938 144.683594 C 333.890625 145.476562 332.742188 145.78125 332.277344 145.59375 C 331.808594 145.40625 331.460938 144.496094 331.226562 142.863281 C 332.582031 138.144531 333.445312 133.730469 333.820312 129.621094 C 334.519531 121.632812 332.042969 116.332031 326.390625 113.714844 C 322.792969 112.035156 318.515625 111.964844 313.5625 113.503906 C 308.9375 114.953125 305.128906 117.265625 302.140625 120.441406 C 300.972656 121.703125 297.351562 118.128906 291.277344 109.722656 C 285.203125 101.359375 282.960938 96.527344 284.546875 95.21875 C 291.558594 89.472656 301.695312 86.601562 314.964844 86.601562 C 329.03125 86.601562 339.730469 90.265625 347.066406 97.601562 C 352.859375 103.34375 353.769531 112.21875 349.796875 124.226562 C 348.210938 128.988281 346.082031 133.332031 343.421875 137.257812 "/>
<path style=" stroke:none;fill-rule:nonzero;fill:rgb(94.117647%,90.980393%,0%);fill-opacity:1;" d="M 264.785156 91.785156 C 268.617188 90.148438 273.59375 90.359375 279.710938 92.414062 C 286.953125 94.890625 292.5625 99.28125 296.535156 105.585938 C 300.785156 112.265625 302.539062 118.96875 301.789062 125.695312 C 301.230469 130.695312 299.382812 135.363281 296.253906 139.710938 C 295.039062 141.4375 294.035156 141.789062 293.238281 140.761719 C 292.632812 140.058594 291.789062 137.957031 290.714844 134.453125 C 288.800781 128.195312 285.671875 121.539062 281.324219 114.484375 C 276.417969 106.683594 271.792969 101.5 267.449219 98.929688 C 265.203125 97.625 263.78125 96.316406 263.171875 95.007812 C 262.519531 93.605469 263.054688 92.53125 264.785156 91.785156 "/>
<path style=" stroke:none;fill-rule:nonzero;fill:rgb(80.784315%,78.823531%,0%);fill-opacity:1;" d="M 254.0625 235.207031 C 241.074219 247.492188 226.703125 258.117188 210.957031 267.085938 C 194.652344 276.335938 178.765625 282.6875 163.300781 286.144531 L 171.851562 270.800781 C 177.785156 260.476562 181.40625 255.105469 182.714844 254.6875 C 208.597656 247.351562 232.007812 233.921875 252.941406 214.398438 C 270.601562 197.910156 284.175781 179.554688 293.660156 159.328125 C 294.875 170.722656 291.765625 183.3125 284.339844 197.09375 C 277.328125 209.984375 267.238281 222.6875 254.0625 235.207031 "/>
<path style=" stroke:none;fill-rule:nonzero;fill:rgb(80.784315%,78.823531%,0%);fill-opacity:1;" d="M 289.382812 128.078125 C 292.421875 127.097656 294.640625 125.789062 296.042969 124.15625 C 297.632812 122.332031 298.941406 119.414062 299.96875 115.398438 C 299.96875 113.386719 300.292969 114.4375 300.949219 118.550781 C 301.460938 122.144531 301.484375 125.136719 301.019531 127.519531 C 300.132812 132.65625 297.75 137.210938 293.871094 141.179688 C 293.355469 140.339844 292.726562 138.566406 291.976562 135.855469 L 289.382812 128.078125 "/>
<path style=" stroke:none;fill-rule:nonzero;fill:rgb(5.098039%,7.450981%,10.196079%);fill-opacity:1;" d="M 61.886719 111.683594 C 86.929688 105.097656 110.96875 108.625 134.003906 122.261719 C 157.414062 136.136719 173.464844 156.828125 182.152344 184.339844 C 190.9375 212.132812 189.816406 238.570312 178.789062 263.652344 C 173.558594 275.519531 166.453125 285.675781 157.484375 294.132812 C 148.234375 302.867188 137.601562 309.125 125.59375 312.910156 C 113.585938 316.738281 101.230469 317.765625 88.519531 315.992188 C 76.136719 314.265625 64.363281 310.058594 53.195312 303.378906 C 41.984375 296.699219 32.265625 288.058594 24.042969 277.457031 C 15.492188 266.386719 9.253906 253.984375 5.328125 240.253906 C 1.777344 227.78125 0.375 214.65625 1.125 200.875 C 1.917969 187.191406 4.769531 174.25 9.671875 162.058594 C 14.765625 149.402344 21.589844 138.773438 30.136719 130.179688 C 39.34375 120.980469 49.925781 114.8125 61.886719 111.683594 "/>
<path style=" stroke:none;fill-rule:nonzero;fill:rgb(5.098039%,7.450981%,10.196079%);fill-opacity:1;" d="M 276.769531 110.703125 C 272.703125 104.722656 267.238281 99.609375 260.371094 95.359375 C 253.3125 90.96875 245.582031 88.023438 237.171875 86.53125 C 217.546875 83.027344 199.136719 87.558594 181.945312 100.121094 C 172.597656 106.941406 161.96875 112.128906 150.054688 115.675781 C 138.28125 119.226562 128.421875 120.277344 120.480469 118.828125 C 118.140625 118.410156 116.0625 117.570312 114.242188 116.308594 C 112.324219 115 113.097656 114.460938 116.554688 114.695312 C 129.402344 115.535156 141.222656 114.460938 152.015625 111.472656 C 162.34375 108.625 171.265625 104.117188 178.789062 97.949219 C 194.675781 84.917969 212.921875 79.828125 233.527344 82.675781 C 242.777344 83.9375 251.375 86.832031 259.316406 91.363281 C 267.402344 95.941406 273.988281 101.734375 279.082031 108.742188 C 294.035156 129.292969 299.125 151.082031 294.359375 174.109375 C 290.714844 191.628906 281.183594 210.078125 265.765625 229.460938 C 254.644531 243.476562 239.367188 255.761719 219.929688 266.316406 C 202.457031 275.84375 183.207031 283.15625 162.179688 288.246094 C 158.957031 289.039062 157.695312 288.480469 158.394531 286.566406 C 159.097656 284.648438 161.152344 283.203125 164.5625 282.222656 C 187.457031 275.960938 205 269.703125 217.195312 263.445312 C 233.875 254.988281 248.035156 243.523438 259.667969 229.042969 C 275.929688 208.910156 286.066406 191.347656 290.085938 176.351562 C 295.925781 154.304688 291.488281 132.421875 276.769531 110.703125 "/>
<path style=" stroke:none;fill-rule:nonzero;fill:rgb(95.686275%,69.411767%,69.411767%);fill-opacity:1;" d="M 53.195312 118.96875 C 61.375 114.859375 71.113281 112.710938 82.421875 112.523438 C 94.429688 112.335938 106.273438 114.460938 117.957031 118.898438 C 146.410156 129.738281 166.292969 150.617188 177.597656 181.539062 C 185.167969 202.230469 186.03125 223.554688 180.191406 245.507812 C 174.164062 267.929688 162.53125 285.328125 145.289062 297.707031 C 128.46875 309.804688 110.175781 314.613281 90.410156 312.140625 C 71.441406 309.757812 53.6875 301.070312 37.148438 286.074219 C 25.046875 275.050781 16.214844 261.296875 10.65625 244.804688 C 5.421875 229.253906 3.644531 213.042969 5.328125 196.179688 C 7.011719 179.320312 11.871094 164.160156 19.90625 150.710938 C 28.457031 136.460938 39.554688 125.882812 53.195312 118.96875 "/>
<path style=" stroke:none;fill-rule:nonzero;fill:rgb(5.098039%,7.450981%,10.196079%);fill-opacity:1;" d="M 97.980469 132.703125 C 120.640625 140.410156 136.738281 155.707031 146.269531 178.59375 C 155.753906 201.25 155.941406 224.277344 146.832031 247.679688 C 143.1875 257.019531 137.625 264.890625 130.152344 271.289062 C 122.769531 277.550781 114.429688 281.683594 105.128906 283.691406 C 95.457031 285.792969 85.832031 285.328125 76.253906 282.292969 C 65.929688 279.019531 56.539062 272.996094 48.082031 264.214844 C 35.417969 251.089844 27.523438 235.699219 24.390625 218.042969 C 21.867188 203.609375 22.640625 189.457031 26.703125 175.582031 C 32.683594 155.078125 43.828125 141.390625 60.136719 134.523438 C 72.9375 129.058594 85.554688 128.453125 97.980469 132.703125 "/>
<path style=" stroke:none;fill-rule:nonzero;fill:rgb(5.098039%,7.450981%,10.196079%);fill-opacity:1;" d="M 334.167969 251.113281 C 344.589844 265.5 351.222656 281.472656 354.074219 299.035156 C 356.691406 315.152344 355.894531 330.871094 351.691406 346.191406 C 347.671875 361.089844 341.0625 373.351562 331.855469 382.972656 C 322.324219 392.96875 311.4375 398.550781 299.195312 399.71875 C 297.234375 399.90625 296.042969 399.066406 295.621094 397.199219 C 295.296875 395.796875 295.226562 392.292969 295.410156 386.6875 C 296.535156 349.085938 278.335938 325.171875 240.816406 314.941406 C 224.976562 310.597656 212.734375 303.964844 204.089844 295.042969 C 196.289062 286.960938 192.105469 277.761719 191.546875 267.4375 C 191.03125 257.628906 193.835938 248.214844 199.957031 239.203125 C 206.214844 230 214.976562 222.734375 226.238281 217.410156 C 244.414062 208.769531 263.125 207.203125 282.375 212.714844 C 302.652344 218.507812 319.917969 231.308594 334.167969 251.113281 "/>
<path style=" stroke:none;fill-rule:nonzero;fill:rgb(5.098039%,7.450981%,10.196079%);fill-opacity:1;" d="M 277.191406 93.605469 C 271.441406 91.878906 266.675781 92.414062 262.890625 95.21875 C 262.003906 95.917969 260.953125 95.683594 259.738281 94.515625 C 258.523438 93.304688 258.359375 92.484375 259.246094 92.066406 C 265.460938 88.980469 272.097656 88.492188 279.152344 90.59375 C 285.878906 92.601562 291.558594 96.457031 296.183594 102.15625 C 300.949219 108.132812 303.449219 114.8125 303.683594 122.191406 C 303.867188 130.460938 301.042969 138.425781 295.203125 146.085938 C 293.894531 147.765625 293.027344 147.488281 292.609375 145.246094 C 292.140625 143.003906 292.492188 141.15625 293.660156 139.710938 C 298.472656 133.589844 300.503906 127.050781 299.757812 120.089844 C 299.054688 114.019531 296.417969 108.4375 291.835938 103.34375 C 287.539062 98.535156 282.65625 95.289062 277.191406 93.605469 "/>
<path style=" stroke:none;fill-rule:nonzero;fill:rgb(5.098039%,7.450981%,10.196079%);fill-opacity:1;" d="M 346.292969 135.996094 C 343.117188 140.898438 339.824219 144.378906 336.410156 146.433594 C 332.859375 148.585938 330.710938 149.074219 329.964844 147.90625 C 329.355469 146.925781 329.542969 144.332031 330.523438 140.128906 C 333.75 126.164062 331.667969 117.777344 324.285156 114.976562 C 321.296875 113.808594 317.746094 113.832031 313.632812 115.046875 C 309.710938 116.214844 305.949219 118.222656 302.351562 121.070312 C 301.742188 121.539062 301.183594 121.28125 300.667969 120.300781 C 300.15625 119.320312 300.269531 118.550781 301.019531 117.988281 C 306.578125 114.019531 311.929688 111.707031 317.066406 111.050781 C 321.972656 110.492188 326.0625 111.496094 329.332031 114.066406 C 332.652344 116.679688 334.660156 120.535156 335.359375 125.625 C 336.109375 131.136719 335.242188 137.492188 332.765625 144.683594 C 334.683594 144.917969 337.300781 142.957031 340.617188 138.796875 C 344.074219 134.40625 346.667969 129.457031 348.394531 123.945312 C 353.207031 108.765625 348.863281 97.996094 335.359375 91.644531 C 327.136719 87.816406 318.257812 86.507812 308.726562 87.722656 C 300.132812 88.796875 292.796875 91.574219 286.722656 96.058594 C 286.019531 96.574219 285.367188 96.339844 284.757812 95.359375 C 284.105469 94.378906 284.011719 93.746094 284.480469 93.464844 C 290.878906 89.214844 298.074219 86.367188 306.066406 84.917969 C 316.671875 83.050781 326.878906 84.242188 336.691406 88.492188 C 350.523438 94.425781 355.964844 104.792969 353.023438 119.601562 C 351.902344 125.253906 349.65625 130.71875 346.292969 135.996094 "/>
<path style=" stroke:none;fill-rule:nonzero;fill:rgb(5.098039%,7.450981%,10.196079%);fill-opacity:1;" d="M 240.324219 181.679688 C 241.820312 188.777344 240.816406 195.339844 237.3125 201.367188 C 233.808594 207.390625 228.808594 211.082031 222.3125 212.4375 C 215.816406 213.835938 209.722656 212.507812 204.019531 208.441406 C 198.367188 204.378906 194.792969 198.796875 193.296875 191.699219 C 191.753906 184.597656 192.738281 178.035156 196.242188 172.007812 C 199.792969 165.984375 204.816406 162.269531 211.308594 160.867188 C 217.804688 159.515625 223.878906 160.867188 229.53125 164.933594 C 235.183594 168.996094 238.78125 174.578125 240.324219 181.679688 "/>
<path style=" stroke:none;fill-rule:nonzero;fill:rgb(5.098039%,7.450981%,10.196079%);fill-opacity:1;" d="M 165.964844 103.90625 C 172.367188 102.550781 178.277344 103.507812 183.695312 106.777344 C 189.117188 110 192.457031 114.601562 193.71875 120.582031 C 194.980469 126.558594 193.882812 132.027344 190.425781 136.976562 C 186.964844 141.882812 182.035156 145.011719 175.636719 146.367188 C 169.046875 147.71875 163.066406 146.761719 157.695312 143.492188 C 152.507812 140.269531 149.332031 135.855469 148.164062 130.25 C 146.902344 124.226562 147.953125 118.691406 151.316406 113.644531 C 154.726562 108.507812 159.609375 105.261719 165.964844 103.90625 "/>
<path style=" stroke:none;fill-rule:nonzero;fill:rgb(100%,100%,100%);fill-opacity:1;" d="M 166.664062 106.148438 C 172.226562 104.980469 177.339844 105.796875 182.015625 108.601562 C 186.6875 111.402344 189.582031 115.398438 190.703125 120.582031 C 191.777344 125.765625 190.75 130.601562 187.621094 135.085938 C 184.488281 139.570312 180.167969 142.394531 174.65625 143.5625 C 169.140625 144.777344 164.046875 143.960938 159.375 141.109375 C 154.65625 138.308594 151.761719 134.3125 150.683594 129.128906 C 149.5625 123.945312 150.570312 119.109375 153.699219 114.625 C 156.828125 110.140625 161.152344 107.316406 166.664062 106.148438 "/>
<path style=" stroke:none;fill-rule:nonzero;fill:rgb(100%,100%,100%);fill-opacity:1;" d="M 237.800781 182.027344 C 239.109375 188.195312 238.246094 193.871094 235.207031 199.054688 C 232.171875 204.285156 227.828125 207.507812 222.171875 208.722656 C 216.519531 209.9375 211.238281 208.769531 206.332031 205.21875 C 201.472656 201.714844 198.367188 196.882812 197.011719 190.714844 C 195.703125 184.550781 196.566406 178.851562 199.605469 173.621094 C 202.640625 168.390625 206.988281 165.191406 212.640625 164.023438 C 218.246094 162.808594 223.503906 163.953125 228.410156 167.453125 C 233.363281 170.957031 236.492188 175.816406 237.800781 182.027344 "/>
<path style=" stroke:none;fill-rule:nonzero;fill:rgb(5.098039%,7.450981%,10.196079%);fill-opacity:1;" d="M 170.871094 118.410156 C 173.488281 117.847656 175.917969 118.363281 178.160156 119.949219 C 180.402344 121.539062 181.828125 123.734375 182.433594 126.535156 C 183.042969 129.339844 182.644531 131.933594 181.242188 134.3125 C 179.792969 136.695312 177.785156 138.167969 175.214844 138.726562 C 172.644531 139.289062 170.214844 138.773438 167.925781 137.1875 C 165.683594 135.597656 164.257812 133.402344 163.652344 130.601562 C 163.042969 127.796875 163.441406 125.207031 164.84375 122.824219 C 166.292969 120.441406 168.300781 118.96875 170.871094 118.410156 "/>
<path style=" stroke:none;fill-rule:nonzero;fill:rgb(5.098039%,7.450981%,10.196079%);fill-opacity:1;" d="M 228.832031 195.691406 C 227.101562 198.585938 224.648438 200.386719 221.472656 201.085938 C 218.339844 201.738281 215.398438 201.109375 212.640625 199.195312 C 209.882812 197.234375 208.132812 194.546875 207.382812 191.136719 C 206.636719 187.679688 207.128906 184.503906 208.855469 181.609375 C 210.585938 178.710938 213.039062 176.9375 216.214844 176.28125 C 219.390625 175.582031 222.359375 176.214844 225.117188 178.175781 C 227.871094 180.136719 229.601562 182.824219 230.300781 186.230469 C 231.050781 189.640625 230.558594 192.796875 228.832031 195.691406 "/>
<path style=" stroke:none;fill-rule:nonzero;fill:rgb(92.941177%,52.156866%,60.000002%);fill-opacity:1;" d="M 111.789062 144.472656 C 126.460938 151.527344 137.113281 163.882812 143.746094 181.539062 C 149.726562 197.371094 151.175781 213.066406 148.09375 228.621094 C 145.941406 239.316406 142.695312 248.007812 138.351562 254.6875 C 131.714844 264.914062 123.28125 268.839844 113.050781 266.457031 C 96.835938 262.671875 83.800781 253.609375 73.941406 239.269531 C 64.503906 225.585938 59.972656 210.21875 60.34375 193.167969 C 60.765625 174.953125 67.308594 160.890625 79.96875 150.988281 C 85.203125 146.878906 90.761719 144.238281 96.648438 143.074219 C 102.398438 141.953125 107.441406 142.417969 111.789062 144.472656 "/>
<path style=" stroke:none;fill-rule:nonzero;fill:rgb(72.941178%,73.725492%,47.450981%);fill-opacity:1;" d="M 212.992188 106.007812 C 211.589844 107.222656 209.722656 108.109375 207.382812 108.671875 L 201.636719 108.320312 C 200.328125 107.527344 199.582031 106.359375 199.394531 104.816406 C 199.207031 103.320312 199.582031 101.945312 200.515625 100.683594 C 201.871094 98.816406 203.902344 97.578125 206.613281 96.96875 C 209.417969 96.269531 211.613281 96.667969 213.203125 98.160156 C 214.324219 99.234375 214.859375 100.566406 214.8125 102.15625 C 214.765625 103.742188 214.160156 105.027344 212.992188 106.007812 "/>
<path style=" stroke:none;fill-rule:nonzero;fill:rgb(72.941178%,73.725492%,47.450981%);fill-opacity:1;" d="M 263.664062 110.070312 C 264.597656 111.285156 264.972656 112.59375 264.785156 113.996094 C 264.550781 115.398438 263.734375 116.632812 262.332031 117.707031 C 260.835938 118.828125 259.175781 119.4375 257.355469 119.53125 C 255.488281 119.625 254.109375 119.109375 253.21875 117.988281 C 252.378906 116.820312 252.285156 115.328125 252.941406 113.503906 C 253.546875 111.777344 254.621094 110.351562 256.164062 109.230469 C 257.566406 108.203125 258.96875 107.78125 260.371094 107.96875 C 261.628906 108.15625 262.730469 108.855469 263.664062 110.070312 "/>
<path style=" stroke:none;fill-rule:nonzero;fill:rgb(72.941178%,73.725492%,47.450981%);fill-opacity:1;" d="M 260.929688 156.804688 C 259.949219 159.421875 258.335938 161.453125 256.09375 162.902344 C 253.804688 164.300781 251.5625 164.699219 249.367188 164.089844 C 247.167969 163.484375 245.628906 162.035156 244.738281 159.746094 C 243.851562 157.457031 243.898438 155.007812 244.878906 152.390625 C 245.863281 149.820312 247.496094 147.8125 249.785156 146.367188 C 252.074219 144.917969 254.320312 144.496094 256.515625 145.105469 C 258.710938 145.757812 260.253906 147.207031 261.140625 149.449219 C 262.027344 151.738281 261.957031 154.1875 260.929688 156.804688 "/>
<path style=" stroke:none;fill-rule:nonzero;fill:rgb(72.941178%,73.725492%,47.450981%);fill-opacity:1;" d="M 212.640625 102.503906 C 212.453125 103.484375 211.636719 104.398438 210.1875 105.238281 C 208.785156 106.125 207.335938 106.617188 205.84375 106.707031 C 204.535156 106.800781 203.460938 106.570312 202.617188 106.007812 C 201.777344 105.402344 201.425781 104.582031 201.566406 103.554688 C 201.707031 102.246094 202.570312 101.082031 204.160156 100.050781 C 205.421875 99.210938 206.683594 98.699219 207.945312 98.511719 C 209.253906 98.371094 210.375 98.605469 211.308594 99.210938 C 212.476562 99.960938 212.921875 101.058594 212.640625 102.503906 "/>
<path style=" stroke:none;fill-rule:nonzero;fill:rgb(72.941178%,73.725492%,47.450981%);fill-opacity:1;" d="M 262.613281 113.503906 C 262.378906 115.234375 261.117188 116.449219 258.828125 117.148438 C 257.847656 117.429688 256.933594 117.429688 256.09375 117.148438 C 255.066406 116.773438 254.621094 116.050781 254.761719 114.976562 C 254.902344 113.761719 255.324219 112.6875 256.023438 111.753906 C 256.769531 110.726562 257.707031 110.09375 258.828125 109.863281 C 259.949219 109.628906 260.90625 109.886719 261.699219 110.632812 C 262.496094 111.378906 262.796875 112.335938 262.613281 113.503906 "/>
<path style=" stroke:none;fill-rule:nonzero;fill:rgb(72.941178%,73.725492%,47.450981%);fill-opacity:1;" d="M 257.984375 157.4375 C 257.050781 158.976562 255.8125 160.167969 254.273438 161.007812 C 252.777344 161.804688 251.328125 162.035156 249.925781 161.710938 C 248.664062 161.429688 247.800781 160.355469 247.332031 158.488281 C 246.820312 156.617188 246.9375 154.703125 247.683594 152.742188 C 248.523438 150.640625 249.808594 149.144531 251.539062 148.257812 C 252.941406 147.511719 254.226562 147.300781 255.394531 147.625 C 257.308594 148.234375 258.523438 149.519531 259.039062 151.480469 C 259.550781 153.488281 259.199219 155.472656 257.984375 157.4375 "/>
<path style=" stroke:none;fill-rule:nonzero;fill:rgb(65.490198%,81.568629%,50.588238%);fill-opacity:1;" d="M 230.09375 220.285156 C 247.753906 213.324219 265.226562 212.578125 282.515625 218.042969 C 301.347656 224.019531 318.027344 236.9375 332.558594 256.789062 C 342.460938 270.285156 348.511719 285.539062 350.710938 302.539062 C 352.671875 317.859375 351.386719 332.949219 346.855469 347.800781 C 342.507812 362 336.039062 373.539062 327.441406 382.414062 C 318.515625 391.617188 308.960938 396.191406 298.777344 396.144531 C 300.269531 376.246094 297.980469 360.015625 291.90625 347.453125 C 283.402344 329.933594 267.167969 317.582031 243.199219 310.386719 C 226.050781 305.25 213.503906 298.125 205.5625 289.015625 C 198.648438 281.078125 195.609375 272.15625 196.453125 262.253906 C 197.246094 253.378906 200.914062 244.96875 207.453125 237.027344 C 213.808594 229.320312 221.355469 223.742188 230.09375 220.285156 "/>
<path style=" stroke:none;fill-rule:nonzero;fill:rgb(56.470591%,70.980394%,44.313726%);fill-opacity:1;" d="M 239.0625 299.949219 C 244.0625 302.234375 251.9375 305.203125 262.683594 308.84375 C 280.015625 314.730469 291.929688 328.277344 298.425781 349.484375 C 300.996094 357.9375 302.28125 366.484375 302.28125 375.128906 C 302.234375 383.347656 301.089844 390.027344 298.847656 395.164062 C 300.246094 375.546875 297.839844 359.480469 291.628906 346.960938 C 283.078125 329.679688 266.933594 317.488281 243.199219 310.386719 C 222.03125 304.082031 207.945312 294.808594 200.9375 282.570312 C 195.003906 272.203125 194.675781 261.015625 199.957031 249.011719 C 206.308594 268.628906 213.785156 282.199219 222.382812 289.71875 C 226.679688 293.5 232.242188 296.910156 239.0625 299.949219 "/>
<path style=" stroke:none;fill-rule:nonzero;fill:rgb(82.745099%,60.000002%,60.784316%);fill-opacity:1;" d="M 164.984375 270.871094 L 177.316406 254.40625 C 174.09375 263.234375 169.84375 271.265625 164.5625 278.507812 C 159.050781 286.027344 152.625 292.425781 145.289062 297.707031 C 133 306.535156 119.753906 311.484375 105.550781 312.558594 C 91.953125 313.539062 78.402344 310.925781 64.902344 304.710938 C 63.78125 303.402344 63.6875 302.191406 64.621094 301.070312 L 70.859375 300.859375 C 97.304688 310.808594 121.507812 307.726562 143.464844 291.609375 C 150.847656 286.238281 158.019531 279.324219 164.984375 270.871094 "/>
</g>
</svg>
