<?xml version="1.0" encoding="UTF-8"?>
<svg xmlns="http://www.w3.org/2000/svg" xmlns:xlink="http://www.w3.org/1999/xlink" width="361px" height="400px" viewBox="0 0 361 399" version="1.1">
<g id="surface1">
<path style=" stroke:none;fill-rule:nonzero;fill:rgb(100%,92.156863%,24.705882%);fill-opacity:1;" d="M 248.972656 43.675781 C 253.308594 48.597656 257.34375 54.375 261.085938 61.015625 C 268.179688 73.851562 272.660156 87.871094 274.53125 103.070312 C 276.402344 117.777344 275.566406 131.574219 272.019531 144.460938 C 270 151.738281 267.808594 157.445312 265.445312 161.578125 C 264.214844 163.742188 262.613281 164.75 260.644531 164.601562 C 260.101562 164.554688 259.042969 165.265625 257.46875 166.742188 C 255.792969 168.316406 254.121094 169.175781 252.445312 169.324219 C 249.195312 169.621094 246.4375 168.980469 244.171875 167.40625 C 242.054688 165.832031 240.800781 165.09375 240.40625 165.191406 C 237.449219 165.832031 234.792969 165.78125 232.429688 165.046875 C 229.964844 164.308594 228.390625 163.027344 227.699219 161.207031 L 227.183594 159.511719 L 225.113281 150.363281 L 215.957031 151.691406 L 222.457031 161.871094 C 230.484375 175.003906 236.5625 187.152344 240.699219 198.320312 C 245.574219 211.453125 248.433594 224.804688 249.269531 238.382812 C 249.613281 244.039062 249.417969 249.671875 248.679688 255.277344 C 248.1875 252.917969 247.175781 251.046875 245.648438 249.671875 C 244.222656 248.441406 242.597656 247.800781 240.773438 247.75 C 238.707031 247.75 236.539062 248.589844 234.273438 250.261719 C 233.488281 250.800781 231.492188 252.597656 228.292969 255.644531 C 223.070312 260.566406 218.097656 262.582031 213.371094 261.695312 C 211.054688 261.253906 208.890625 260.046875 206.871094 258.082031 L 201.625 251.957031 C 196.898438 246.105469 191.703125 242.660156 186.039062 241.628906 C 182.050781 240.890625 178.160156 241.234375 174.367188 242.660156 C 172.546875 243.300781 169.371094 244.972656 164.839844 247.679688 C 160.902344 249.941406 157.578125 251.390625 154.867188 252.03125 C 150.78125 252.964844 146.398438 252.695312 141.71875 251.21875 C 138.078125 250.039062 135.074219 248.023438 132.707031 245.167969 C 131.429688 243.546875 129.703125 240.621094 127.539062 236.390625 C 125.519531 232.355469 123.648438 229.355469 121.925781 227.390625 C 119.265625 224.289062 115.816406 222.027344 111.582031 220.601562 C 106.804688 218.929688 100.207031 219.542969 91.785156 222.445312 C 83.367188 225.347656 76.546875 225.839844 71.324219 223.921875 C 66.15625 222.050781 62.488281 217.453125 60.320312 210.125 C 59.136719 206.289062 58.179688 203.679688 57.4375 202.304688 C 55.960938 199.695312 53.894531 197.851562 51.234375 196.769531 C 47.394531 195.246094 42.9375 195.785156 37.863281 198.394531 C 32.496094 201.148438 28.753906 202.277344 26.636719 201.789062 C 23.042969 200.949219 21.097656 198.6875 20.800781 195 C 25.824219 171.832031 33.777344 148.886719 44.660156 126.164062 C 55.886719 102.601562 69.0625 81.921875 84.179688 64.113281 C 93.484375 53.097656 103.507812 43.777344 114.242188 36.152344 C 110.5 31.429688 106.878906 25.75 103.382812 19.109375 C 99.691406 12.125 98.460938 8.289062 99.691406 7.597656 C 105.402344 4.402344 112.691406 3.613281 121.554688 5.238281 C 131.058594 7.007812 140.6875 11.289062 150.4375 18.074219 C 163.238281 14.191406 176.019531 12.738281 188.773438 13.722656 C 200.589844 14.65625 211.597656 17.609375 221.792969 22.578125 L 225.042969 24.273438 C 233.90625 29.144531 241.882812 35.609375 248.972656 43.675781 "/>
<path style=" stroke:none;fill-rule:nonzero;fill:rgb(100%,92.156863%,24.705882%);fill-opacity:1;" d="M 255.472656 15.863281 C 256.605469 18.175781 256.507812 22.230469 255.179688 28.035156 C 253.847656 33.988281 251.78125 39.203125 248.972656 43.675781 C 241.882812 35.609375 233.90625 29.144531 225.042969 24.273438 L 221.792969 22.578125 C 224.941406 19.722656 230.164062 17.460938 237.449219 15.789062 C 245.230469 14.066406 251.238281 14.09375 255.472656 15.863281 "/>
<path style=" stroke:none;fill-rule:nonzero;fill:rgb(46.27451%,22.745098%,0%);fill-opacity:1;" d="M 180.796875 364.839844 C 180.253906 362.378906 177.644531 358.886719 172.964844 354.363281 C 168.730469 350.28125 164.199219 346.640625 159.375 343.445312 C 181.730469 338.820312 200.9375 329.375 216.988281 315.113281 C 234.472656 299.519531 245.109375 280.683594 248.898438 258.597656 C 260.128906 278.273438 264.238281 297.0625 261.234375 314.964844 C 258.527344 331.34375 250.007812 346.492188 235.679688 360.414062 C 241.292969 361.789062 246.808594 365.183594 252.222656 370.59375 L 252.148438 370.59375 C 248.652344 369.90625 244.148438 371.773438 238.632812 376.203125 C 232.871094 380.824219 230.53125 385.128906 231.617188 389.113281 L 231.761719 389.335938 C 222.605469 388.941406 213.8125 387.957031 205.394531 386.382812 C 197.265625 384.859375 190.742188 383.039062 185.816406 380.925781 C 180.253906 378.515625 177.25 375.585938 176.808594 372.144531 C 176.414062 369.144531 177.742188 366.710938 180.796875 364.839844 "/>
<path style=" stroke:none;fill-rule:nonzero;fill:rgb(46.27451%,22.745098%,0%);fill-opacity:1;" d="M 246.09375 249.671875 C 248.011719 251.097656 249.21875 252.964844 249.710938 255.277344 L 249.195312 258.597656 C 245.648438 279.355469 235.234375 297.773438 217.949219 313.859375 C 201.207031 329.449219 181.683594 339.558594 159.375 344.183594 C 141.007812 347.921875 122.515625 346.863281 103.902344 341.007812 C 99.074219 346.417969 92.03125 352.421875 82.773438 359.011719 C 75.140625 364.371094 70.6875 368.457031 69.40625 371.257812 C 68.667969 372.832031 69.035156 375.488281 70.511719 379.226562 C 71.007812 383.113281 68.46875 386.972656 62.90625 390.808594 C 64.039062 388.546875 62.460938 385.523438 58.179688 381.734375 C 53.203125 377.359375 46.730469 374.800781 38.75 374.0625 C 30.921875 373.375 24.542969 374.160156 19.621094 376.421875 C 15.335938 378.390625 13.414062 380.679688 13.859375 383.285156 L 14.375 384.390625 C 6.496094 380.898438 7.382812 373.667969 17.035156 362.699219 C 18.90625 360.535156 20.039062 358.542969 20.433594 356.722656 C 20.972656 354.117188 20.234375 351.265625 18.214844 348.164062 C 10.140625 335.917969 5.734375 323.226562 4.996094 310.09375 C 4.109375 294.996094 7.753906 277.117188 15.925781 256.457031 C 14.105469 238.898438 15.730469 218.414062 20.800781 195 C 21.097656 198.6875 23.042969 200.949219 26.636719 201.789062 C 28.753906 202.277344 32.496094 201.148438 37.863281 198.394531 C 42.9375 195.785156 47.394531 195.246094 51.234375 196.769531 C 53.894531 197.851562 55.960938 199.695312 57.4375 202.304688 C 58.179688 203.679688 59.136719 206.289062 60.320312 210.125 C 62.488281 217.453125 66.15625 222.050781 71.324219 223.921875 C 76.546875 225.839844 83.367188 225.347656 91.785156 222.445312 C 100.207031 219.542969 106.804688 218.929688 111.582031 220.601562 C 115.816406 222.027344 119.265625 224.289062 121.925781 227.390625 C 123.648438 229.355469 125.519531 232.355469 127.539062 236.390625 C 129.703125 240.621094 131.429688 243.546875 132.707031 245.167969 C 135.074219 248.023438 138.078125 250.039062 141.71875 251.21875 C 146.398438 252.695312 150.78125 252.964844 154.867188 252.03125 C 157.578125 251.390625 160.902344 249.941406 164.839844 247.679688 C 169.371094 244.972656 172.546875 243.300781 174.367188 242.660156 C 178.160156 241.234375 182.050781 240.890625 186.039062 241.628906 C 191.703125 242.660156 196.898438 246.105469 201.625 251.957031 L 206.871094 258.082031 C 208.890625 260.046875 211.054688 261.253906 213.371094 261.695312 C 218.097656 262.582031 223.070312 260.566406 228.292969 255.644531 C 231.492188 252.597656 233.488281 250.800781 234.273438 250.261719 C 236.539062 248.589844 238.707031 247.75 240.773438 247.75 C 242.644531 247.800781 244.417969 248.441406 246.09375 249.671875 "/>
<path style=" stroke:none;fill-rule:nonzero;fill:rgb(100%,92.156863%,24.705882%);fill-opacity:1;" d="M 339.238281 35.191406 L 339.238281 37.257812 C 339.386719 38.046875 339.855469 38.785156 340.640625 39.472656 L 347.953125 42.867188 C 352.089844 44.785156 355.09375 47.167969 356.964844 50.023438 C 357.804688 51.351562 355.957031 52.53125 351.425781 53.5625 C 344.382812 55.136719 339.679688 56.441406 337.316406 57.472656 C 334.363281 59.984375 330.203125 65.441406 324.835938 73.851562 C 322.324219 77.738281 317.375 85.976562 309.988281 98.570312 C 303.734375 109.292969 297.578125 118.34375 291.519531 125.71875 C 285.316406 133.246094 278.816406 139.492188 272.019531 144.460938 C 275.566406 131.574219 276.402344 117.777344 274.53125 103.070312 C 272.660156 87.871094 268.179688 73.851562 261.085938 61.015625 C 266.601562 59.148438 272.5625 55.828125 278.964844 51.054688 C 283.148438 47.90625 288 43.726562 293.515625 38.511719 C 299.078125 33.25 303.535156 29.707031 306.882812 27.890625 C 310.824219 25.773438 315.355469 24.742188 320.476562 24.789062 L 326.828125 23.167969 C 330.570312 22.035156 333.574219 21.496094 335.839844 21.542969 C 339.289062 21.59375 342.5625 22.503906 345.664062 24.273438 C 348.371094 25.847656 349.949219 27.324219 350.390625 28.699219 C 350.882812 29.4375 349.777344 30.398438 347.066406 31.578125 C 342.734375 33.445312 340.125 34.652344 339.238281 35.191406 "/>
<path style=" stroke:none;fill-rule:nonzero;fill:rgb(100%,92.156863%,24.705882%);fill-opacity:1;" d="M 225.113281 150.363281 L 227.183594 159.511719 L 227.699219 161.207031 L 222.457031 161.871094 L 215.957031 151.691406 L 225.113281 150.363281 "/>
<path style=" stroke:none;fill-rule:nonzero;fill:rgb(100%,92.156863%,24.705882%);fill-opacity:1;" d="M 231.761719 389.335938 L 231.617188 389.113281 C 230.53125 385.128906 232.871094 380.824219 238.632812 376.203125 C 244.148438 371.773438 248.652344 369.90625 252.148438 370.59375 L 252.222656 370.59375 C 254.390625 371.085938 256.976562 372.882812 259.980469 375.980469 C 263.523438 379.667969 264.191406 382.742188 261.972656 385.203125 C 260.054688 387.367188 254.761719 388.867188 246.09375 389.703125 C 237.871094 390.492188 233.09375 390.367188 231.761719 389.335938 "/>
<path style=" stroke:none;fill-rule:nonzero;fill:rgb(100%,92.156863%,24.705882%);fill-opacity:1;" d="M 38.75 374.0625 C 46.730469 374.800781 53.203125 377.359375 58.179688 381.734375 C 62.460938 385.523438 64.039062 388.546875 62.90625 390.808594 L 62.757812 391.179688 C 61.722656 392.554688 58.078125 393.8125 51.824219 394.941406 C 44.785156 396.171875 38.40625 396.292969 32.695312 395.3125 C 28.953125 394.621094 25.136719 393.023438 21.246094 390.515625 C 17.894531 388.351562 15.605469 386.308594 14.375 384.390625 L 13.859375 383.285156 C 13.414062 380.679688 15.335938 378.390625 19.621094 376.421875 C 24.542969 374.160156 30.921875 373.375 38.75 374.0625 "/>
<path style=" stroke:none;fill-rule:nonzero;fill:rgb(63.921571%,38.039216%,10.980392%);fill-opacity:1;" d="M 149.84375 33.792969 C 144.429688 34.628906 139.355469 36.398438 134.628906 39.101562 C 130.9375 41.167969 128.917969 42.105469 128.570312 41.90625 C 123.84375 39.300781 118.894531 33.71875 113.726562 25.160156 C 108.75 16.847656 107.152344 12.445312 108.925781 11.953125 C 114.734375 10.378906 122.636719 12.417969 132.636719 18.074219 C 142.285156 23.535156 148.023438 28.773438 149.84375 33.792969 "/>
<path style=" stroke:none;fill-rule:nonzero;fill:rgb(100%,92.156863%,24.705882%);fill-opacity:1;" d="M 64.679688 134.351562 C 69.800781 126.484375 74.945312 121.316406 80.117188 118.859375 C 84.105469 116.988281 90.457031 117.234375 99.171875 119.597656 L 116.164062 125.425781 C 121.234375 127.195312 126.0625 131.867188 130.640625 139.445312 C 133.449219 144.019531 137.878906 152.28125 143.9375 164.234375 C 149.550781 174.21875 160.410156 186.957031 176.511719 202.453125 C 182.027344 204.714844 185.941406 206.609375 188.257812 208.132812 C 193.378906 211.476562 196.503906 215.511719 197.636719 220.230469 C 197.882812 221.3125 196.0625 222.273438 192.171875 223.109375 L 182.496094 224.4375 C 183.28125 227.289062 183.773438 230.242188 183.972656 233.292969 C 184.121094 236.242188 183.921875 238.578125 183.378906 240.300781 C 181.855469 245.5625 179.246094 246.152344 175.550781 242.070312 L 169.347656 235.503906 C 166.242188 232.601562 163.660156 230.980469 161.589844 230.636719 C 159.964844 237.175781 157.429688 242.195312 153.980469 245.6875 C 150.632812 249.03125 148.589844 249.203125 147.851562 246.203125 C 146.421875 240.398438 144.675781 235.578125 142.605469 231.742188 C 140.539062 227.90625 136.917969 225.101562 131.75 223.332031 C 110.03125 215.558594 94.175781 206.558594 84.179688 196.328125 C 73.199219 185.113281 64.652344 168.117188 58.546875 145.347656 C 60.074219 141.902344 62.117188 138.238281 64.679688 134.351562 "/>
<path style=" stroke:none;fill-rule:nonzero;fill:rgb(100%,100%,100%);fill-opacity:1;" d="M 208.347656 102.332031 C 208.445312 103.609375 208.222656 104.519531 207.683594 105.0625 C 207.140625 105.554688 206.453125 105.40625 205.613281 104.621094 C 199.3125 98.570312 192.464844 92.347656 185.078125 85.953125 C 184.144531 85.167969 183.675781 84.574219 183.675781 84.183594 C 183.628906 83.640625 184.242188 83.175781 185.523438 82.78125 C 191.480469 81.15625 196.726562 82.066406 201.257812 85.511719 C 206.132812 89.25 208.496094 94.855469 208.347656 102.332031 "/>
<path style=" stroke:none;fill-rule:nonzero;fill:rgb(32.941177%,14.117648%,0%);fill-opacity:1;" d="M 235.679688 360.414062 C 236.957031 360.707031 238.855469 361.472656 241.367188 362.699219 L 246.609375 365.503906 C 240.207031 364.371094 231.394531 366.339844 220.167969 371.40625 C 208.347656 376.667969 203.128906 381.808594 204.507812 386.828125 L 195.570312 384.390625 L 186.851562 381.957031 C 181.1875 379.496094 177.765625 376.644531 176.585938 373.398438 C 175.453125 370.152344 176.855469 367.300781 180.796875 364.839844 C 180.304688 362.378906 177.691406 358.960938 172.964844 354.585938 C 168.828125 350.648438 164.296875 347.058594 159.375 343.8125 C 181.683594 339.1875 201.207031 329.082031 217.949219 313.488281 C 235.234375 297.40625 245.648438 278.984375 249.195312 258.230469 C 260.816406 278.542969 265.347656 297.085938 262.785156 313.859375 C 260.324219 329.746094 251.289062 345.265625 235.679688 360.414062 "/>
<path style=" stroke:none;fill-rule:nonzero;fill:rgb(32.941177%,14.117648%,0%);fill-opacity:1;" d="M 160.113281 343.8125 C 151.003906 345.730469 141.671875 346.445312 132.117188 345.953125 C 122.367188 345.511719 112.960938 343.863281 103.902344 341.007812 C 105.921875 339.042969 108.332031 335.871094 111.140625 331.492188 C 116.949219 322.390625 119.632812 314.226562 119.191406 306.996094 C 133.175781 312.261719 150.929688 314.007812 172.449219 312.234375 C 199.335938 309.921875 221.398438 301.757812 238.632812 287.742188 C 230.851562 301.808594 219.96875 313.832031 205.984375 323.820312 C 192.046875 333.703125 176.757812 340.371094 160.113281 343.8125 "/>
<path style=" stroke:none;fill-rule:nonzero;fill:rgb(32.941177%,14.117648%,0%);fill-opacity:1;" d="M 98.140625 346.835938 C 94.742188 350.035156 88.808594 354.660156 80.335938 360.707031 C 74.28125 365.035156 70.636719 368.554688 69.40625 371.257812 C 69.011719 372.09375 68.960938 373.152344 69.257812 374.429688 L 70.292969 378.046875 C 64.382812 373.277344 55.765625 369.609375 44.4375 367.054688 C 32.421875 364.398438 22.277344 364.25 14.007812 366.609375 C 15.140625 364.9375 16.148438 363.636719 17.035156 362.699219 C 18.707031 360.78125 19.792969 358.765625 20.285156 356.652344 C 20.972656 353.601562 20.382812 350.648438 18.511719 347.796875 C 14.179688 341.207031 10.929688 334.886719 8.761719 328.835938 C 6.054688 321.210938 4.722656 313.292969 4.773438 305.078125 C 17.527344 316.34375 31.980469 325.6875 48.132812 333.113281 C 65.121094 340.886719 81.789062 345.460938 98.140625 346.835938 "/>
<path style=" stroke:none;fill-rule:nonzero;fill:rgb(86.666667%,79.607844%,21.568628%);fill-opacity:1;" d="M 272.019531 144.460938 C 274.382812 135.804688 275.515625 126.777344 275.417969 117.382812 C 287.582031 115.414062 298.09375 110.816406 306.957031 103.585938 C 295.828125 121.980469 284.183594 135.605469 272.019531 144.460938 "/>
<path style=" stroke:none;fill-rule:nonzero;fill:rgb(86.666667%,79.607844%,21.568628%);fill-opacity:1;" d="M 225.113281 150.363281 L 227.183594 159.511719 L 227.699219 161.207031 L 222.457031 161.871094 L 215.957031 151.691406 L 225.113281 150.363281 "/>
<path style=" stroke:none;fill-rule:nonzero;fill:rgb(86.666667%,79.607844%,21.568628%);fill-opacity:1;" d="M 231.761719 389.335938 L 231.617188 389.113281 L 231.394531 387.785156 C 236.5625 388.964844 242.03125 388.695312 247.792969 386.972656 C 253.40625 385.300781 258.207031 382.597656 262.195312 378.859375 C 263.671875 381.367188 263.597656 383.480469 261.972656 385.203125 C 260.054688 387.367188 254.761719 388.867188 246.09375 389.703125 C 237.871094 390.492188 233.09375 390.367188 231.761719 389.335938 "/>
<path style=" stroke:none;fill-rule:nonzero;fill:rgb(86.666667%,79.607844%,21.568628%);fill-opacity:1;" d="M 51.824219 394.941406 C 44.785156 396.171875 38.40625 396.292969 32.695312 395.3125 C 28.261719 394.523438 23.832031 392.507812 19.398438 389.261719 L 25.011719 390.21875 L 44.511719 391.472656 C 52.589844 390.933594 57.613281 388.128906 59.582031 383.0625 C 61.007812 384.589844 62.019531 386.089844 62.609375 387.5625 C 63.199219 388.941406 63.300781 390.023438 62.90625 390.808594 L 62.757812 391.179688 C 61.722656 392.554688 58.078125 393.8125 51.824219 394.941406 "/>
<path style=" stroke:none;fill-rule:nonzero;fill:rgb(50.196081%,29.019609%,4.705882%);fill-opacity:1;" d="M 132.636719 18.074219 C 142.285156 23.535156 148.023438 28.773438 149.84375 33.792969 L 148.886719 33.9375 C 137.953125 27.347656 125.714844 23.535156 112.175781 22.503906 C 110.597656 19.648438 109.515625 17.238281 108.925781 15.273438 C 108.285156 13.253906 108.285156 12.148438 108.925781 11.953125 C 114.734375 10.378906 122.636719 12.417969 132.636719 18.074219 "/>
<path style=" stroke:none;fill-rule:nonzero;fill:rgb(86.666667%,79.607844%,21.568628%);fill-opacity:1;" d="M 215.957031 151.691406 L 220.3125 158.625 L 226.296875 167.554688 C 227.332031 168.882812 227.085938 170.085938 225.558594 171.167969 C 224.03125 172.203125 221.742188 172.792969 218.6875 172.9375 C 210.070312 173.382812 199.210938 168.957031 186.113281 159.660156 C 173.308594 150.558594 164.988281 141.632812 161.148438 132.878906 C 169.175781 140.007812 179.246094 145.371094 191.359375 148.960938 C 201.796875 152.058594 209.996094 152.96875 215.957031 151.691406 "/>
<path style=" stroke:none;fill-rule:nonzero;fill:rgb(86.666667%,79.607844%,21.568628%);fill-opacity:1;" d="M 76.644531 187.917969 C 68.421875 176.257812 63.054688 163.9375 60.542969 150.953125 L 68.296875 163.863281 C 75.191406 173.898438 82.972656 182.53125 91.640625 189.761719 C 102.421875 198.8125 114.242188 206.707031 127.09375 213.445312 C 138.222656 219.199219 144.109375 222.496094 144.75 223.332031 C 146.914062 226.035156 148.367188 229.871094 149.105469 234.839844 C 149.796875 239.660156 149.625 244.160156 148.589844 248.34375 L 143.863281 233.882812 C 142.386719 230.191406 140.761719 227.980469 138.988281 227.242188 C 121.359375 219.960938 107.59375 213.714844 97.695312 208.5 C 90.753906 204.910156 83.734375 198.050781 76.644531 187.917969 "/>
<path style=" stroke:none;fill-rule:nonzero;fill:rgb(86.666667%,79.607844%,21.568628%);fill-opacity:1;" d="M 162.992188 223.332031 L 169.347656 229.011719 C 173.730469 233.78125 176.414062 238.726562 177.398438 243.839844 L 172.003906 238.234375 C 167.820312 234.300781 164.226562 231.742188 161.222656 230.5625 L 162.992188 223.332031 "/>
<path style=" stroke:none;fill-rule:nonzero;fill:rgb(86.666667%,79.607844%,21.568628%);fill-opacity:1;" d="M 182.421875 224.660156 L 179.390625 217.648438 L 185.746094 218.535156 C 190.375 219.421875 193.648438 220.578125 195.570312 222.003906 C 189.90625 223.871094 185.523438 224.757812 182.421875 224.660156 "/>
<path style=" stroke:none;fill-rule:nonzero;fill:rgb(86.666667%,79.607844%,21.568628%);fill-opacity:1;" d="M 243.136719 36.816406 L 247.792969 34.453125 C 251.289062 32.046875 253.996094 28.773438 255.917969 24.640625 L 254.367188 31.726562 C 252.886719 36.988281 251.191406 40.824219 249.269531 43.234375 L 243.136719 36.816406 "/>
<path style=" stroke:none;fill-rule:nonzero;fill:rgb(86.666667%,79.607844%,21.568628%);fill-opacity:1;" d="M 339.3125 35.929688 C 338.03125 37.703125 339.261719 39.519531 343.003906 41.390625 C 340.296875 42.375 339.359375 44.515625 340.199219 47.808594 C 341.085938 51.300781 343.84375 53.464844 348.472656 54.300781 L 339.460938 56.957031 C 337.195312 57.644531 335.863281 58.308594 335.472656 58.949219 C 333.648438 62.046875 331.582031 64.261719 329.265625 65.589844 C 327.246094 66.722656 325.253906 67.089844 323.28125 66.695312 C 320.917969 66.15625 319.441406 64.433594 318.851562 61.53125 C 318.210938 58.628906 318.800781 56.074219 320.625 53.859375 C 323.332031 53.367188 326.285156 51.988281 329.488281 49.726562 C 332.835938 47.316406 334.585938 45.175781 334.730469 43.308594 C 333.207031 41.683594 331.089844 40.308594 328.378906 39.175781 C 322.960938 36.914062 317.347656 37.085938 311.539062 39.695312 C 313.164062 38.265625 317.347656 36.472656 324.09375 34.308594 C 332.566406 31.652344 339.140625 31.109375 343.816406 32.683594 L 339.3125 35.929688 "/>
<path style=" stroke:none;fill-rule:nonzero;fill:rgb(5.098039%,7.450981%,10.196079%);fill-opacity:1;" d="M 81.445312 63.820312 C 90.949219 52.605469 101.585938 42.914062 113.355469 34.75 C 113.503906 35.683594 113.871094 36.519531 114.464844 37.257812 C 103.976562 44.785156 94.152344 53.957031 84.992188 64.777344 C 62.832031 90.847656 45.351562 121.835938 32.546875 157.742188 C 19.742188 193.449219 14.574219 225.519531 17.035156 253.949219 C 15.703125 256.015625 14.84375 257.464844 14.449219 258.300781 C 11.347656 226.578125 16.269531 192.441406 29.222656 155.894531 C 41.679688 120.777344 59.089844 90.085938 81.445312 63.820312 "/>
<path style=" stroke:none;fill-rule:nonzero;fill:rgb(5.098039%,7.450981%,10.196079%);fill-opacity:1;" d="M 273.128906 84.625 C 276.96875 98.152344 278.226562 112.144531 276.894531 126.605469 C 275.566406 140.722656 271.996094 152.921875 266.183594 163.199219 C 265.398438 164.480469 264.632812 165.242188 263.894531 165.488281 L 260.71875 165.265625 L 258.945312 166.667969 C 254.167969 171.585938 248.605469 171.855469 242.253906 167.480469 C 241.316406 166.839844 240.675781 166.519531 240.332031 166.519531 C 236.390625 166.964844 233.167969 166.691406 230.65625 165.707031 C 227.898438 164.578125 226.273438 162.683594 225.78125 160.027344 C 224.203125 150.878906 221.816406 143.871094 218.613281 139 C 215.414062 134.132812 211.15625 131.082031 205.835938 129.851562 C 193.523438 127.046875 186.382812 125.230469 184.414062 124.390625 C 178.257812 121.933594 174.394531 117.875 172.816406 112.21875 C 172.324219 110.449219 172.351562 109.316406 172.890625 108.824219 C 173.484375 108.285156 174.023438 108.898438 174.515625 110.667969 C 175.945312 115.589844 179.933594 119.351562 186.484375 121.957031 L 206.5 127.492188 C 212.410156 129.015625 217.089844 132.3125 220.535156 137.378906 C 223.933594 142.394531 226.492188 149.699219 228.21875 159.289062 C 228.5625 161.40625 229.890625 162.929688 232.207031 163.863281 L 239.886719 164.234375 C 240.875 164.035156 242.054688 164.453125 243.433594 165.488281 C 246.140625 167.355469 248.753906 168.191406 251.261719 167.996094 C 253.578125 167.800781 255.671875 166.765625 257.542969 164.898438 C 258.871094 163.472656 259.980469 162.808594 260.867188 162.90625 L 263.15625 162.535156 L 264.191406 161.0625 C 269.804688 151.175781 273.128906 139.445312 274.160156 125.867188 C 275.148438 112.292969 273.71875 98.742188 269.878906 85.214844 C 266.085938 71.789062 260.273438 59.910156 252.445312 49.578125 C 244.664062 39.25 235.359375 31.136719 224.523438 25.234375 C 214.332031 19.625 203.101562 16.207031 190.839844 14.976562 C 177.890625 13.699219 164.816406 15 151.617188 18.886719 L 149.328125 16.675781 C 163.265625 12.445312 177.027344 10.945312 190.621094 12.171875 C 203.570312 13.355469 215.390625 16.871094 226.074219 22.722656 C 237.15625 28.773438 246.78125 37.183594 254.957031 47.957031 C 263.230469 58.777344 269.285156 71 273.128906 84.625 "/>
<path style=" stroke:none;fill-rule:nonzero;fill:rgb(5.098039%,7.450981%,10.196079%);fill-opacity:1;" d="M 160.851562 133.6875 C 159.324219 132.164062 158.660156 131.007812 158.855469 130.222656 C 159.003906 129.433594 159.84375 129.804688 161.367188 131.328125 C 168.214844 138.261719 177.324219 143.550781 188.699219 147.191406 C 201.257812 151.175781 213.273438 151.914062 224.746094 149.402344 L 225.484375 152.355469 C 213.371094 154.960938 201.132812 154.296875 188.773438 150.363281 C 177.546875 146.722656 168.238281 141.164062 160.851562 133.6875 "/>
<path style=" stroke:none;fill-rule:nonzero;fill:rgb(5.098039%,7.450981%,10.196079%);fill-opacity:1;" d="M 257.097656 13.648438 C 258.625 15.566406 258.625 19.996094 257.097656 26.929688 C 255.621094 33.863281 253.429688 39.71875 250.523438 44.488281 L 248.234375 42.867188 C 251.042969 38.390625 253.035156 33.300781 254.21875 27.59375 C 255.351562 22.429688 255.5 18.789062 254.660156 16.675781 C 250.671875 15.148438 245.082031 15.199219 237.894531 16.820312 C 231.148438 18.347656 226.171875 20.386719 222.972656 22.945312 L 221.199219 21.691406 C 225.78125 17.707031 232.722656 14.929688 242.03125 13.355469 C 250.699219 11.828125 255.71875 11.925781 257.097656 13.648438 "/>
<path style=" stroke:none;fill-rule:nonzero;fill:rgb(5.098039%,7.450981%,10.196079%);fill-opacity:1;" d="M 345.738281 33.273438 C 343.324219 34.257812 341.578125 35.070312 340.492188 35.710938 C 338.621094 36.742188 337.441406 37.75 336.949219 38.734375 C 336.308594 40.113281 335.816406 40.457031 335.472656 39.765625 C 335.175781 39.078125 335.371094 38.144531 336.0625 36.964844 C 336.851562 35.683594 338.054688 34.601562 339.679688 33.71875 C 340.46875 33.273438 342.21875 32.488281 344.925781 31.355469 C 347.632812 30.226562 349.160156 29.460938 349.503906 29.070312 C 349.011719 27.988281 347.734375 26.804688 345.664062 25.527344 C 342.808594 23.707031 339.535156 22.722656 335.839844 22.578125 C 334.019531 22.527344 331.136719 23.070312 327.199219 24.199219 L 320.476562 25.824219 C 315.550781 25.675781 311.195312 26.632812 307.402344 28.699219 C 304.152344 30.472656 299.746094 33.988281 294.179688 39.25 L 282.65625 50.023438 C 274.925781 56.464844 267.90625 60.574219 261.605469 62.34375 C 261.359375 62.441406 261.0625 61.800781 260.71875 60.425781 C 260.375 59.097656 260.324219 58.433594 260.570312 58.433594 C 265.296875 58.484375 271.847656 55.164062 280.21875 48.472656 L 293.070312 36.890625 C 298.832031 31.429688 303.339844 27.863281 306.589844 26.191406 C 310.332031 24.273438 314.960938 23.460938 320.476562 23.757812 L 326.3125 21.617188 C 330.203125 20.140625 333.304688 19.429688 335.617188 19.476562 C 339.214844 19.578125 342.859375 20.707031 346.550781 22.871094 C 349.800781 24.789062 351.722656 26.5625 352.3125 28.183594 C 352.855469 29.070312 352.707031 29.808594 351.867188 30.398438 L 345.738281 33.273438 "/>
<path style=" stroke:none;fill-rule:nonzero;fill:rgb(5.098039%,7.450981%,10.196079%);fill-opacity:1;" d="M 222.011719 160.914062 L 227.480469 160.324219 L 229.324219 163.199219 L 223.636719 163.789062 L 222.011719 160.914062 "/>
<path style=" stroke:none;fill-rule:nonzero;fill:rgb(5.098039%,7.450981%,10.196079%);fill-opacity:1;" d="M 340.199219 35.265625 C 340.199219 36.644531 340.519531 37.652344 341.160156 38.292969 C 341.699219 38.785156 343.105469 39.496094 345.367188 40.429688 C 348.421875 41.613281 350.710938 42.644531 352.238281 43.53125 C 355.191406 45.25 357.382812 47.242188 358.8125 49.507812 C 359.847656 50.980469 359.996094 51.941406 359.253906 52.382812 C 357.089844 53.5625 354.109375 54.546875 350.316406 55.335938 C 345.246094 56.417969 341.109375 57.644531 337.910156 59.023438 C 335.199219 61.285156 331.335938 66.5 326.3125 74.664062 L 313.3125 96.652344 C 306.464844 108.40625 300.851562 117.210938 296.46875 123.0625 C 288.984375 133.097656 280.835938 141.191406 272.019531 147.335938 C 272.5625 145.664062 272.808594 144.042969 272.757812 142.46875 C 280.589844 136.515625 287.976562 128.84375 294.917969 119.449219 C 298.367188 114.824219 303.585938 106.859375 310.578125 95.542969 L 323.429688 74.515625 C 329.488281 64.925781 333.917969 58.972656 336.726562 56.664062 C 337.808594 55.726562 341.972656 54.5 349.210938 52.972656 C 353.640625 52.039062 355.957031 51.324219 356.152344 50.835938 C 354.726562 47.785156 350.738281 44.980469 344.1875 42.421875 C 342.070312 41.539062 340.59375 40.726562 339.753906 39.988281 C 338.671875 39.054688 338.128906 37.847656 338.128906 36.375 C 338.128906 36.175781 338.476562 35.90625 339.164062 35.5625 L 340.199219 35.265625 "/>
<path style=" stroke:none;fill-rule:nonzero;fill:rgb(5.098039%,7.450981%,10.196079%);fill-opacity:1;" d="M 311.390625 38.734375 C 314.640625 36.964844 318.605469 36.347656 323.28125 36.890625 C 327.371094 37.382812 330.84375 38.539062 333.699219 40.359375 C 335.667969 41.636719 336.703125 42.546875 336.800781 43.085938 C 336.898438 43.628906 336.210938 44.734375 334.730469 46.40625 C 332.8125 48.523438 329.929688 50.515625 326.089844 52.382812 C 322.296875 54.253906 318.925781 55.335938 315.96875 55.628906 C 314.199219 55.777344 313.089844 55.582031 312.644531 55.039062 C 312.253906 54.5 312.917969 54.128906 314.640625 53.933594 C 317.941406 53.636719 321.65625 52.261719 325.792969 49.800781 C 329.734375 47.441406 332.121094 45.351562 332.960938 43.53125 C 331.433594 41.859375 328.527344 40.554688 324.242188 39.621094 C 319.320312 38.585938 315.15625 38.980469 311.761719 40.800781 C 310.234375 41.636719 309.394531 41.710938 309.25 41.019531 C 309.148438 40.285156 309.863281 39.519531 311.390625 38.734375 "/>
<path style=" stroke:none;fill-rule:nonzero;fill:rgb(5.098039%,7.450981%,10.196079%);fill-opacity:1;" d="M 318.851562 53.636719 C 318.800781 53.34375 319.21875 53.121094 320.105469 52.972656 L 321.511719 53.195312 C 321.707031 54.03125 321.511719 55.0625 320.917969 56.292969 L 319.074219 58.730469 C 317.941406 59.613281 317.101562 59.957031 316.5625 59.761719 C 315.96875 59.515625 316.117188 59.046875 317.003906 58.359375 C 317.695312 57.769531 318.210938 57.007812 318.554688 56.074219 C 318.898438 55.1875 319 54.375 318.851562 53.636719 "/>
<path style=" stroke:none;fill-rule:nonzero;fill:rgb(5.098039%,7.450981%,10.196079%);fill-opacity:1;" d="M 237.449219 193.449219 C 232.429688 181.597656 224.597656 167.601562 213.960938 151.46875 L 216.84375 151.25 C 227.480469 166.890625 235.40625 180.734375 240.625 192.785156 C 247.078125 207.691406 250.769531 222.742188 251.707031 237.9375 C 253.773438 271.289062 240.183594 299.324219 210.933594 322.046875 C 195.617188 334.050781 178.53125 341.894531 159.667969 345.582031 C 140.414062 349.371094 121.652344 348.386719 103.382812 342.632812 C 104.023438 341.355469 104.542969 340.566406 104.933594 340.269531 C 122.121094 345.484375 139.996094 346.246094 158.5625 342.558594 C 177.175781 338.871094 193.945312 331.195312 208.863281 319.539062 C 222.355469 309.011719 232.527344 296.691406 239.371094 282.574219 C 246.265625 268.460938 249.21875 253.753906 248.234375 238.457031 C 247.300781 223.304688 243.703125 208.304688 237.449219 193.449219 "/>
<path style=" stroke:none;fill-rule:nonzero;fill:rgb(5.098039%,7.450981%,10.196079%);fill-opacity:1;" d="M 248.085938 260.515625 C 247.941406 260.320312 248.136719 259.53125 248.679688 258.15625 C 249.171875 256.828125 249.492188 256.261719 249.636719 256.457031 C 261.800781 277.804688 266.480469 297.308594 263.671875 314.964844 C 260.914062 331.886719 251.117188 347.96875 234.273438 363.21875 C 232.894531 364.496094 231.738281 365.085938 230.800781 364.988281 C 229.917969 364.839844 230.1875 364.125 231.617188 362.847656 C 247.375 348.683594 256.730469 332.992188 259.683594 315.777344 C 262.738281 298.117188 258.871094 279.699219 248.085938 260.515625 "/>
<path style=" stroke:none;fill-rule:nonzero;fill:rgb(5.098039%,7.450981%,10.196079%);fill-opacity:1;" d="M 155.976562 344.328125 L 158.710938 343.886719 L 162.035156 343.664062 C 167.007812 347.207031 171.21875 350.722656 174.664062 354.214844 C 178.800781 358.398438 181.164062 361.863281 181.753906 364.617188 C 181.902344 365.011719 181.753906 365.382812 181.3125 365.726562 C 179.097656 367.054688 178.0625 368.847656 178.210938 371.109375 C 178.457031 374.503906 181.460938 377.457031 187.222656 379.964844 C 192.6875 382.324219 199.210938 384.195312 206.796875 385.570312 C 214.378906 387 222.554688 387.835938 231.320312 388.082031 L 232.796875 389.410156 C 233.4375 390.292969 233.609375 390.738281 233.3125 390.738281 C 223.957031 390.441406 215.242188 389.628906 207.164062 388.300781 C 198.398438 386.875 191.332031 384.980469 185.964844 382.621094 C 180.597656 380.359375 177.101562 377.554688 175.476562 374.210938 C 173.554688 370.472656 174.910156 367.226562 179.539062 364.472656 C 178.800781 361.960938 175.402344 358.199219 169.347656 353.183594 C 163.632812 348.511719 159.175781 345.558594 155.976562 344.328125 "/>
<path style=" stroke:none;fill-rule:nonzero;fill:rgb(5.098039%,7.450981%,10.196079%);fill-opacity:1;" d="M 235.308594 361.371094 C 235.011719 361.324219 235.234375 360.878906 235.972656 360.042969 C 236.664062 359.207031 237.082031 358.816406 237.230469 358.863281 C 239.789062 359.847656 242.792969 361.59375 246.242188 364.101562 C 249.195312 366.316406 251.683594 368.480469 253.703125 370.59375 L 250.894531 370.667969 C 245.476562 365.652344 240.28125 362.554688 235.308594 361.371094 "/>
<path style=" stroke:none;fill-rule:nonzero;fill:rgb(5.098039%,7.450981%,10.196079%);fill-opacity:1;" d="M 236.195312 379.816406 C 233.289062 383.015625 232.082031 385.941406 232.574219 388.597656 C 234.347656 389.382812 239.027344 389.382812 246.609375 388.597656 C 254.6875 387.761719 259.5625 386.410156 261.234375 384.539062 C 262.171875 383.457031 262.394531 382.179688 261.898438 380.703125 C 261.210938 378.6875 259.683594 376.667969 257.320312 374.652344 C 255.152344 372.785156 253.382812 371.773438 252.003906 371.628906 C 250.179688 371.382812 247.667969 372.070312 244.46875 373.695312 C 241.167969 375.367188 238.410156 377.40625 236.195312 379.816406 M 234.421875 391.105469 C 231.8125 390.910156 230.238281 390.34375 229.695312 389.410156 C 229.203125 388.523438 229.398438 386.875 230.285156 384.464844 C 231.714844 380.382812 234.9375 376.742188 239.960938 373.546875 C 244.886719 370.449219 249.144531 369.242188 252.742188 369.929688 C 255.351562 370.421875 258.304688 372.414062 261.605469 375.90625 C 265.542969 380.039062 266.210938 383.554688 263.597656 386.457031 C 261.875 388.425781 257.46875 389.828125 250.378906 390.664062 L 234.421875 391.105469 "/>
<path style=" stroke:none;fill-rule:nonzero;fill:rgb(5.098039%,7.450981%,10.196079%);fill-opacity:1;" d="M 243.359375 373.765625 C 243.261719 373.324219 243.457031 373.03125 243.949219 372.882812 L 245.355469 372.957031 C 248.851562 374.382812 251.828125 376.421875 254.292969 379.078125 C 256.804688 381.785156 258.183594 384.515625 258.429688 387.269531 L 257.46875 388.082031 L 256.433594 388.226562 C 256.433594 385.523438 254.933594 382.644531 251.929688 379.597656 C 249.21875 376.941406 246.363281 374.996094 243.359375 373.765625 "/>
<path style=" stroke:none;fill-rule:nonzero;fill:rgb(5.098039%,7.450981%,10.196079%);fill-opacity:1;" d="M 18.660156 247.898438 C 19.742188 245.832031 20.652344 244.726562 21.394531 244.578125 C 22.132812 244.433594 22.03125 245.414062 21.097656 247.53125 C 10.3125 271.78125 5.460938 292.734375 6.546875 310.390625 C 7.382812 323.128906 11.667969 335.402344 19.398438 347.207031 C 21.515625 350.402344 22.132812 353.722656 21.246094 357.167969 C 20.652344 359.332031 19.519531 361.398438 17.847656 363.363281 C 15.386719 366.167969 13.5625 368.875 12.382812 371.480469 C 11.199219 374.085938 10.757812 376.398438 11.050781 378.414062 C 11.347656 380.234375 12.234375 381.6875 13.710938 382.769531 C 14.546875 385.226562 14.792969 386.382812 14.449219 386.234375 C 12.773438 385.546875 11.25 384.488281 9.871094 383.0625 C 8.539062 381.636719 7.753906 380.234375 7.507812 378.859375 C 6.867188 374.578125 9.550781 368.972656 15.558594 362.035156 C 17.824219 359.429688 19.003906 357.289062 19.101562 355.617188 C 19.203125 353.75 18.140625 351.167969 15.925781 347.871094 C 7.753906 335.476562 3.246094 322.882812 2.410156 310.09375 C 1.226562 291.996094 6.644531 271.261719 18.660156 247.898438 "/>
<path style=" stroke:none;fill-rule:nonzero;fill:rgb(5.098039%,7.450981%,10.196079%);fill-opacity:1;" d="M 102.941406 258.890625 C 101.464844 257.074219 101.167969 256.136719 102.054688 256.089844 C 102.941406 256.039062 104.121094 256.925781 105.601562 258.746094 C 114.167969 269.269531 119.289062 281.421875 120.964844 295.191406 C 122.589844 308.03125 120.964844 318.828125 116.089844 327.582031 C 112.050781 334.859375 106.558594 341.550781 99.617188 347.648438 C 96.710938 350.15625 91.195312 354.289062 83.070312 360.042969 C 75.980469 365.011719 71.71875 368.898438 70.292969 371.703125 C 69.996094 372.339844 70.367188 374.257812 71.398438 377.457031 C 72.285156 380.359375 72.484375 382.621094 71.992188 384.242188 C 71.054688 387.144531 68.074219 389.726562 63.054688 391.992188 C 62.808594 392.089844 62.707031 391.71875 62.757812 390.882812 C 62.808594 390.046875 62.929688 389.554688 63.128906 389.410156 C 66.625 386.851562 68.691406 384.367188 69.332031 381.957031 C 69.675781 380.53125 69.480469 378.660156 68.742188 376.351562 L 67.707031 373.621094 C 67.363281 372.539062 67.386719 371.601562 67.78125 370.816406 C 68.714844 368.800781 70.539062 366.609375 73.246094 364.25 L 81.890625 357.683594 C 88.734375 352.863281 93.929688 348.804688 97.476562 345.511719 C 103.480469 339.851562 108.503906 333.410156 112.542969 326.179688 C 117.269531 317.671875 118.945312 307.121094 117.566406 294.527344 C 116.089844 280.902344 111.214844 269.023438 102.941406 258.890625 "/>
<path style=" stroke:none;fill-rule:nonzero;fill:rgb(5.098039%,7.450981%,10.196079%);fill-opacity:1;" d="M 54.855469 380.480469 C 50.371094 377.433594 44.980469 375.636719 38.675781 375.09375 C 33.0625 374.605469 28.113281 374.921875 23.832031 376.054688 C 20.285156 376.988281 17.699219 378.316406 16.074219 380.039062 C 15.039062 381.121094 14.644531 382.128906 14.890625 383.0625 C 15.089844 384.34375 17.011719 386.261719 20.652344 388.820312 C 24.839844 391.769531 28.925781 393.589844 32.914062 394.277344 C 38.53125 395.261719 44.757812 395.164062 51.605469 393.984375 C 57.613281 392.902344 61.058594 391.746094 61.945312 390.515625 C 62.339844 390.023438 62.242188 389.113281 61.648438 387.785156 C 60.515625 385.179688 58.25 382.742188 54.855469 380.480469 M 38.824219 372.367188 C 44.929688 372.90625 50.421875 374.75 55.296875 377.898438 C 59.484375 380.605469 62.339844 383.605469 63.867188 386.898438 C 64.800781 389.015625 64.824219 390.636719 63.941406 391.769531 C 62.214844 394.03125 58.179688 395.777344 51.824219 397.007812 C 45.078125 398.335938 38.578125 398.433594 32.324219 397.304688 C 28.828125 396.710938 24.742188 394.917969 20.0625 391.917969 C 15.140625 388.769531 12.453125 386.015625 12.011719 383.652344 C 11.765625 382.277344 12.453125 380.679688 14.078125 378.859375 C 16.050781 376.792969 18.957031 375.121094 22.796875 373.839844 C 27.621094 372.316406 32.964844 371.824219 38.824219 372.367188 "/>
<path style=" stroke:none;fill-rule:nonzero;fill:rgb(5.098039%,7.450981%,10.196079%);fill-opacity:1;" d="M 38.382812 373.914062 L 39.710938 374.136719 C 40.402344 374.429688 40.621094 374.675781 40.375 374.875 C 37.371094 377.382812 35.132812 380.949219 33.65625 385.570312 C 32.277344 390 32.226562 393.023438 33.507812 394.648438 C 33.703125 394.894531 33.335938 394.992188 32.398438 394.941406 L 30.847656 394.574219 C 28.335938 387.441406 30.847656 380.554688 38.382812 373.914062 "/>
<path style=" stroke:none;fill-rule:nonzero;fill:rgb(5.098039%,7.450981%,10.196079%);fill-opacity:1;" d="M 127.242188 4.722656 C 138.667969 8.164062 149.699219 14.730469 160.335938 24.421875 C 161.761719 25.75 162.328125 26.757812 162.035156 27.445312 C 161.738281 28.085938 160.851562 27.765625 159.375 26.488281 C 148.933594 17.238281 138.324219 10.992188 127.539062 7.746094 C 118.082031 4.894531 109.984375 4.699219 103.234375 7.15625 C 101.855469 7.597656 101.019531 8.089844 100.726562 8.632812 C 100.378906 9.171875 100.453125 10.082031 100.945312 11.363281 C 105.328125 23.167969 112.960938 33.839844 123.84375 43.382812 C 125.816406 44.808594 126.601562 45.816406 126.207031 46.40625 C 125.816406 46.949219 124.632812 46.503906 122.664062 45.078125 C 116.703125 40.308594 111.804688 35.414062 107.964844 30.398438 C 103.628906 24.742188 100.160156 18.347656 97.546875 11.214844 C 96.859375 9.199219 96.613281 7.820312 96.808594 7.082031 C 97.15625 6.050781 98.410156 5.117188 100.578125 4.277344 C 107.964844 1.425781 116.851562 1.574219 127.242188 4.722656 "/>
<path style=" stroke:none;fill-rule:nonzero;fill:rgb(5.098039%,7.450981%,10.196079%);fill-opacity:1;" d="M 132.929688 16.96875 C 143.171875 22.871094 149.230469 28.355469 151.101562 33.421875 C 151.347656 34.160156 150.976562 34.628906 149.992188 34.824219 C 146.25 35.414062 142.707031 36.421875 139.355469 37.847656 C 137.535156 38.636719 135.367188 39.792969 132.855469 41.316406 L 129.976562 43.085938 L 127.832031 43.234375 C 124.386719 41.316406 119.855469 36.203125 114.242188 27.890625 C 108.726562 19.675781 106.117188 14.335938 106.414062 11.878906 C 106.511719 10.945312 106.929688 10.402344 107.667969 10.253906 C 113.773438 8.582031 122.195312 10.820312 132.929688 16.96875 M 148.367188 33.054688 C 145.855469 28.28125 140.21875 23.460938 131.453125 18.59375 C 122.195312 13.429688 114.859375 11.535156 109.441406 12.910156 L 109.441406 13.132812 C 109.441406 15.445312 111.558594 19.921875 115.792969 26.5625 C 120.519531 33.890625 124.929688 38.710938 129.015625 41.019531 L 131.75 39.546875 C 137.265625 36.203125 142.804688 34.035156 148.367188 33.054688 "/>
<path style=" stroke:none;fill-rule:nonzero;fill:rgb(5.098039%,7.450981%,10.196079%);fill-opacity:1;" d="M 115.351562 126.679688 C 112.542969 125.15625 111.507812 124.144531 112.246094 123.65625 C 112.9375 123.210938 114.683594 123.753906 117.492188 125.277344 C 121.972656 127.6875 125.988281 131.328125 129.53125 136.195312 C 131.996094 139.492188 135.566406 145.46875 140.242188 154.125 L 144.378906 161.726562 C 148.074219 168.316406 152.554688 174.785156 157.824219 181.128906 C 162.992188 187.375 169.371094 194.015625 176.953125 201.050781 C 178.039062 202.03125 178.332031 202.796875 177.839844 203.335938 C 177.398438 203.828125 176.632812 203.558594 175.550781 202.523438 C 167.328125 194.753906 161.367188 188.851562 157.675781 184.816406 C 151.273438 177.832031 146.398438 171.367188 143.050781 165.414062 L 138.914062 157.816406 C 134.039062 148.863281 130.269531 142.492188 127.613281 138.707031 C 123.574219 132.949219 119.488281 128.941406 115.351562 126.679688 "/>
<path style=" stroke:none;fill-rule:nonzero;fill:rgb(5.098039%,7.450981%,10.196079%);fill-opacity:1;" d="M 189.070312 207.097656 C 193.84375 210.050781 197.046875 213.46875 198.671875 217.355469 C 199.65625 219.519531 199.902344 220.996094 199.410156 221.78125 C 199.066406 222.371094 197.859375 223.011719 195.789062 223.699219 C 192.933594 224.632812 188.355469 225.222656 182.050781 225.46875 C 181.753906 225.519531 181.609375 225.199219 181.609375 224.511719 C 181.558594 223.824219 181.683594 223.453125 181.976562 223.40625 L 191.359375 222.222656 C 194.511719 221.585938 196.257812 220.96875 196.601562 220.378906 C 195.570312 216.148438 192.785156 212.484375 188.257812 209.386719 C 185.695312 207.617188 182.027344 205.769531 177.25 203.851562 C 173.949219 202.574219 171.980469 201.441406 171.339844 200.460938 C 170.699219 199.425781 172.917969 199.917969 177.988281 201.933594 C 182.960938 203.902344 186.65625 205.625 189.070312 207.097656 "/>
<path style=" stroke:none;fill-rule:nonzero;fill:rgb(5.098039%,7.450981%,10.196079%);fill-opacity:1;" d="M 177.25 216.542969 C 175.722656 215.164062 175.28125 214.378906 175.921875 214.183594 C 176.558594 214.035156 177.644531 214.648438 179.171875 216.027344 C 181.878906 218.585938 183.773438 222.617188 184.859375 228.125 C 185.84375 233.191406 185.84375 237.449219 184.859375 240.890625 C 183.675781 244.824219 182.421875 246.988281 181.089844 247.382812 C 179.417969 247.824219 176.929688 246.078125 173.628906 242.144531 C 167.96875 235.503906 163.757812 232.085938 161 231.890625 C 160.605469 231.890625 160.828125 231.125 161.664062 229.601562 C 165.40625 230.144531 170.132812 233.882812 175.847656 240.816406 C 177.765625 243.078125 179.195312 244.085938 180.128906 243.839844 C 180.96875 243.644531 181.730469 242.367188 182.421875 240.003906 C 183.308594 237.054688 183.257812 233.046875 182.273438 227.980469 C 181.238281 222.570312 179.5625 218.757812 177.25 216.542969 "/>
<path style=" stroke:none;fill-rule:nonzero;fill:rgb(5.098039%,7.450981%,10.196079%);fill-opacity:1;" d="M 57.585938 146.894531 C 57.046875 144.582031 57.070312 143.132812 57.660156 142.542969 C 58.25 142 58.867188 142.863281 59.507812 145.125 C 65.710938 168.191406 74.476562 185.359375 85.804688 196.621094 C 95.457031 206.214844 110.867188 214.796875 132.042969 222.371094 C 137.558594 224.289062 141.375 227.265625 143.492188 231.300781 C 145.5625 235.136719 147.359375 240.03125 148.886719 245.980469 C 149.425781 248.144531 151.152344 247.53125 154.054688 244.136719 C 155.828125 242.070312 157.355469 239.4375 158.636719 236.242188 C 160.164062 232.601562 161.148438 228.691406 161.589844 224.511719 C 161.886719 221.460938 162.355469 220.085938 162.992188 220.378906 C 163.632812 220.722656 163.78125 222.445312 163.4375 225.542969 C 162.699219 233.316406 160.382812 239.90625 156.492188 245.316406 C 153.589844 249.300781 151.175781 251.171875 149.253906 250.925781 C 147.777344 250.777344 146.769531 249.546875 146.226562 247.234375 L 144.230469 239.859375 C 143.296875 236.5625 142.335938 234.027344 141.351562 232.257812 C 140.414062 230.535156 139.136719 229.085938 137.511719 227.90625 C 136.03125 226.871094 133.988281 225.886719 131.378906 224.953125 C 109.171875 217.035156 93.265625 208.476562 83.660156 199.277344 C 71.597656 187.71875 62.90625 170.257812 57.585938 146.894531 "/>
<path style=" stroke:none;fill-rule:nonzero;fill:rgb(5.098039%,7.450981%,10.196079%);fill-opacity:1;" d="M 91.859375 221.339844 C 96.195312 219.8125 99.417969 218.878906 101.539062 218.535156 C 105.328125 217.894531 108.875 218.140625 112.175781 219.273438 C 116.605469 220.847656 120.25 223.378906 123.105469 226.871094 C 124.582031 228.742188 126.453125 231.9375 128.71875 236.464844 C 130.640625 240.300781 132.289062 243.054688 133.667969 244.726562 C 135.886719 247.382812 138.667969 249.226562 142.015625 250.261719 C 146.792969 251.785156 151.25 251.980469 155.386719 250.851562 C 157.847656 250.210938 161.269531 248.589844 165.652344 245.980469 C 169.542969 243.667969 172.671875 242.121094 175.035156 241.332031 L 176.511719 243.324219 C 173.308594 244.257812 170.035156 245.734375 166.6875 247.75 C 161.566406 250.851562 157.898438 252.71875 155.679688 253.359375 C 151.296875 254.6875 146.449219 254.515625 141.128906 252.84375 C 137.4375 251.664062 134.382812 249.496094 131.96875 246.351562 C 130.835938 244.875 129.164062 241.898438 126.945312 237.421875 C 124.929688 233.4375 123.082031 230.535156 121.40625 228.714844 C 118.796875 225.863281 115.398438 223.699219 111.214844 222.222656 C 108.113281 221.140625 104.910156 220.773438 101.609375 221.117188 C 99.148438 221.363281 96.121094 222.101562 92.527344 223.332031 C 87.652344 224.953125 84.203125 225.9375 82.183594 226.28125 C 78.046875 226.96875 74.15625 226.652344 70.511719 225.324219 C 66.917969 223.996094 64.1875 221.707031 62.3125 218.460938 C 61.429688 216.9375 60.34375 213.984375 59.0625 209.609375 C 58.078125 206.410156 57.167969 204.148438 56.332031 202.820312 C 55.050781 200.851562 53.230469 199.378906 50.863281 198.394531 C 46.679688 196.769531 42.027344 197.335938 36.90625 200.089844 L 31.660156 202.671875 L 26.339844 203.1875 C 23.730469 202.550781 21.785156 201.148438 20.507812 198.984375 C 19.570312 197.410156 19.472656 195.761719 20.210938 194.039062 C 21.097656 191.925781 21.515625 191.65625 21.464844 193.230469 C 21.464844 194.800781 21.859375 196.277344 22.648438 197.65625 C 23.632812 199.328125 25.035156 200.386719 26.859375 200.828125 L 31.289062 200.460938 L 35.871094 198.246094 C 39.070312 196.523438 41.484375 195.441406 43.109375 195 C 46.0625 194.210938 48.945312 194.359375 51.75 195.441406 C 54.507812 196.574219 56.625 198.492188 58.105469 201.195312 C 58.941406 202.671875 59.902344 205.28125 60.984375 209.015625 C 62.167969 212.855469 63.25 215.582031 64.234375 217.207031 C 65.957031 219.863281 68.421875 221.78125 71.621094 222.960938 C 75.019531 224.191406 78.539062 224.535156 82.183594 223.996094 C 84.300781 223.699219 87.527344 222.8125 91.859375 221.339844 "/>
<path style=" stroke:none;fill-rule:nonzero;fill:rgb(5.098039%,7.450981%,10.196079%);fill-opacity:1;" d="M 248.824219 251.664062 C 249.464844 253.089844 249.171875 255.867188 247.941406 260 C 248.234375 256.210938 247.472656 253.335938 245.648438 251.367188 C 244.269531 249.890625 242.644531 249.152344 240.773438 249.152344 C 239.050781 249.152344 237.253906 249.742188 235.382812 250.925781 C 234.054688 251.761719 232.378906 253.136719 230.359375 255.054688 C 226.863281 258.449219 224.449219 260.566406 223.121094 261.402344 C 219.96875 263.417969 216.71875 264.132812 213.371094 263.539062 C 211.15625 263.148438 209.011719 261.917969 206.945312 259.851562 L 201.921875 253.949219 C 199.605469 251 197.488281 248.808594 195.570312 247.382812 C 192.8125 245.367188 189.5625 244.015625 185.816406 243.324219 L 183.011719 242.957031 L 183.898438 240.300781 L 186.1875 240.59375 C 190.175781 241.332031 193.699219 242.929688 196.75 245.390625 C 198.621094 246.867188 200.886719 249.300781 203.546875 252.695312 C 205.464844 255.15625 206.96875 256.851562 208.050781 257.785156 C 209.777344 259.359375 211.621094 260.320312 213.59375 260.664062 C 216.546875 261.203125 219.402344 260.6875 222.160156 259.113281 C 223.835938 258.179688 226.101562 256.335938 228.957031 253.582031 L 234.71875 248.5625 C 236.933594 246.988281 239.074219 246.203125 241.144531 246.203125 C 244.589844 246.25 247.152344 248.070312 248.824219 251.664062 "/>
<path style=" stroke:none;fill-rule:nonzero;fill:rgb(5.098039%,7.450981%,10.196079%);fill-opacity:1;" d="M 126.726562 121.144531 C 128.398438 124.34375 129.582031 127.613281 130.269531 130.957031 C 130.664062 132.679688 130.761719 134.007812 130.566406 134.941406 C 130.371094 135.878906 130 135.558594 129.457031 133.984375 C 126.503906 124.984375 122.859375 118.171875 118.527344 113.546875 C 117.296875 112.21875 116.875 111.382812 117.269531 111.039062 C 117.664062 110.742188 118.527344 111.160156 119.855469 112.292969 C 122.515625 114.652344 124.804688 117.605469 126.726562 121.144531 "/>
<path style=" stroke:none;fill-rule:nonzero;fill:rgb(5.098039%,7.450981%,10.196079%);fill-opacity:1;" d="M 252.816406 98.054688 C 261.726562 97.21875 268.96875 97.734375 274.53125 99.601562 C 274.828125 99.699219 274.875 100.117188 274.679688 100.855469 C 274.433594 101.644531 274.1875 101.988281 273.941406 101.890625 C 268.867188 100.167969 261.898438 99.675781 253.035156 100.414062 C 243.679688 101.199219 235.800781 103.121094 229.398438 106.167969 L 227.40625 106.09375 C 227.601562 105.308594 228.464844 104.546875 229.988281 103.808594 C 236.292969 100.808594 243.902344 98.890625 252.816406 98.054688 "/>
<path style=" stroke:none;fill-rule:nonzero;fill:rgb(5.098039%,7.450981%,10.196079%);fill-opacity:1;" d="M 274.679688 124.390625 C 274.972656 124.34375 275.195312 124.710938 275.34375 125.5 C 275.441406 126.335938 275.34375 126.777344 275.046875 126.828125 L 258.355469 128.671875 C 249.785156 129.113281 242.546875 128.964844 236.636719 128.230469 C 234.621094 127.984375 233.414062 127.464844 233.019531 126.679688 C 232.675781 125.941406 233.511719 125.695312 235.53125 125.941406 C 240.652344 126.582031 247.914062 126.65625 257.320312 126.164062 L 274.679688 124.390625 "/>
<path style=" stroke:none;fill-rule:nonzero;fill:rgb(5.098039%,7.450981%,10.196079%);fill-opacity:1;" d="M 272.390625 143.058594 C 272.636719 142.910156 272.710938 143.328125 272.609375 144.3125 L 272.019531 145.9375 C 266.011719 149.28125 259.636719 151.050781 252.886719 151.25 C 246.09375 151.492188 239.765625 150.09375 233.90625 147.042969 C 232.28125 146.207031 231.34375 145.394531 231.097656 144.609375 C 230.851562 143.871094 231.542969 143.917969 233.167969 144.753906 C 238.976562 147.757812 245.527344 149.109375 252.816406 148.8125 C 260.101562 148.46875 266.628906 146.550781 272.390625 143.058594 "/>
<path style=" stroke:none;fill-rule:nonzero;fill:rgb(5.098039%,7.450981%,10.196079%);fill-opacity:1;" d="M 207.386719 86.46875 C 206.15625 85.238281 205.835938 84.601562 206.425781 84.550781 C 206.96875 84.453125 207.878906 84.992188 209.160156 86.175781 C 211.917969 88.683594 213.59375 91.757812 214.183594 95.398438 C 214.675781 98.496094 214.355469 101.375 213.222656 104.027344 C 212.433594 105.847656 211.769531 106.859375 211.226562 107.054688 C 210.636719 107.300781 210.636719 106.511719 211.226562 104.691406 C 212.261719 101.59375 212.460938 98.398438 211.820312 95.101562 C 211.128906 91.609375 209.652344 88.730469 207.386719 86.46875 "/>
<path style=" stroke:none;fill-rule:nonzero;fill:rgb(5.098039%,7.450981%,10.196079%);fill-opacity:1;" d="M 181.460938 80.640625 C 179.144531 81.328125 177.816406 82.019531 177.472656 82.707031 C 177.125 83.394531 177.199219 84.15625 177.691406 84.992188 C 178.285156 85.878906 179.464844 86.984375 181.238281 88.3125 C 182.46875 89.25 182.742188 89.691406 182.050781 89.640625 C 181.3125 89.542969 180.253906 89.027344 178.875 88.09375 C 175.96875 86.078125 174.617188 84.378906 174.8125 83.003906 C 175.058594 81.476562 177.054688 80.371094 180.796875 79.683594 L 183.453125 79.609375 C 183.652344 79.855469 182.988281 80.199219 181.460938 80.640625 "/>
<path style=" stroke:none;fill-rule:nonzero;fill:rgb(5.098039%,7.450981%,10.196079%);fill-opacity:1;" d="M 205.6875 92.886719 C 204.507812 90.085938 202.488281 87.75 199.632812 85.878906 C 196.183594 83.566406 191.972656 82.828125 187 83.667969 C 186.164062 83.8125 185.644531 84.011719 185.449219 84.257812 C 185.152344 84.503906 185.277344 84.847656 185.816406 85.289062 C 193.203125 91.683594 199.902344 97.734375 205.910156 103.4375 C 206.5 104.027344 206.894531 104.273438 207.089844 104.175781 C 207.339844 104.078125 207.4375 103.488281 207.386719 102.40625 C 207.289062 98.421875 206.722656 95.25 205.6875 92.886719 M 201.257812 84.625 C 204.359375 86.738281 206.597656 89.542969 207.976562 93.035156 C 209.257812 96.332031 209.703125 99.921875 209.308594 103.808594 C 209.109375 105.382812 208.667969 106.242188 207.976562 106.390625 C 207.191406 106.585938 206.007812 105.972656 204.433594 104.546875 L 183.972656 86.394531 C 182.789062 85.363281 182.273438 84.527344 182.421875 83.886719 C 182.519531 83.199219 183.503906 82.632812 185.375 82.191406 L 193.5 81.820312 C 196.453125 82.214844 199.039062 83.148438 201.257812 84.625 "/>
<path style=" stroke:none;fill-rule:nonzero;fill:rgb(5.098039%,7.450981%,10.196079%);fill-opacity:1;" d="M 203.769531 93.921875 C 204.605469 92.988281 205.292969 92.742188 205.835938 93.183594 L 206.132812 94.144531 L 205.464844 95.324219 L 204.359375 96.136719 L 203.398438 96.0625 C 203.152344 95.816406 203.078125 95.496094 203.175781 95.101562 C 203.226562 94.660156 203.421875 94.265625 203.769531 93.921875 "/>
</g>
</svg>
