<?xml version="1.0" encoding="UTF-8"?>
<svg xmlns="http://www.w3.org/2000/svg" xmlns:xlink="http://www.w3.org/1999/xlink" width="292px" height="300px" viewBox="0 0 292 300" version="1.1">
<g id="surface1">
<path style=" stroke:none;fill-rule:nonzero;fill:rgb(5.098039%,7.450981%,10.196079%);fill-opacity:1;" d="M 164.195312 67.445312 C 165.132812 69.875 165.601562 72.195312 165.601562 74.414062 L 165.550781 75.402344 C 165.375 76.824219 164.941406 77.691406 164.246094 78.003906 C 163.621094 78.246094 162.929688 78.074219 162.164062 77.484375 C 160.429688 76.0625 159.09375 73.21875 158.15625 68.953125 C 157.253906 64.898438 157.183594 62.351562 157.949219 61.308594 L 159.042969 61.257812 L 160.238281 61.777344 C 161.835938 62.785156 163.152344 64.671875 164.195312 67.445312 "/>
<path style=" stroke:none;fill-rule:nonzero;fill:rgb(23.921569%,38.431373%,67.450982%);fill-opacity:1;" d="M 163.050781 76.441406 C 161.941406 75.507812 161.070312 73.773438 160.445312 71.242188 C 159.925781 69.199219 159.667969 67.152344 159.667969 65.105469 L 159.875 63.183594 C 161.160156 64.222656 162.234375 65.921875 163.101562 68.277344 C 163.867188 70.460938 164.246094 72.507812 164.246094 74.414062 L 164.195312 75.246094 C 164.125 76.148438 163.96875 76.652344 163.726562 76.753906 L 163.050781 76.441406 "/>
<path style=" stroke:none;fill-rule:nonzero;fill:rgb(5.098039%,7.450981%,10.196079%);fill-opacity:1;" d="M 162.582031 70.617188 L 162.738281 72.542969 C 162.667969 73.132812 162.53125 73.460938 162.320312 73.53125 C 162.078125 73.601562 161.835938 73.390625 161.59375 72.90625 C 161.347656 72.421875 161.160156 71.816406 161.019531 71.085938 L 160.863281 69.164062 C 160.933594 68.574219 161.070312 68.242188 161.28125 68.175781 C 161.523438 68.140625 161.765625 68.347656 162.007812 68.796875 L 162.582031 70.617188 "/>
<path style=" stroke:none;fill-rule:nonzero;fill:rgb(5.098039%,7.450981%,10.196079%);fill-opacity:1;" d="M 285.550781 209.621094 L 287.113281 208.996094 C 287.667969 208.824219 288.085938 208.980469 288.363281 209.464844 L 288.933594 209.464844 C 290.671875 212.6875 290.636719 217.613281 288.832031 224.234375 C 287.234375 230.125 285.324219 234.304688 283.105469 236.765625 C 282.546875 237.390625 282.011719 237.597656 281.488281 237.390625 C 280.898438 237.179688 280.5 236.261719 280.292969 234.632812 C 280.1875 233.835938 280.066406 231.652344 279.929688 228.082031 L 279.617188 222.257812 C 279.441406 220.039062 280.015625 217.488281 281.332031 214.613281 C 282.6875 211.699219 284.09375 210.035156 285.550781 209.621094 "/>
<path style=" stroke:none;fill-rule:nonzero;fill:rgb(100%,95.294118%,76.078433%);fill-opacity:1;" d="M 285.914062 210.921875 C 286.332031 210.816406 286.660156 211.023438 286.90625 211.542969 C 287.632812 212.863281 287.996094 214.59375 287.996094 216.746094 C 287.996094 219.96875 287.25 223.714844 285.757812 227.976562 C 284.476562 231.6875 283.292969 234.128906 282.21875 235.308594 L 282.0625 235.464844 C 281.714844 234.910156 281.457031 232.433594 281.28125 228.027344 L 280.96875 221.476562 C 280.96875 219.5 281.542969 217.316406 282.6875 214.925781 C 283.832031 212.53125 284.910156 211.199219 285.914062 210.921875 "/>
<path style=" stroke:none;fill-rule:nonzero;fill:rgb(85.882354%,82.352942%,66.274512%);fill-opacity:1;" d="M 286.90625 211.542969 L 287.683594 213.625 L 285.914062 215.652344 C 284.25 218.253906 283.105469 224.699219 282.480469 234.996094 L 282.0625 235.464844 C 281.714844 234.910156 281.457031 232.433594 281.28125 228.027344 L 280.96875 221.476562 C 280.96875 219.5 281.542969 217.316406 282.6875 214.925781 C 283.832031 212.53125 284.910156 211.199219 285.914062 210.921875 C 286.332031 210.816406 286.660156 211.023438 286.90625 211.542969 "/>
<path style=" stroke:none;fill-rule:nonzero;fill:rgb(5.098039%,7.450981%,10.196079%);fill-opacity:1;" d="M 216.308594 137.597656 C 217.699219 140.371094 220.023438 142.796875 223.285156 144.878906 C 225.714844 146.472656 229.550781 148.328125 234.789062 150.441406 L 245.308594 154.601562 C 248.050781 155.816406 250.253906 157.238281 251.917969 158.867188 C 256.882812 163.789062 263.339844 170.636719 271.285156 179.40625 C 279.40625 188.351562 284.441406 194.210938 286.382812 196.984375 C 288.363281 199.792969 289.628906 202.722656 290.183594 205.773438 C 290.703125 208.789062 290.445312 211.492188 289.402344 213.882812 C 288.085938 216.933594 284.648438 218.808594 279.09375 219.5 L 259.625 220.074219 C 255.527344 219.101562 252.542969 216.242188 250.667969 211.492188 C 246.992188 202.027344 243.242188 193.1875 239.425781 184.972656 C 233.628906 172.527344 229.394531 165.488281 226.722656 163.859375 C 223.078125 161.675781 218.808594 159.664062 213.914062 157.828125 L 198.921875 152.835938 C 196.179688 151.933594 194.476562 149.453125 193.820312 145.398438 C 193.296875 142.105469 193.488281 138.535156 194.390625 134.683594 C 194.980469 132.15625 195.917969 130.230469 197.203125 128.914062 C 198.453125 127.664062 199.945312 127.074219 201.679688 127.144531 C 208.066406 127.386719 212.941406 130.871094 216.308594 137.597656 "/>
<path style=" stroke:none;fill-rule:nonzero;fill:rgb(90.588236%,21.960784%,12.54902%);fill-opacity:1;" d="M 234.113281 152.15625 C 238.246094 153.855469 241.210938 155.121094 243.015625 155.953125 C 246.035156 157.410156 248.117188 158.726562 249.265625 159.90625 C 254.714844 165.316406 261.222656 172.074219 268.785156 180.1875 C 277.152344 189.132812 282.253906 194.886719 284.09375 197.453125 C 285.898438 199.984375 287.0625 202.566406 287.582031 205.199219 C 288.066406 207.800781 287.859375 210.140625 286.957031 212.21875 C 285.566406 215.339844 282.878906 217.179688 278.886719 217.734375 C 269.96875 218.84375 263.683594 218.722656 260.039062 217.367188 C 256.8125 216.15625 254.332031 213.328125 252.597656 208.890625 C 249.75 201.785156 246.609375 194.558594 243.171875 187.207031 C 236.265625 172.542969 231.078125 164.238281 227.605469 162.296875 C 220.734375 158.347656 211.796875 154.601562 200.792969 151.066406 C 198.644531 150.339844 197.117188 148.273438 196.214844 144.878906 C 195.414062 141.6875 195.398438 138.414062 196.160156 135.050781 C 196.507812 133.558594 196.996094 132.292969 197.617188 131.253906 C 198.695312 129.519531 199.960938 128.757812 201.417969 128.964844 C 204.40625 129.382812 206.9375 130.542969 209.019531 132.449219 C 210.304688 133.628906 212.179688 136.003906 214.644531 139.574219 L 216.621094 142.382812 C 217.765625 144.011719 220.039062 145.691406 223.441406 147.425781 C 225.417969 148.464844 228.976562 150.042969 234.113281 152.15625 "/>
<path style=" stroke:none;fill-rule:nonzero;fill:rgb(78.431374%,18.039216%,9.803922%);fill-opacity:1;" d="M 272.585938 216.535156 C 279.5625 215.460938 284.578125 213.347656 287.632812 210.191406 L 286.957031 212.21875 C 285.566406 215.339844 282.878906 217.179688 278.886719 217.734375 L 263.789062 218.253906 C 260.386719 217.800781 257.785156 216.625 255.980469 214.714844 C 262.992188 216.554688 268.527344 217.160156 272.585938 216.535156 "/>
<path style=" stroke:none;fill-rule:nonzero;fill:rgb(78.431374%,18.039216%,9.803922%);fill-opacity:1;" d="M 201.417969 128.964844 C 203.675781 129.277344 205.617188 129.988281 207.25 131.097656 C 208.640625 132 210.0625 133.367188 211.519531 135.207031 C 211.726562 142.417969 213.375 149.609375 216.464844 156.785156 C 212.023438 154.914062 206.800781 153.007812 200.792969 151.066406 C 198.644531 150.339844 197.117188 148.273438 196.214844 144.878906 C 195.414062 141.6875 195.398438 138.414062 196.160156 135.050781 C 196.507812 133.558594 196.996094 132.292969 197.617188 131.253906 C 198.695312 129.519531 199.960938 128.757812 201.417969 128.964844 "/>
<path style=" stroke:none;fill-rule:nonzero;fill:rgb(5.098039%,7.450981%,10.196079%);fill-opacity:1;" d="M 281.230469 206.1875 C 282.410156 208.234375 282.964844 211.664062 282.894531 216.484375 C 282.828125 222.066406 281.835938 227.371094 279.929688 232.398438 L 278.261719 235.621094 C 277.464844 236.835938 276.839844 237.425781 276.386719 237.390625 C 275.9375 237.355469 275.328125 236.472656 274.566406 234.738281 L 271.546875 226 C 269.984375 221.113281 269.167969 218.011719 269.097656 216.691406 C 269.066406 215.304688 270.28125 213.242188 272.742188 210.503906 C 275.171875 207.800781 277.203125 206.207031 278.835938 205.71875 C 280.050781 205.375 280.847656 205.53125 281.230469 206.1875 "/>
<path style=" stroke:none;fill-rule:nonzero;fill:rgb(100%,95.294118%,76.078433%);fill-opacity:1;" d="M 279.824219 207.539062 C 280.796875 209.238281 281.125 213.191406 280.8125 219.398438 C 280.535156 225.878906 279.652344 230.371094 278.15625 232.867188 L 277.011719 234.320312 L 276.597656 234.53125 L 276.023438 233.800781 L 273.210938 225.117188 C 271.753906 220.296875 271.007812 217.246094 270.972656 215.964844 C 270.902344 215.027344 271.859375 213.484375 273.835938 211.335938 C 275.851562 209.152344 277.566406 207.851562 278.992188 207.4375 L 279.824219 207.539062 "/>
<path style=" stroke:none;fill-rule:nonzero;fill:rgb(85.882354%,82.352942%,66.274512%);fill-opacity:1;" d="M 270.972656 215.964844 C 270.9375 215.304688 271.582031 214.128906 272.898438 212.429688 C 273.210938 215.203125 273.871094 218.910156 274.878906 223.558594 C 275.816406 227.960938 276.664062 231.410156 277.429688 233.90625 L 276.804688 234.476562 L 276.597656 234.53125 L 276.023438 233.800781 L 273.210938 225.117188 C 271.753906 220.296875 271.007812 217.246094 270.972656 215.964844 "/>
<path style=" stroke:none;fill-rule:nonzero;fill:rgb(5.098039%,7.450981%,10.196079%);fill-opacity:1;" d="M 261.394531 202.445312 C 263.027344 202.167969 264.117188 202.546875 264.675781 203.589844 C 265.75 205.53125 266.046875 209.167969 265.558594 214.507812 C 264.933594 221.09375 263.027344 226.886719 259.832031 231.878906 C 259.554688 232.328125 259.15625 232.414062 258.636719 232.136719 C 257.558594 231.652344 256.1875 228.21875 254.523438 221.839844 C 252.960938 215.878906 252.25 212.324219 252.386719 211.179688 C 252.527344 210.140625 253.636719 208.546875 255.71875 206.394531 C 257.941406 204.074219 259.832031 202.757812 261.394531 202.445312 "/>
<path style=" stroke:none;fill-rule:nonzero;fill:rgb(100%,95.294118%,76.078433%);fill-opacity:1;" d="M 263.269531 205.304688 C 263.617188 205.929688 263.789062 207.4375 263.789062 209.828125 C 263.789062 213.15625 263.425781 216.449219 262.695312 219.707031 C 261.792969 223.800781 260.472656 226.9375 258.738281 229.121094 C 258.046875 228.117188 257.089844 225.167969 255.875 220.28125 C 254.660156 215.53125 254.054688 212.429688 254.054688 210.972656 L 254.105469 210.660156 C 254.210938 209.96875 255.058594 208.859375 256.65625 207.332031 C 258.425781 205.632812 259.972656 204.664062 261.289062 204.421875 C 262.226562 204.28125 262.886719 204.578125 263.269531 205.304688 "/>
<path style=" stroke:none;fill-rule:nonzero;fill:rgb(85.882354%,82.352942%,66.274512%);fill-opacity:1;" d="M 254.105469 210.660156 C 254.175781 210.105469 254.902344 209.101562 256.292969 207.644531 C 256.777344 211.285156 257.351562 214.871094 258.011719 218.410156 C 258.808594 222.8125 259.503906 225.671875 260.09375 226.988281 L 258.738281 229.121094 C 258.046875 228.117188 257.089844 225.167969 255.875 220.28125 C 254.660156 215.53125 254.054688 212.429688 254.054688 210.972656 L 254.105469 210.660156 "/>
<path style=" stroke:none;fill-rule:nonzero;fill:rgb(5.098039%,7.450981%,10.196079%);fill-opacity:1;" d="M 200.691406 274.777344 C 200.898438 273.566406 202.199219 272.074219 204.59375 270.308594 C 206.851562 268.609375 208.359375 267.8125 209.125 267.914062 C 209.921875 268.054688 212.25 269.179688 216.101562 271.292969 C 220.300781 273.617188 222.589844 275.28125 222.972656 276.285156 C 223.148438 276.667969 223.113281 276.996094 222.867188 277.273438 C 222.210938 278.074219 219.066406 278.332031 213.445312 278.054688 L 202.304688 276.808594 C 201.539062 276.632812 201.039062 276.285156 200.792969 275.765625 C 200.621094 275.421875 200.585938 275.089844 200.691406 274.777344 "/>
<path style=" stroke:none;fill-rule:nonzero;fill:rgb(100%,95.294118%,76.078433%);fill-opacity:1;" d="M 201.992188 275.089844 C 202.027344 274.328125 203.066406 273.183594 205.117188 271.660156 C 207.023438 270.203125 208.328125 269.421875 209.019531 269.320312 C 209.785156 269.492188 211.882812 270.53125 215.320312 272.4375 C 218.824219 274.378906 220.578125 275.523438 220.578125 275.871094 L 213.289062 276.339844 L 202.617188 275.453125 C 202.199219 275.386719 201.992188 275.265625 201.992188 275.089844 "/>
<path style=" stroke:none;fill-rule:nonzero;fill:rgb(85.882354%,82.352942%,66.274512%);fill-opacity:1;" d="M 202.617188 275.453125 C 202.199219 275.386719 201.992188 275.265625 201.992188 275.089844 C 202.027344 274.257812 203.15625 273.046875 205.375 271.449219 C 210.0625 273.011719 215.113281 274.46875 220.527344 275.820312 L 220.578125 275.871094 L 213.289062 276.339844 L 202.617188 275.453125 "/>
<path style=" stroke:none;fill-rule:nonzero;fill:rgb(5.098039%,7.450981%,10.196079%);fill-opacity:1;" d="M 184.707031 198.542969 L 187.570312 198.179688 C 188.230469 198.144531 188.628906 198.320312 188.769531 198.699219 L 193.402344 211.542969 C 195.101562 215.496094 197.394531 219.121094 200.273438 222.414062 C 206.175781 229.070312 209.644531 234.304688 210.6875 238.117188 C 212.457031 244.425781 210.878906 252.246094 205.949219 261.570312 C 205.773438 261.917969 205.898438 262.386719 206.3125 262.972656 L 208.082031 264.949219 C 210.789062 267.65625 212.40625 269.5625 212.925781 270.671875 C 213.445312 271.816406 213.515625 272.90625 213.132812 273.945312 L 211.15625 276.859375 C 209.039062 279.492188 204.996094 281.382812 199.023438 282.527344 L 186.320312 282.941406 L 171.796875 280.292969 C 162.078125 278.316406 156.804688 276.738281 155.96875 275.558594 C 155.066406 274.277344 155.171875 272.039062 156.28125 268.851562 C 157.113281 266.457031 158.121094 264.328125 159.300781 262.453125 C 160.101562 261.207031 160.585938 260.113281 160.757812 259.179688 C 160.933594 258.136719 160.792969 257.082031 160.34375 256.007812 C 159.542969 254.273438 157.0625 252.453125 152.898438 250.546875 C 150.328125 249.402344 145.367188 247.546875 138.007812 244.980469 L 138.425781 244.046875 L 139.101562 242.277344 C 139.484375 238.777344 145.816406 230.871094 158.105469 218.566406 C 170.808594 205.839844 179.675781 199.167969 184.707031 198.542969 "/>
<path style=" stroke:none;fill-rule:nonzero;fill:rgb(90.588236%,21.960784%,12.54902%);fill-opacity:1;" d="M 186.6875 201.195312 C 188.628906 206.707031 190.453125 211.144531 192.152344 214.507812 C 194.164062 218.496094 196.492188 222.050781 199.128906 225.167969 C 204.230469 231.167969 207.234375 236.105469 208.136719 239.988281 C 209.386719 245.398438 208.117188 252.347656 204.335938 260.84375 C 203.953125 261.710938 204.058594 262.644531 204.648438 263.652344 C 204.960938 264.207031 205.671875 265.054688 206.78125 266.199219 C 208.308594 267.722656 209.261719 268.921875 209.644531 269.785156 C 210.546875 271.726562 210.339844 273.496094 209.019531 275.089844 C 207.144531 277.414062 203.554688 279.183594 198.242188 280.394531 C 193.417969 281.503906 189.566406 281.765625 186.6875 281.175781 L 169.140625 277.535156 C 162.71875 276.078125 159.25 274.917969 158.730469 274.050781 C 158.242188 273.253906 158.730469 270.550781 160.1875 265.9375 L 162.582031 258.136719 C 162.582031 257.203125 162.390625 256.25 162.007812 255.277344 C 160.03125 250.839844 153.003906 246.542969 140.925781 242.382812 C 141.027344 239.675781 146.894531 232.449219 158.519531 220.695312 C 170.597656 208.492188 179.1875 201.75 184.292969 200.46875 C 185.539062 200.15625 186.339844 200.398438 186.6875 201.195312 "/>
<path style=" stroke:none;fill-rule:nonzero;fill:rgb(78.431374%,18.039216%,9.803922%);fill-opacity:1;" d="M 184.292969 200.46875 C 185.539062 200.15625 186.339844 200.398438 186.6875 201.195312 C 188.246094 205.632812 189.707031 209.308594 191.058594 212.21875 C 192.621094 215.582031 194.304688 218.597656 196.109375 221.269531 C 189.964844 224.945312 184.691406 229.539062 180.28125 235.050781 C 174.832031 241.914062 172.941406 247.964844 174.609375 253.199219 C 175.441406 255.761719 175.492188 258.015625 174.765625 259.957031 C 174.242188 261.378906 173.132812 262.957031 171.433594 264.691406 C 169.488281 266.667969 168.585938 268.398438 168.726562 269.890625 C 168.828125 271.347656 169.941406 272.527344 172.058594 273.425781 L 178.667969 275.664062 L 183.511719 276.753906 L 187.570312 277.585938 C 188.472656 277.863281 189.550781 278.4375 190.800781 279.304688 L 192.203125 281.332031 L 186.6875 281.175781 L 175.179688 278.78125 L 164.457031 276.390625 L 163.464844 276.078125 L 163.414062 276.078125 C 160.636719 275.28125 159.074219 274.605469 158.730469 274.050781 C 158.242188 273.253906 158.730469 270.550781 160.1875 265.9375 L 162.582031 258.136719 C 162.582031 257.203125 162.390625 256.25 162.007812 255.277344 C 160.03125 250.839844 153.003906 246.542969 140.925781 242.382812 C 141.027344 239.675781 146.894531 232.449219 158.519531 220.695312 C 170.597656 208.492188 179.1875 201.75 184.292969 200.46875 "/>
<path style=" stroke:none;fill-rule:nonzero;fill:rgb(5.098039%,7.450981%,10.196079%);fill-opacity:1;" d="M 199.859375 276.546875 C 200.65625 275.089844 202.113281 273.460938 204.230469 271.660156 C 206.523438 269.753906 208.101562 269.007812 208.96875 269.421875 C 209.695312 269.769531 211.589844 271.3125 214.644531 274.050781 C 218.183594 277.242188 220.179688 279.546875 220.628906 280.96875 C 220.804688 281.523438 220.71875 281.902344 220.371094 282.109375 C 219.433594 282.699219 216.464844 282.753906 211.46875 282.265625 C 206.191406 281.746094 202.617188 280.914062 200.742188 279.769531 L 199.960938 279.40625 C 199.578125 279.199219 199.390625 278.957031 199.390625 278.679688 C 199.390625 277.847656 199.546875 277.136719 199.859375 276.546875 "/>
<path style=" stroke:none;fill-rule:nonzero;fill:rgb(100%,95.294118%,76.078433%);fill-opacity:1;" d="M 201.472656 278.472656 C 201.472656 278.125 201.714844 277.519531 202.199219 276.652344 C 203.066406 275.300781 204.214844 273.945312 205.636719 272.59375 C 206.988281 271.3125 207.910156 270.671875 208.394531 270.671875 C 209.125 271.050781 210.964844 272.664062 213.914062 275.507812 C 216.96875 278.417969 218.445312 280.046875 218.339844 280.394531 L 211.15625 280.601562 C 206.332031 280.257812 203.101562 279.597656 201.472656 278.628906 L 201.472656 278.472656 "/>
<path style=" stroke:none;fill-rule:nonzero;fill:rgb(85.882354%,82.352942%,66.274512%);fill-opacity:1;" d="M 210.582031 280.601562 C 206.070312 280.222656 203.035156 279.5625 201.472656 278.628906 L 201.472656 278.472656 C 201.472656 278.125 201.714844 277.519531 202.199219 276.652344 L 202.929688 275.664062 C 207.789062 277.535156 212.871094 279.148438 218.183594 280.5 C 217.316406 280.878906 214.78125 280.914062 210.582031 280.601562 "/>
<path style=" stroke:none;fill-rule:nonzero;fill:rgb(5.098039%,7.450981%,10.196079%);fill-opacity:1;" d="M 196.683594 271.917969 C 199.042969 272.890625 201.230469 274.570312 203.242188 276.964844 C 204.871094 278.90625 206.070312 280.878906 206.832031 282.890625 L 207.300781 284.660156 C 207.300781 284.972656 207.164062 285.179688 206.886719 285.285156 C 205.707031 285.804688 202.132812 285.542969 196.160156 284.503906 C 190.78125 283.566406 187.519531 282.855469 186.375 282.371094 C 185.574219 281.988281 185.175781 281.609375 185.175781 281.226562 C 185.210938 280.257812 186.582031 278.558594 189.289062 276.132812 C 191.753906 273.914062 193.488281 272.578125 194.496094 272.125 L 195.953125 271.660156 L 196.683594 271.917969 "/>
<path style=" stroke:none;fill-rule:nonzero;fill:rgb(100%,95.294118%,76.078433%);fill-opacity:1;" d="M 201.574219 277.898438 L 204.386719 281.644531 C 205.046875 282.753906 205.238281 283.394531 204.960938 283.566406 L 196.628906 282.890625 C 191.945312 282.09375 188.871094 281.433594 187.414062 280.914062 C 187.65625 280.222656 188.785156 278.851562 190.800781 276.808594 C 192.8125 274.796875 194.183594 273.667969 194.910156 273.425781 C 195.5 273.21875 196.4375 273.546875 197.722656 274.414062 C 198.9375 275.246094 200.222656 276.410156 201.574219 277.898438 "/>
<path style=" stroke:none;fill-rule:nonzero;fill:rgb(85.882354%,82.352942%,66.274512%);fill-opacity:1;" d="M 187.414062 280.914062 C 187.519531 280.570312 187.953125 279.945312 188.714844 279.042969 C 196.804688 281.019531 202.148438 282.128906 204.75 282.371094 C 205.0625 283.03125 205.132812 283.429688 204.960938 283.566406 L 196.628906 282.890625 C 191.945312 282.09375 188.871094 281.433594 187.414062 280.914062 "/>
<path style=" stroke:none;fill-rule:nonzero;fill:rgb(5.098039%,7.450981%,10.196079%);fill-opacity:1;" d="M 228.75 1.25 C 229.273438 0.417969 230.816406 0.121094 233.386719 0.363281 C 235.917969 0.570312 238.035156 1.160156 239.738281 2.132812 C 242.652344 3.726562 244.109375 5.839844 244.109375 8.476562 C 244.109375 9.515625 243.625 10.9375 242.652344 12.742188 L 234.6875 26.78125 L 228.855469 36.660156 C 233.089844 42.171875 236.648438 48.328125 239.527344 55.121094 C 242.757812 62.714844 244.371094 69.492188 244.371094 75.453125 C 244.371094 79.683594 242.945312 83.898438 240.101562 88.089844 C 237.464844 91.972656 232.742188 97.054688 225.941406 103.328125 C 210.601562 117.507812 202.929688 129.847656 202.929688 140.355469 L 202.929688 140.820312 C 202.546875 143.25 202.375 146.125 202.410156 149.453125 L 202.304688 157.515625 C 201.886719 163.683594 200.65625 171.191406 198.609375 180.03125 C 196.734375 188.109375 194.632812 195.371094 192.308594 201.820312 C 187.449219 215.203125 180.769531 225.480469 172.265625 232.65625 C 160.777344 242.328125 145.246094 247.289062 125.671875 247.53125 L 87.25 246.332031 C 77.53125 244.738281 66.058594 240.386719 52.835938 233.28125 C 22.5 216.988281 6.640625 195.300781 5.25 168.226562 C 4.695312 157.652344 5.773438 146.800781 8.480469 135.671875 C 10.804688 125.964844 14.605469 115.148438 19.882812 103.222656 L 20.195312 102.546875 L 20.921875 102.703125 C 23.457031 103.257812 25.105469 104.074219 25.867188 105.148438 L 29.410156 103.222656 L 28.730469 105.355469 C 27.378906 109.863281 26.980469 116.121094 27.535156 124.128906 C 28.296875 135.8125 31.472656 145.640625 37.0625 153.613281 C 41.574219 160.027344 47.09375 164.863281 53.617188 168.121094 C 60.386719 171.519531 68.699219 173.460938 78.554688 173.945312 C 80.152344 174.050781 82.683594 172.925781 86.15625 170.566406 C 88.6875 168.867188 92.125 166.179688 96.464844 162.507812 C 104.34375 155.886719 115.449219 148.5 129.78125 140.355469 C 132.003906 139.035156 135.910156 137.335938 141.496094 135.257812 C 149.410156 132.277344 155.085938 129.519531 158.519531 126.988281 C 164.246094 122.691406 168.257812 116.746094 170.546875 109.152344 C 170.0625 109.570312 169.347656 109.722656 168.414062 109.621094 C 167.40625 109.550781 166.398438 109.222656 165.394531 108.632812 C 161.332031 106.273438 158.070312 103.535156 155.605469 100.414062 C 152.898438 96.984375 151.542969 93.480469 151.542969 89.910156 C 151.542969 86.757812 152.621094 83.707031 154.773438 80.757812 C 156.820312 77.984375 159.753906 75.421875 163.570312 73.0625 C 160.066406 68.035156 157.652344 63.617188 156.335938 59.800781 C 155.257812 56.683594 154.980469 54.289062 155.5 52.625 C 156.402344 49.679688 158.660156 47.460938 162.269531 45.96875 C 163.378906 45.484375 164.160156 45 164.613281 44.515625 L 165.445312 42.796875 C 166.765625 39.019531 168.898438 36.039062 171.847656 33.851562 C 175.457031 31.183594 182.902344 27.421875 194.183594 22.570312 C 201.332031 19.484375 209.003906 15.253906 217.195312 9.878906 C 224.171875 5.304688 228.023438 2.425781 228.75 1.25 "/>
<path style=" stroke:none;fill-rule:nonzero;fill:rgb(90.588236%,21.960784%,12.54902%);fill-opacity:1;" d="M 239.371094 5.148438 C 240.585938 6.222656 241.195312 7.453125 241.195312 8.839844 C 241.195312 9.8125 240.917969 10.800781 240.363281 11.804688 L 232.03125 26.625 L 227.191406 34.738281 L 224.117188 31.722656 L 222.921875 31.773438 C 222.851562 32.433594 223.09375 33.109375 223.648438 33.800781 C 224.863281 35.257812 227.136719 38.777344 230.46875 44.359375 C 234.738281 51.535156 237.652344 57.410156 239.214844 61.988281 C 240.882812 66.875 241.714844 70.929688 241.714844 74.15625 C 241.714844 78.316406 240.414062 82.441406 237.808594 86.53125 C 235.207031 90.691406 230.730469 95.699219 224.378906 101.558594 C 218.339844 107.140625 213.375 112.742188 209.488281 118.355469 C 203.902344 126.363281 201.105469 133.699219 201.105469 140.355469 L 201.160156 140.613281 C 200.429688 145.15625 199.824219 151.101562 199.335938 158.449219 C 198.78125 166.804688 198.070312 173.234375 197.203125 177.742188 C 195.746094 185.128906 193.210938 192.511719 189.601562 199.894531 L 187.988281 203.328125 C 182.675781 214.941406 176.984375 223.589844 170.910156 229.277344 C 160.011719 239.46875 145.417969 244.667969 127.128906 244.878906 C 93.945312 245.292969 69.042969 240.164062 52.417969 229.484375 L 51.535156 228.914062 C 39.628906 221.285156 30.726562 214.074219 24.828125 207.28125 C 14.207031 195.113281 8.480469 180.949219 7.648438 164.792969 L 7.492188 159.074219 C 7.492188 150.128906 8.738281 141.046875 11.238281 131.824219 C 13.320312 124.058594 16.722656 114.839844 21.441406 104.160156 C 23.246094 105.859375 25.15625 106.257812 27.167969 105.355469 C 25.886719 111.457031 25.242188 116.535156 25.242188 120.59375 C 25.242188 126.765625 25.886719 132.640625 27.167969 138.222656 C 28.800781 145.292969 31.386719 151.34375 34.925781 156.371094 C 39.4375 162.785156 46.257812 167.984375 55.386719 171.972656 C 64.308594 175.855469 72.496094 177.363281 79.960938 176.496094 C 82.007812 176.285156 84.386719 175.316406 87.09375 173.582031 C 89.488281 172.09375 92.679688 169.664062 96.671875 166.300781 C 102.226562 161.621094 106.910156 157.84375 110.726562 154.964844 C 117.183594 150.183594 123.832031 145.832031 130.667969 141.914062 C 132.925781 140.597656 136.757812 138.933594 142.171875 136.921875 C 150.050781 134.007812 155.8125 131.21875 159.457031 128.550781 C 165.496094 124.078125 169.730469 117.921875 172.160156 110.089844 C 172.265625 109.847656 172.230469 109.429688 172.058594 108.839844 L 171.902344 107.539062 L 173.410156 105.667969 L 171.433594 106.917969 C 170.285156 107.644531 168.742188 107.644531 166.796875 106.917969 C 163.605469 105.703125 160.707031 103.414062 158.105469 100.050781 C 155.398438 96.585938 154.042969 93.273438 154.042969 90.121094 C 154.042969 87.136719 154.859375 84.363281 156.492188 81.800781 C 158.363281 78.816406 161.175781 76.339844 164.925781 74.363281 C 166.625 73.425781 167.5625 72.714844 167.734375 72.230469 C 167.875 71.746094 167.613281 71.640625 166.953125 71.917969 L 165.132812 72.386719 L 162.945312 69.007812 C 160.933594 65.816406 159.527344 63.25 158.730469 61.308594 C 157.375 58.050781 157.046875 55.332031 157.738281 53.144531 C 158.574219 50.582031 160.324219 48.742188 163 47.632812 C 164.421875 47.042969 165.445312 46.367188 166.070312 45.605469 C 166.484375 45.121094 166.851562 44.390625 167.164062 43.421875 C 167.925781 41.238281 169.539062 39.140625 172.003906 37.128906 C 176.34375 33.59375 183.996094 29.292969 194.964844 24.234375 C 202.21875 20.871094 209.957031 16.605469 218.183594 11.441406 C 225.75 6.691406 229.898438 3.675781 230.625 2.390625 L 230.574219 2.496094 L 234.167969 2.652344 C 236.351562 3.171875 238.089844 4.003906 239.371094 5.148438 "/>
<path style=" stroke:none;fill-rule:nonzero;fill:rgb(78.431374%,18.039216%,9.803922%);fill-opacity:1;" d="M 241.195312 8.839844 C 241.195312 9.8125 240.917969 10.800781 240.363281 11.804688 L 232.03125 26.625 L 227.191406 34.738281 L 224.117188 31.722656 L 222.921875 31.773438 C 222.851562 32.433594 223.09375 33.109375 223.648438 33.800781 C 224.863281 35.257812 227.136719 38.777344 230.46875 44.359375 C 234.738281 51.535156 237.652344 57.410156 239.214844 61.988281 C 240.882812 66.875 241.714844 70.929688 241.714844 74.15625 C 241.714844 78.316406 240.414062 82.441406 237.808594 86.53125 C 235.207031 90.691406 230.730469 95.699219 224.378906 101.558594 C 218.339844 107.140625 213.375 112.742188 209.488281 118.355469 C 203.902344 126.363281 201.105469 133.699219 201.105469 140.355469 L 201.160156 140.613281 L 200.949219 141.964844 C 199.457031 140.023438 197.929688 137.40625 196.371094 134.113281 L 192.570312 126.15625 C 189.304688 120.054688 184.761719 116.050781 178.929688 114.144531 C 179.414062 113.832031 180.804688 113.519531 183.09375 113.207031 C 185.558594 112.898438 187.378906 112.464844 188.558594 111.910156 L 193.351562 109.101562 C 196.09375 107.332031 198.242188 106.328125 199.804688 106.085938 L 209.644531 105.460938 C 214.886719 104.730469 219.503906 102.652344 223.492188 99.21875 C 227.796875 95.578125 230.609375 90.050781 231.925781 82.632812 C 232.898438 77.222656 233.054688 71 232.394531 63.960938 C 232.082031 60.53125 229.429688 53.820312 224.429688 43.835938 C 220.160156 35.308594 218.667969 30.371094 219.953125 29.015625 L 228.648438 18.617188 C 232.882812 12.929688 235.78125 7.992188 237.34375 3.796875 C 238.140625 4.210938 238.816406 4.664062 239.371094 5.148438 C 240.585938 6.222656 241.195312 7.453125 241.195312 8.839844 "/>
<path style=" stroke:none;fill-rule:nonzero;fill:rgb(5.098039%,7.450981%,10.196079%);fill-opacity:1;" d="M 178.773438 146.488281 C 183.667969 144.167969 187.8125 143.351562 191.214844 144.046875 C 193.785156 144.566406 195.902344 145.933594 197.566406 148.152344 C 199.648438 150.925781 200.671875 154.6875 200.636719 159.4375 C 200.570312 164.117188 199.40625 170.984375 197.152344 180.03125 C 195.3125 187.3125 193.28125 194.160156 191.058594 200.570312 L 190.226562 202.445312 C 185.226562 214.40625 179.570312 223.4375 173.253906 229.539062 C 161.90625 240.597656 146.53125 246.246094 127.128906 246.488281 C 93.636719 246.90625 68.4375 241.6875 51.535156 230.835938 L 50.648438 230.265625 C 38.570312 222.5 29.53125 215.167969 23.523438 208.269531 C 12.730469 195.855469 6.898438 181.402344 6.03125 164.898438 C 5.789062 160.289062 6.242188 153.890625 7.386719 145.710938 C 8.082031 140.855469 8.859375 136.28125 9.730469 131.980469 L 11.082031 132.242188 C 9.3125 142.363281 10.511719 153.179688 14.675781 164.691406 C 18.839844 176.164062 25.105469 185.925781 33.46875 193.96875 C 41.382812 201.59375 49.625 206.847656 58.199219 209.722656 C 67.328125 212.84375 76.992188 213.3125 87.195312 211.128906 C 102.191406 207.9375 116.734375 200.953125 130.824219 190.171875 C 140.160156 183.03125 149.496094 173.964844 158.832031 162.972656 C 165.496094 155.140625 172.144531 149.644531 178.773438 146.488281 "/>
<path style=" stroke:none;fill-rule:nonzero;fill:rgb(100%,95.294118%,76.078433%);fill-opacity:1;" d="M 197.722656 151.847656 C 199.144531 154.550781 199.753906 157.410156 199.546875 160.425781 C 199.300781 163.789062 198.332031 169.25 196.628906 176.808594 C 194.546875 185.925781 192.273438 193.671875 189.808594 200.050781 L 188.976562 201.925781 C 184.046875 213.675781 178.511719 222.535156 172.371094 228.496094 C 161.226562 239.347656 146.148438 244.894531 127.128906 245.136719 C 93.878906 245.484375 68.921875 240.335938 52.261719 229.691406 L 51.378906 229.121094 C 39.472656 221.496094 30.554688 214.265625 24.617188 207.4375 C 13.964844 195.234375 8.21875 181.019531 7.386719 164.792969 L 7.335938 162.402344 C 7.335938 157.792969 7.925781 151.5 9.105469 143.527344 C 8.964844 152.851562 10.976562 162.246094 15.144531 171.710938 C 19.238281 180.96875 24.828125 189.011719 31.90625 195.839844 C 39.855469 203.464844 48.6875 208.804688 58.40625 211.855469 C 68.4375 214.941406 78.761719 215.375 89.382812 213.15625 C 104.308594 209.96875 118.9375 202.652344 133.269531 191.210938 C 140.664062 185.285156 150.15625 176.007812 161.75 163.390625 C 167.023438 157.636719 170.511719 154.117188 172.214844 152.835938 C 178.875 147.808594 184.882812 145.65625 190.226562 146.386719 C 193.488281 146.800781 195.988281 148.621094 197.722656 151.847656 "/>
<path style=" stroke:none;fill-rule:nonzero;fill:rgb(85.882354%,82.352942%,66.274512%);fill-opacity:1;" d="M 52.261719 229.691406 L 51.378906 229.121094 L 41.488281 222.464844 C 37.320312 219.484375 33.609375 216.449219 30.34375 213.363281 C 36.417969 217.871094 44.089844 222.117188 53.355469 226.105469 C 65.019531 231.167969 77.011719 234.71875 89.332031 236.765625 C 122.753906 242.417969 153.089844 236.417969 180.335938 218.773438 C 168.882812 236.070312 151.144531 244.859375 127.128906 245.136719 C 93.878906 245.484375 68.921875 240.335938 52.261719 229.691406 "/>
<path style=" stroke:none;fill-rule:nonzero;fill:rgb(5.098039%,7.450981%,10.196079%);fill-opacity:1;" d="M 211.3125 100.105469 L 197.878906 99.53125 L 185.382812 98.855469 C 183.925781 99.167969 181.964844 100.171875 179.5 101.871094 C 177.105469 103.5 174.9375 105.285156 172.992188 107.226562 C 172.371094 107.851562 172.421875 108.769531 173.148438 109.984375 C 173.808594 111.09375 174.625 111.855469 175.597656 112.273438 C 177.226562 113 179.484375 113.191406 182.363281 112.84375 C 184.96875 112.53125 187.449219 111.875 189.808594 110.867188 C 191.234375 110.246094 191.945312 110.125 191.945312 110.503906 C 191.945312 110.851562 191.390625 111.285156 190.277344 111.804688 C 187.398438 113.15625 184.414062 114.039062 181.324219 114.457031 L 174.816406 114.144531 C 173.289062 113.417969 172.109375 112.308594 171.277344 110.816406 L 170.496094 108.683594 L 168.203125 107.851562 C 166.921875 107.332031 166.832031 107.195312 167.945312 107.4375 C 169.4375 107.75 170.84375 107.332031 172.160156 106.1875 L 177.160156 101.457031 C 179.96875 99.097656 182.644531 97.710938 185.175781 97.296875 L 198.816406 98.023438 L 210.84375 98.75 C 213.167969 98.023438 215.058594 97.035156 216.515625 95.789062 C 217.523438 94.957031 218.148438 94.660156 218.390625 94.902344 C 218.601562 95.113281 218.289062 95.683594 217.453125 96.621094 C 215.753906 98.492188 213.707031 99.652344 211.3125 100.105469 "/>
<path style=" stroke:none;fill-rule:nonzero;fill:rgb(5.098039%,7.450981%,10.196079%);fill-opacity:1;" d="M 185.125 112.949219 L 185.90625 112.6875 L 186.84375 112.585938 L 190.019531 114.871094 C 190.746094 115.359375 191.078125 115.6875 191.007812 115.859375 L 189.863281 115.757812 C 189.273438 115.546875 188.457031 115.132812 187.414062 114.507812 L 185.125 112.949219 "/>
<path style=" stroke:none;fill-rule:nonzero;fill:rgb(5.098039%,7.450981%,10.196079%);fill-opacity:1;" d="M 164.402344 60.0625 C 164.125 59.507812 164.109375 59.074219 164.351562 58.761719 C 164.59375 58.414062 164.960938 58.554688 165.445312 59.179688 C 166.867188 60.84375 167.597656 62.886719 167.632812 65.316406 C 167.667969 66.527344 167.492188 67.082031 167.109375 66.980469 C 166.730469 66.875 166.453125 66.371094 166.277344 65.46875 C 166.070312 64.015625 165.445312 62.210938 164.402344 60.0625 "/>
<path style=" stroke:none;fill-rule:nonzero;fill:rgb(5.098039%,7.450981%,10.196079%);fill-opacity:1;" d="M 182.3125 63.910156 C 181.964844 62.972656 181.84375 61.761719 181.949219 60.269531 C 182.050781 58.398438 182.503906 56.820312 183.300781 55.539062 C 184.621094 53.5625 185.003906 53.839844 184.449219 56.371094 C 184.066406 57.828125 183.804688 60.289062 183.667969 63.753906 C 183.597656 64.898438 183.40625 65.417969 183.09375 65.316406 C 182.851562 65.210938 182.589844 64.742188 182.3125 63.910156 "/>
<path style=" stroke:none;fill-rule:nonzero;fill:rgb(5.098039%,7.450981%,10.196079%);fill-opacity:1;" d="M 169.609375 95.421875 C 169.957031 94.417969 170.375 93.707031 170.859375 93.292969 C 171.3125 92.875 171.777344 92.804688 172.265625 93.082031 C 172.785156 93.359375 172.769531 93.777344 172.214844 94.332031 C 171.761719 94.78125 171.414062 95.441406 171.171875 96.308594 L 170.597656 98.128906 L 169.871094 98.960938 C 169.628906 98.996094 169.417969 98.683594 169.246094 98.023438 C 169.070312 97.363281 169.195312 96.5 169.609375 95.421875 "/>
<path style=" stroke:none;fill-rule:nonzero;fill:rgb(5.098039%,7.450981%,10.196079%);fill-opacity:1;" d="M 199.597656 79.148438 C 195.328125 78.871094 191.804688 77.949219 189.027344 76.390625 L 187.570312 76.546875 C 187.363281 76.410156 187.34375 76.113281 187.519531 75.664062 L 187.882812 75.089844 C 189.757812 71.554688 193.539062 67.671875 199.234375 63.441406 C 204.507812 59.523438 209.195312 56.871094 213.289062 55.484375 C 215.234375 54.792969 216.257812 54.585938 216.359375 54.863281 L 215.371094 56.058594 L 213.808594 57.304688 L 213.027344 57.773438 C 214.625 59.300781 216.015625 61.570312 217.195312 64.585938 C 217.957031 66.632812 218.320312 68.695312 218.289062 70.773438 C 218.21875 72.820312 217.800781 74.5 217.039062 75.820312 L 217.765625 76.390625 C 217.976562 76.839844 217.453125 77.207031 216.203125 77.484375 C 209.992188 78.9375 204.457031 79.492188 199.597656 79.148438 "/>
<path style=" stroke:none;fill-rule:nonzero;fill:rgb(100%,100%,100%);fill-opacity:1;" d="M 211.3125 58.605469 C 211.867188 58.847656 212.492188 59.472656 213.183594 60.476562 C 213.984375 61.621094 214.679688 62.992188 215.269531 64.585938 C 216.203125 66.980469 216.671875 69.230469 216.671875 71.347656 C 216.671875 73.113281 216.328125 74.640625 215.632812 75.921875 C 210.113281 77.519531 204.75 78.105469 199.546875 77.691406 C 195.554688 77.34375 192.203125 76.511719 189.496094 75.195312 C 191.441406 72.386719 195.207031 68.9375 200.792969 64.847656 C 206.035156 61 209.542969 58.917969 211.3125 58.605469 "/>
<path style=" stroke:none;fill-rule:nonzero;fill:rgb(5.098039%,7.450981%,10.196079%);fill-opacity:1;" d="M 204.699219 60.945312 L 205.0625 60.738281 C 206.9375 62.472656 208.238281 65.003906 208.96875 68.332031 C 209.800781 71.9375 209.59375 75.195312 208.34375 78.105469 L 208.03125 78.628906 L 207.769531 78.628906 L 194.808594 78.105469 L 194.753906 78.105469 L 194.703125 78.054688 L 191.320312 76.652344 C 190.140625 76.164062 189.324219 75.421875 188.871094 74.414062 L 191.109375 71.449219 L 191.265625 71.292969 C 193.382812 69.074219 197.480469 65.902344 203.554688 61.777344 L 204.699219 60.945312 "/>
<path style=" stroke:none;fill-rule:nonzero;fill:rgb(23.921569%,38.431373%,67.450982%);fill-opacity:1;" d="M 204.804688 61.988281 C 207.058594 65.140625 208.1875 68.660156 208.1875 72.542969 C 208.1875 74.242188 207.910156 75.976562 207.355469 77.742188 C 204.300781 78.089844 201.351562 78.160156 198.503906 77.949219 C 195.691406 77.742188 193.664062 77.34375 192.414062 76.753906 L 190.539062 75.921875 C 189.914062 75.542969 189.707031 75.210938 189.914062 74.933594 C 191.023438 73.234375 193.402344 70.863281 197.046875 67.8125 C 200.308594 65.039062 202.894531 63.097656 204.804688 61.988281 "/>
<path style=" stroke:none;fill-rule:nonzero;fill:rgb(5.098039%,7.450981%,10.196079%);fill-opacity:1;" d="M 199.441406 64.585938 C 201.488281 66.703125 202.199219 69.40625 201.574219 72.699219 C 200.984375 75.921875 199.71875 77.535156 197.773438 77.535156 C 195.066406 77.535156 193.28125 75.195312 192.414062 70.515625 L 196.941406 66.613281 L 199.441406 64.585938 "/>
<path style=" stroke:none;fill-rule:nonzero;fill:rgb(5.098039%,7.450981%,10.196079%);fill-opacity:1;" d="M 64.445312 20.332031 C 57.816406 27.335938 55.839844 31.808594 58.511719 33.75 L 59.34375 33.644531 L 60.074219 32.8125 C 60.941406 31.046875 61.789062 29.9375 62.625 29.484375 L 66.890625 29.277344 L 67.464844 29.589844 L 67.046875 30.109375 C 65.832031 30.90625 64.550781 32.292969 63.195312 34.269531 L 59.761719 40.09375 L 58.824219 41.707031 C 56.460938 45.96875 55.628906 48.675781 56.324219 49.816406 C 56.808594 50.71875 57.574219 50.769531 58.613281 49.972656 C 59.484375 49.316406 60.125 48.464844 60.542969 47.425781 C 60.992188 46.179688 61.355469 45.589844 61.632812 45.65625 C 61.878906 45.691406 62 46.316406 62 47.53125 C 62 51.203125 61.375 54.046875 60.125 56.058594 C 58.980469 57.929688 56.808594 59.75 53.617188 61.519531 C 52.296875 62.210938 51.359375 63.945312 50.804688 66.71875 C 50.667969 67.480469 50.71875 67.914062 50.960938 68.019531 C 51.238281 68.191406 51.726562 67.898438 52.417969 67.132812 C 53.703125 65.78125 54.78125 64.828125 55.648438 64.273438 C 57.242188 63.269531 59.238281 62.644531 61.632812 62.402344 C 62.15625 62.402344 62.363281 62.507812 62.257812 62.714844 L 60.695312 64.742188 C 58.890625 66.855469 57.382812 69.25 56.167969 71.917969 C 54.710938 75.074219 53.878906 78.246094 53.667969 81.433594 C 53.007812 90.832031 50.335938 97.105469 45.652344 100.261719 C 43.464844 101.75 39.734375 102.6875 34.457031 103.066406 C 32.203125 103.242188 30.535156 103.710938 29.460938 104.472656 C 27.726562 105.71875 25.902344 106.171875 23.992188 105.824219 C 22.570312 105.511719 21.441406 104.800781 20.609375 103.691406 C 20.160156 102.757812 19.324219 101.59375 18.109375 100.207031 C 16.550781 98.371094 13.773438 96.429688 9.78125 94.382812 C 7.179688 93.03125 5.09375 90.882812 3.535156 87.933594 C 2.144531 85.335938 1.296875 82.421875 0.984375 79.199219 C 0.636719 75.523438 1.121094 72.109375 2.441406 68.953125 C 3.722656 65.835938 5.667969 63.234375 8.269531 61.15625 C 12.992188 57.410156 16.269531 53.925781 18.109375 50.703125 C 19.5 48.273438 20.261719 45.519531 20.402344 42.433594 C 20.472656 41.429688 20.59375 40.875 20.765625 40.769531 L 21.285156 41.238281 C 22.710938 43.316406 23.421875 46.125 23.421875 49.660156 C 24.046875 47.410156 25.121094 44.914062 26.648438 42.171875 C 29.703125 36.730469 33.488281 33.003906 38 30.992188 C 38.65625 30.648438 39.039062 30.523438 39.144531 30.628906 C 39.28125 30.699219 39.089844 31.046875 38.570312 31.667969 C 37.355469 33.089844 36.296875 35.015625 35.394531 37.441406 C 34.527344 39.765625 34.300781 41.097656 34.71875 41.445312 L 35.1875 41.808594 C 35.535156 41.878906 35.984375 41.617188 36.539062 41.03125 C 38.484375 39.089844 40.046875 36.523438 41.226562 33.332031 C 42.648438 29.554688 44.160156 26.730469 45.753906 24.855469 C 47.558594 22.707031 49.695312 21.527344 52.160156 21.320312 L 52.992188 21.425781 L 52.472656 22.101562 C 51.429688 23.070312 50.753906 24.300781 50.441406 25.792969 C 50.199219 27.074219 50.25 28.203125 50.597656 29.171875 C 50.769531 29.660156 51.101562 29.847656 51.585938 29.746094 C 52.105469 29.675781 52.507812 29.277344 52.785156 28.550781 C 54.242188 24.839844 56.117188 21.839844 58.40625 19.554688 C 60.628906 17.335938 64.792969 14.230469 70.902344 10.246094 C 72.117188 9.445312 72.828125 9.082031 73.035156 9.152344 C 73.242188 9.257812 72.984375 9.96875 72.253906 11.285156 C 71.421875 12.773438 69.617188 14.941406 66.839844 17.785156 L 64.445312 20.332031 "/>
<path style=" stroke:none;fill-rule:nonzero;fill:rgb(89.803922%,0%,12.54902%);fill-opacity:1;" d="M 71.472656 10.765625 C 70.675781 12.21875 68.921875 14.351562 66.214844 17.160156 L 63.769531 19.65625 C 61.789062 21.804688 60.332031 23.558594 59.394531 24.910156 C 57.625 27.441406 56.742188 29.589844 56.742188 31.355469 C 56.742188 32.5 57.105469 33.488281 57.832031 34.320312 C 58.285156 34.808594 58.703125 35.03125 59.082031 34.996094 C 59.5 34.960938 60.089844 34.40625 60.851562 33.332031 C 61.546875 32.257812 62.15625 31.511719 62.675781 31.097656 C 63.542969 30.371094 64.566406 30.023438 65.746094 30.058594 C 64.601562 30.992188 63.40625 32.398438 62.15625 34.269531 L 58.925781 39.625 L 58.042969 41.289062 C 55.820312 45.414062 54.710938 48.378906 54.710938 50.183594 C 54.710938 50.667969 54.796875 51.082031 54.96875 51.429688 C 55.25 51.878906 55.648438 52.105469 56.167969 52.105469 C 57.210938 52.105469 58.25 51.601562 59.292969 50.597656 C 60.054688 49.835938 60.664062 48.917969 61.113281 47.84375 C 61.042969 50.027344 60.523438 52.105469 59.550781 54.082031 C 58.199219 56.820312 56.0625 59.039062 53.148438 60.738281 C 52.039062 61.363281 51.082031 62.523438 50.285156 64.222656 C 49.554688 65.746094 49.191406 67.117188 49.191406 68.332031 L 49.191406 68.433594 C 49.261719 69.164062 49.46875 69.628906 49.816406 69.839844 L 51.117188 69.628906 L 53.097656 67.757812 C 54.136719 66.578125 55.039062 65.730469 55.804688 65.210938 C 57.121094 64.34375 58.71875 63.773438 60.59375 63.496094 L 60.019531 64.171875 C 57.765625 66.734375 56.152344 68.851562 55.179688 70.515625 C 53.546875 73.359375 52.609375 76.355469 52.367188 79.511719 C 51.742188 88.628906 49.242188 94.902344 44.871094 98.335938 C 42.441406 100.242188 38.847656 101.371094 34.09375 101.714844 C 31.558594 101.855469 30.015625 102.167969 29.460938 102.652344 C 28.039062 103.832031 26.578125 104.300781 25.085938 104.054688 C 23.804688 103.882812 22.796875 103.3125 22.066406 102.339844 L 18.058594 97.609375 C 16.253906 95.632812 13.390625 93.570312 9.46875 91.417969 C 8.011719 90.621094 6.726562 89.113281 5.617188 86.894531 C 4.472656 84.605469 3.757812 82.058594 3.480469 79.25 L 3.378906 76.910156 C 3.378906 73.859375 3.96875 71.050781 5.148438 68.488281 C 6.292969 65.886719 7.957031 63.71875 10.144531 61.988281 C 14.691406 58.382812 17.78125 54.898438 19.414062 51.535156 C 20.488281 49.316406 21.113281 46.523438 21.285156 43.160156 C 22.085938 44.929688 22.484375 47.097656 22.484375 49.660156 C 22.484375 51.429688 22.34375 53.023438 22.066406 54.445312 L 21.964844 56.058594 C 22 56.820312 22.328125 56.351562 22.953125 54.652344 C 23.507812 52.125 24.480469 49.332031 25.867188 46.28125 C 28.679688 40.25 32.253906 35.792969 36.59375 32.917969 C 35.621094 34.40625 34.839844 35.933594 34.25 37.492188 C 33.660156 39.054688 33.363281 40.355469 33.363281 41.394531 C 33.363281 42.15625 33.539062 42.695312 33.886719 43.003906 C 34.613281 43.664062 35.726562 43.214844 37.21875 41.652344 L 39.714844 38.167969 L 42.007812 33.75 C 43.671875 30.457031 44.992188 28.117188 45.964844 26.730469 C 47.558594 24.476562 49.226562 23.070312 50.960938 22.515625 C 49.921875 23.9375 49.398438 25.53125 49.398438 27.300781 C 49.398438 28.238281 49.519531 28.964844 49.765625 29.484375 C 50.113281 30.523438 50.648438 31.046875 51.378906 31.046875 C 52.175781 31.078125 52.921875 30.371094 53.617188 28.914062 C 55.386719 24.925781 57.453125 21.753906 59.8125 19.398438 C 61.375 17.835938 64.339844 15.582031 68.714844 12.636719 L 71.472656 10.765625 "/>
<path style=" stroke:none;fill-rule:nonzero;fill:rgb(93.725491%,91.37255%,3.137255%);fill-opacity:1;" d="M 45.390625 38.324219 C 46.433594 37.492188 47.144531 37.164062 47.527344 37.335938 C 47.769531 37.40625 47.578125 37.839844 46.953125 38.636719 C 45.285156 41.097656 44.351562 42.988281 44.140625 44.304688 C 44.070312 44.824219 44.175781 46.664062 44.453125 49.816406 C 44.695312 52.800781 44.125 55.589844 42.734375 58.191406 C 41.695312 60.0625 40.082031 62.019531 37.894531 64.066406 C 35.707031 66.179688 34.390625 68.140625 33.9375 69.941406 C 33.417969 71.953125 33.539062 73.269531 34.300781 73.894531 C 35.03125 74.519531 35.535156 74.328125 35.8125 73.324219 C 36.4375 71.171875 37.21875 69.441406 38.15625 68.121094 C 38.953125 66.945312 40.046875 65.871094 41.433594 64.898438 C 42.023438 64.515625 42.371094 64.328125 42.476562 64.328125 C 42.648438 64.328125 42.632812 64.605469 42.421875 65.160156 C 40.515625 70.253906 40.046875 73.132812 41.019531 73.789062 C 41.332031 73.929688 41.832031 73.6875 42.527344 73.0625 C 43.324219 72.371094 44.039062 71.484375 44.664062 70.410156 C 46.398438 67.601562 47.265625 65.160156 47.265625 63.078125 C 47.265625 61.484375 47.558594 61.328125 48.152344 62.609375 C 48.429688 63.199219 48.601562 64.082031 48.671875 65.261719 C 48.742188 66.71875 48.617188 68.089844 48.304688 69.371094 C 47.507812 72.421875 44.992188 76.234375 40.757812 80.8125 C 37.667969 84.140625 36.261719 86.878906 36.539062 89.027344 C 36.75 90.554688 37.375 91.351562 38.414062 91.417969 C 39.28125 91.417969 40.238281 90.96875 41.277344 90.066406 C 42.527344 88.957031 43.535156 87.378906 44.296875 85.335938 C 44.507812 84.746094 44.695312 84.433594 44.871094 84.398438 C 45.042969 84.328125 45.234375 84.589844 45.441406 85.179688 C 46.449219 87.953125 46.363281 90.585938 45.183594 93.082031 C 43.863281 95.71875 41.816406 97.175781 39.039062 97.453125 C 37.964844 97.554688 36.816406 97.917969 35.605469 98.542969 C 34.390625 99.132812 33.332031 99.84375 32.429688 100.675781 L 28.574219 103.378906 C 27.882812 103.96875 27.066406 104.332031 26.128906 104.472656 L 23.679688 104.316406 C 22.882812 104.109375 21.929688 103.15625 20.816406 101.457031 L 19.464844 99.792969 L 17.796875 97.609375 L 16.339844 94.644531 C 13.148438 86.183594 13.269531 79.214844 16.707031 73.738281 C 17.816406 72.039062 18.300781 71.867188 18.164062 73.21875 C 18.09375 74.5 18.285156 75.59375 18.734375 76.496094 C 19.222656 77.429688 19.8125 77.828125 20.503906 77.691406 C 21.027344 77.585938 21.476562 76.910156 21.859375 75.664062 C 22.242188 74.34375 22.433594 72.785156 22.433594 70.984375 C 22.464844 66.648438 24.117188 62.628906 27.378906 58.917969 C 29.945312 56.007812 32.011719 54.429688 33.574219 54.1875 C 34.164062 54.152344 34.234375 54.410156 33.78125 54.964844 C 31.59375 57.566406 30.242188 59.785156 29.71875 61.621094 C 29.269531 63.148438 29.425781 63.980469 30.1875 64.117188 C 31.265625 64.257812 32.445312 63.496094 33.730469 61.832031 C 35.082031 60.0625 36.679688 57.132812 38.519531 53.042969 L 40.183594 49.195312 C 40.601562 47.980469 40.84375 46.734375 40.914062 45.449219 C 41.050781 42.816406 42.546875 40.441406 45.390625 38.324219 "/>
<path style=" stroke:none;fill-rule:nonzero;fill:rgb(90.588236%,21.960784%,12.54902%);fill-opacity:1;" d="M 68.507812 195.945312 C 69.6875 191.785156 73.589844 190.015625 80.21875 190.640625 C 85.84375 191.160156 92.785156 193.308594 101.042969 197.085938 C 108.507812 200.519531 115.171875 204.386719 121.035156 208.683594 C 127.039062 213.050781 130.164062 216.398438 130.40625 218.722656 C 130.824219 222.984375 127.441406 231.410156 120.253906 243.992188 C 113.589844 255.710938 108.734375 262.785156 105.679688 265.210938 C 111.613281 272.25 114.269531 277.363281 113.644531 280.550781 C 113.402344 281.832031 112.566406 283.066406 111.144531 284.242188 L 106.617188 287.46875 C 103.527344 289.582031 96.324219 290.726562 85.011719 290.898438 C 74.144531 291.039062 67.707031 290.398438 65.695312 288.976562 C 62.15625 286.445312 60.195312 284.882812 59.8125 284.296875 C 58.007812 281.730469 58.234375 278.261719 60.488281 273.894531 C 63.890625 267.238281 65.765625 261.882812 66.113281 257.828125 C 66.390625 254.082031 65.398438 250.339844 63.144531 246.59375 C 61.546875 243.925781 60.28125 240.976562 59.34375 237.753906 C 57.710938 232.066406 57.765625 227.058594 59.5 222.726562 L 63.25 213.207031 L 68.507812 195.945312 "/>
<path style=" stroke:none;fill-rule:nonzero;fill:rgb(78.431374%,18.039216%,9.803922%);fill-opacity:1;" d="M 112.394531 242.121094 C 120.410156 231.546875 124.507812 221.339844 124.679688 211.492188 C 128.289062 214.542969 130.199219 216.953125 130.40625 218.722656 C 130.824219 222.984375 127.441406 231.410156 120.253906 243.992188 C 113.589844 255.710938 108.734375 262.785156 105.679688 265.210938 C 110.363281 270.757812 113 275.039062 113.589844 278.054688 C 114.078125 280.445312 113.246094 282.527344 111.09375 284.296875 C 106.996094 279.648438 103.25 276.042969 99.847656 273.480469 C 97.660156 271.816406 94.3125 269.71875 89.800781 267.1875 C 86.570312 265.347656 85.894531 263.617188 87.769531 261.988281 C 88.429688 261.433594 91.136719 260.0625 95.890625 257.878906 C 100.578125 255.695312 106.078125 250.441406 112.394531 242.121094 "/>
<path style=" stroke:none;fill-rule:nonzero;fill:rgb(5.098039%,7.450981%,10.196079%);fill-opacity:1;" d="M 67.621094 195.734375 C 68.488281 193.726562 69.132812 192.839844 69.546875 193.082031 C 69.964844 193.328125 69.914062 194.347656 69.390625 196.152344 L 65.433594 208.632812 L 60.332031 223.035156 C 58.632812 227.265625 58.632812 232.207031 60.332031 237.859375 C 61.234375 240.910156 62.433594 243.664062 63.925781 246.125 C 66.355469 250.148438 67.378906 254.1875 66.996094 258.242188 C 66.613281 262.296875 64.722656 267.65625 61.320312 274.3125 C 59.449219 277.917969 59.015625 280.792969 60.019531 282.941406 C 60.609375 284.191406 62.15625 285.613281 64.652344 287.207031 L 66.214844 288.246094 C 68.019531 289.53125 74.214844 290.121094 84.800781 290.015625 C 95.941406 289.910156 103.039062 288.800781 106.09375 286.6875 L 107.550781 285.699219 C 109.289062 284.554688 110.46875 283.6875 111.09375 283.097656 C 112.066406 282.164062 112.621094 281.175781 112.757812 280.136719 C 113 278.644531 112.550781 276.808594 111.40625 274.621094 C 110.226562 272.371094 108.210938 269.5625 105.367188 266.199219 C 102.902344 267.515625 101.460938 267.914062 101.042969 267.394531 C 100.734375 267.011719 100.734375 266.683594 101.042969 266.40625 L 103.441406 264.484375 C 107.8125 260.945312 113.140625 254.308594 119.421875 244.566406 C 126.851562 233.054688 130.199219 224.476562 129.46875 218.824219 L 131.292969 218.617188 L 131.398438 220.28125 C 131.398438 226.625 128.671875 234.425781 123.222656 243.683594 C 118.46875 251.726562 113.035156 258.761719 106.929688 264.792969 C 109.878906 268.398438 111.996094 271.226562 113.28125 273.269531 C 114.910156 275.800781 115.726562 277.847656 115.726562 279.40625 L 115.257812 281.332031 C 115.050781 282.648438 114.25 283.773438 112.863281 284.710938 L 108.59375 287.207031 L 107.136719 288.195312 C 103.875 290.449219 96.53125 291.664062 85.113281 291.835938 C 74.078125 292.042969 67.429688 291.332031 65.175781 289.703125 L 62.46875 288.820312 C 59.792969 287.15625 58.128906 285.628906 57.46875 284.242188 C 56.21875 281.710938 56.671875 278.332031 58.824219 274.101562 C 62.15625 267.621094 63.785156 261.8125 63.714844 256.683594 C 63.683594 252.589844 62.535156 248.691406 60.28125 244.980469 C 58.476562 242.035156 57.210938 239.347656 56.480469 236.921875 C 54.953125 231.859375 55.09375 227.074219 56.898438 222.570312 L 67.621094 195.734375 "/>
<path style=" stroke:none;fill-rule:nonzero;fill:rgb(5.098039%,7.450981%,10.196079%);fill-opacity:1;" d="M 71.839844 276.546875 C 73.609375 275.230469 74.894531 274.917969 75.691406 275.609375 C 76.800781 276.476562 77.929688 277.949219 79.074219 280.03125 C 80.496094 282.527344 81.296875 284.902344 81.46875 287.15625 C 81.644531 289.132812 81.382812 291.230469 80.6875 293.449219 C 79.960938 295.875 78.882812 297.867188 77.460938 299.429688 C 77.148438 299.808594 76.679688 299.929688 76.054688 299.792969 C 74.769531 299.550781 72.742188 297.765625 69.964844 294.4375 C 67.5 291.453125 65.988281 289.289062 65.433594 287.933594 C 65.054688 286.929688 65.625 285.074219 67.152344 282.371094 C 68.679688 279.667969 70.242188 277.726562 71.839844 276.546875 "/>
<path style=" stroke:none;fill-rule:nonzero;fill:rgb(100%,95.294118%,76.078433%);fill-opacity:1;" d="M 75.015625 277.742188 C 76.089844 278.609375 77.097656 279.789062 78.035156 281.277344 C 79.25 283.253906 79.941406 285.25 80.117188 287.257812 L 80.117188 288.144531 C 80.117188 291.160156 78.902344 294.003906 76.472656 296.671875 C 75.8125 296.808594 74.144531 295.613281 71.472656 293.082031 C 68.800781 290.519531 67.222656 288.644531 66.738281 287.46875 C 66.492188 286.914062 67.03125 285.59375 68.351562 283.515625 C 69.738281 281.261719 71.214844 279.5625 72.777344 278.417969 C 73.816406 277.65625 74.5625 277.429688 75.015625 277.742188 "/>
<path style=" stroke:none;fill-rule:nonzero;fill:rgb(85.882354%,82.352942%,66.274512%);fill-opacity:1;" d="M 75.640625 293.550781 C 76.054688 293.550781 76.679688 293.222656 77.511719 292.5625 C 78.449219 291.835938 79.265625 290.96875 79.960938 289.964844 C 79.542969 292.320312 78.378906 294.558594 76.472656 296.671875 C 75.8125 296.808594 74.144531 295.613281 71.472656 293.082031 C 68.800781 290.519531 67.222656 288.644531 66.738281 287.46875 C 66.527344 287.015625 66.960938 285.871094 68.039062 284.035156 C 69.289062 286.980469 70.832031 289.425781 72.671875 291.367188 C 74.058594 292.824219 75.050781 293.550781 75.640625 293.550781 "/>
<path style=" stroke:none;fill-rule:nonzero;fill:rgb(5.098039%,7.450981%,10.196079%);fill-opacity:1;" d="M 94.070312 276.390625 C 94.9375 275.871094 96.253906 276.320312 98.023438 277.742188 C 99.621094 279.027344 101.011719 280.585938 102.191406 282.421875 C 103.507812 284.539062 104.480469 287.761719 105.105469 292.09375 C 105.695312 296.222656 105.679688 298.527344 105.054688 299.011719 C 104.5 299.496094 103.542969 299.601562 102.191406 299.324219 L 99.171875 298.441406 C 96.707031 297.574219 94.101562 296.132812 91.363281 294.125 C 88.863281 292.320312 87.441406 290.96875 87.09375 290.066406 C 86.675781 289.097656 87.300781 286.84375 88.964844 283.308594 C 90.703125 279.632812 92.402344 277.328125 94.070312 276.390625 "/>
<path style=" stroke:none;fill-rule:nonzero;fill:rgb(100%,95.294118%,76.078433%);fill-opacity:1;" d="M 97.660156 279.980469 C 99.117188 281.089844 100.195312 282.199219 100.890625 283.308594 C 102.242188 285.457031 103.160156 287.902344 103.648438 290.640625 C 104.097656 293.238281 103.996094 295.128906 103.335938 296.308594 C 103.195312 296.585938 102.851562 296.742188 102.292969 296.777344 C 100.523438 296.808594 97.992188 295.855469 94.695312 293.914062 C 91.640625 292.183594 89.800781 290.8125 89.175781 289.808594 C 88.652344 289.011719 89.15625 287.101562 90.683594 284.085938 C 92.175781 281.175781 93.425781 279.390625 94.433594 278.730469 C 95.058594 278.382812 96.132812 278.800781 97.660156 279.980469 "/>
<path style=" stroke:none;fill-rule:nonzero;fill:rgb(85.882354%,82.352942%,66.274512%);fill-opacity:1;" d="M 90.371094 284.710938 C 92.976562 287.867188 95.457031 290.292969 97.816406 291.992188 C 100.351562 293.792969 102.363281 294.488281 103.855469 294.070312 C 103.785156 295.042969 103.613281 295.789062 103.335938 296.308594 C 103.195312 296.585938 102.851562 296.742188 102.292969 296.777344 C 100.523438 296.808594 97.992188 295.855469 94.695312 293.914062 C 91.640625 292.183594 89.800781 290.8125 89.175781 289.808594 C 88.6875 289.078125 89.089844 287.378906 90.371094 284.710938 "/>
<path style=" stroke:none;fill-rule:nonzero;fill:rgb(5.098039%,7.450981%,10.196079%);fill-opacity:1;" d="M 111.5625 274.050781 C 113.332031 273.945312 115.882812 275.90625 119.214844 279.925781 C 122.617188 284.050781 124.4375 287.503906 124.679688 290.277344 C 124.714844 290.65625 124.457031 290.863281 123.898438 290.898438 L 122.804688 290.847656 C 121.140625 291.019531 118.105469 290.640625 113.695312 289.703125 C 109.324219 288.800781 106.910156 288.058594 106.460938 287.46875 C 106.148438 287.050781 106.027344 286.117188 106.09375 284.660156 C 106.164062 283.273438 106.390625 281.957031 106.773438 280.707031 C 107.222656 279.113281 107.777344 277.742188 108.4375 276.597656 C 109.410156 274.96875 110.449219 274.121094 111.5625 274.050781 "/>
<path style=" stroke:none;fill-rule:nonzero;fill:rgb(100%,95.294118%,76.078433%);fill-opacity:1;" d="M 111.925781 275.871094 C 112.550781 275.976562 113.835938 277.117188 115.777344 279.304688 C 117.894531 281.625 119.542969 283.863281 120.722656 286.011719 C 121.417969 287.328125 121.765625 288.265625 121.765625 288.820312 L 121.714844 289.132812 C 121.089844 289.511719 118.796875 289.253906 114.839844 288.351562 C 110.953125 287.449219 108.664062 286.722656 107.96875 286.167969 L 107.863281 285.230469 C 107.863281 283.394531 108.246094 281.503906 109.011719 279.5625 C 109.773438 277.621094 110.746094 276.390625 111.925781 275.871094 "/>
<path style=" stroke:none;fill-rule:nonzero;fill:rgb(85.882354%,82.352942%,66.274512%);fill-opacity:1;" d="M 108.386719 281.488281 L 109.011719 279.5625 C 109.773438 277.621094 110.746094 276.390625 111.925781 275.871094 C 112.550781 275.976562 113.835938 277.117188 115.777344 279.304688 C 117.894531 281.625 119.542969 283.863281 120.722656 286.011719 C 121.417969 287.328125 121.765625 288.265625 121.765625 288.820312 L 121.714844 289.132812 C 120.949219 289.546875 118.398438 289.21875 114.058594 288.144531 C 113.816406 287.449219 113.175781 286.515625 112.132812 285.335938 L 108.386719 281.488281 "/>
<path style=" stroke:none;fill-rule:nonzero;fill:rgb(5.098039%,7.450981%,10.196079%);fill-opacity:1;" d="M 104.066406 230.835938 C 104.167969 229.519531 106.199219 228.984375 110.15625 229.226562 C 112.445312 229.328125 114.339844 230.074219 115.832031 231.460938 C 117.601562 233.089844 118.503906 235.414062 118.539062 238.429688 C 118.574219 241.0625 118.851562 245.640625 119.371094 252.15625 L 120.308594 260.582031 C 120.515625 262.972656 120.34375 264.308594 119.785156 264.585938 C 119.476562 264.761719 118.972656 264.5 118.277344 263.804688 L 116.871094 262.351562 C 114.269531 259.921875 111.472656 255.675781 108.488281 249.609375 C 104.984375 242.433594 103.457031 236.609375 103.910156 232.136719 L 104.066406 230.835938 "/>
<path style=" stroke:none;fill-rule:nonzero;fill:rgb(100%,95.294118%,76.078433%);fill-opacity:1;" d="M 110.050781 230.578125 C 111.613281 230.613281 113 231.0625 114.214844 231.929688 C 116.160156 233.28125 117.148438 235.449219 117.183594 238.429688 C 117.21875 242.171875 117.496094 246.785156 118.015625 252.261719 L 118.484375 258.96875 L 118.226562 260.738281 L 117.496094 260.21875 C 115.242188 258.105469 112.792969 254.34375 110.15625 248.933594 C 107.171875 242.796875 105.679688 237.613281 105.679688 233.386719 L 105.78125 231.824219 C 105.816406 231.546875 106.214844 231.269531 106.980469 230.992188 L 110.050781 230.578125 "/>
<path style=" stroke:none;fill-rule:nonzero;fill:rgb(85.882354%,82.352942%,66.274512%);fill-opacity:1;" d="M 106.980469 230.992188 L 110.050781 230.578125 C 111.613281 230.613281 113 231.0625 114.214844 231.929688 C 116.160156 233.28125 117.148438 235.449219 117.183594 238.429688 C 117.21875 242.171875 117.496094 246.785156 118.015625 252.261719 L 118.484375 258.96875 L 118.328125 260.53125 C 117.84375 256.996094 117.203125 253.457031 116.402344 249.921875 C 115.5 245.933594 114.703125 243.335938 114.007812 242.121094 C 113.488281 241.253906 112.480469 240.335938 110.988281 239.367188 C 109.53125 238.394531 107.863281 237.546875 105.992188 236.816406 C 105.78125 235.640625 105.679688 234.496094 105.679688 233.386719 L 105.78125 231.824219 C 105.816406 231.546875 106.214844 231.269531 106.980469 230.992188 "/>
<path style=" stroke:none;fill-rule:nonzero;fill:rgb(90.588236%,21.960784%,12.54902%);fill-opacity:1;" d="M 160.8125 146.488281 C 155.015625 149.992188 150.035156 153.058594 145.871094 155.695312 C 137.921875 160.753906 133.078125 164.292969 131.34375 166.300781 C 130.582031 169.492188 132.175781 177.761719 136.132812 191.109375 C 140.332031 205.21875 142.433594 212.652344 142.433594 213.417969 C 142.433594 218.652344 140.714844 224.007812 137.28125 229.484375 C 132.28125 237.390625 125.304688 240.199219 116.351562 237.910156 L 110.363281 236.039062 C 107.863281 235.171875 105.886719 233.90625 104.429688 232.242188 C 100.265625 227.5625 98.773438 217.871094 99.953125 203.171875 C 100.714844 193.847656 101.546875 186.445312 102.449219 180.96875 C 103.628906 173.824219 105.191406 168.121094 107.136719 163.859375 C 108.941406 159.835938 112.273438 156.285156 117.132812 153.199219 C 119.320312 151.8125 123.136719 149.90625 128.585938 147.476562 C 131.328125 146.300781 134.710938 143.527344 138.738281 139.15625 C 141.792969 135.863281 144.203125 132.867188 145.972656 130.160156 C 147.152344 128.359375 150.050781 126.9375 154.667969 125.898438 L 165.445312 125.53125 C 167.910156 126.261719 168.378906 129.570312 166.851562 135.464844 C 165.359375 141.21875 163.34375 144.894531 160.8125 146.488281 "/>
<path style=" stroke:none;fill-rule:nonzero;fill:rgb(78.431374%,18.039216%,9.803922%);fill-opacity:1;" d="M 134.519531 201.039062 L 134.886719 186.738281 L 139.882812 203.378906 C 141.546875 208.960938 142.398438 212.308594 142.433594 213.417969 C 142.433594 217.578125 141.148438 222.171875 138.582031 227.195312 C 134.9375 234.339844 129.835938 238.136719 123.273438 238.585938 C 128.65625 233.523438 132.054688 225.742188 133.480469 215.238281 C 134 211.527344 134.347656 206.796875 134.519531 201.039062 "/>
<path style=" stroke:none;fill-rule:nonzero;fill:rgb(5.098039%,7.450981%,10.196079%);fill-opacity:1;" d="M 152.535156 124.753906 C 156.351562 123.746094 160.691406 123.714844 165.550781 124.648438 C 166.867188 124.890625 167.457031 125.253906 167.320312 125.742188 C 167.144531 126.226562 166.207031 126.382812 164.507812 126.210938 C 160.828125 125.828125 157.304688 126.121094 153.9375 127.09375 C 150.433594 128.097656 147.917969 129.589844 146.390625 131.566406 C 142.953125 136.003906 140.210938 139.277344 138.164062 141.394531 C 134.972656 144.722656 131.898438 147.027344 128.949219 148.308594 L 127.699219 148.882812 C 122.875 151.03125 119.265625 152.886719 116.871094 154.445312 C 112.601562 157.324219 109.636719 160.582031 107.96875 164.222656 C 104.429688 171.988281 102.070312 184.988281 100.890625 203.222656 C 100.679688 206.207031 100.578125 208.890625 100.578125 211.285156 C 100.578125 220.402344 101.964844 226.867188 104.742188 230.679688 C 106.371094 232.898438 109.289062 234.667969 113.488281 235.984375 L 116.558594 237.027344 C 122.496094 238.515625 127.542969 237.648438 131.710938 234.425781 C 134.972656 231.894531 137.539062 228.097656 139.414062 223.035156 C 140.800781 219.222656 141.496094 216.015625 141.496094 213.417969 C 141.496094 212.445312 140.230469 207.75 137.695312 199.324219 C 132.386719 181.988281 129.972656 170.914062 130.460938 166.09375 C 130.738281 163.597656 131.171875 162.542969 131.761719 162.921875 C 132.074219 163.128906 132.351562 163.582031 132.59375 164.273438 C 134.433594 162.195312 139.085938 158.796875 146.546875 154.082031 C 152.691406 150.164062 157.011719 147.582031 159.511719 146.332031 C 161.035156 145.570312 161.921875 145.3125 162.164062 145.554688 C 162.40625 145.796875 161.835938 146.578125 160.445312 147.894531 L 147.277344 156.527344 C 139.398438 161.484375 134.605469 164.882812 132.90625 166.71875 C 132.871094 169.421875 133.617188 174.257812 135.144531 181.226562 C 136.566406 187.570312 138.148438 193.570312 139.882812 199.21875 L 142.796875 208.996094 C 143.699219 212.082031 144.152344 214.039062 144.152344 214.871094 C 144.152344 217.472656 143.300781 220.714844 141.601562 224.597656 C 139.414062 229.484375 136.550781 233.316406 133.011719 236.089844 C 128.464844 239.625 122.824219 240.527344 116.089844 238.792969 L 110.988281 237.753906 C 106.164062 236.261719 102.9375 234.097656 101.304688 231.253906 C 98.527344 226.332031 97.574219 217.300781 98.441406 204.160156 C 99.136719 193.792969 99.953125 185.648438 100.890625 179.71875 C 101.964844 172.855469 103.386719 167.480469 105.15625 163.597656 C 106.929688 159.714844 110.242188 156.230469 115.101562 153.144531 C 117.460938 151.621094 121.417969 149.644531 126.972656 147.21875 L 128.222656 146.699219 C 131.96875 144.824219 135.40625 141.863281 138.527344 137.804688 L 144.101562 129.847656 C 146.21875 127.386719 149.027344 125.6875 152.535156 124.753906 "/>
<path style=" stroke:none;fill-rule:nonzero;fill:rgb(5.098039%,7.450981%,10.196079%);fill-opacity:1;" d="M 138.269531 216.796875 C 140.179688 213.710938 141.6875 212.410156 142.796875 212.898438 C 144.117188 213.453125 145.296875 214.714844 146.339844 216.691406 C 147.207031 218.355469 147.867188 220.296875 148.316406 222.515625 C 150.226562 232.292969 150.347656 239.523438 148.679688 244.203125 L 147.121094 247.53125 C 146.460938 248.535156 145.9375 249.003906 145.558594 248.933594 C 145.105469 248.863281 144.585938 248.085938 143.996094 246.59375 L 142.539062 242.796875 C 140.488281 237.875 137.851562 233.679688 134.625 230.214844 L 134.15625 229.953125 C 133.289062 229.226562 133.480469 227.214844 134.730469 223.921875 C 135.699219 221.320312 136.878906 218.945312 138.269531 216.796875 "/>
<path style=" stroke:none;fill-rule:nonzero;fill:rgb(100%,95.294118%,76.078433%);fill-opacity:1;" d="M 135.457031 228.183594 C 135.457031 227.007812 135.925781 225.1875 136.863281 222.726562 C 137.871094 220.054688 138.980469 217.90625 140.195312 216.277344 C 141.132812 215.0625 141.792969 214.5625 142.171875 214.769531 C 143.042969 215.148438 143.855469 216.121094 144.621094 217.679688 C 145.382812 219.308594 146.007812 221.371094 146.496094 223.867188 C 147.292969 227.925781 147.621094 232.085938 147.484375 236.347656 C 147.34375 240.476562 146.875 242.9375 146.078125 243.734375 L 145.558594 244.097656 C 145.28125 244.0625 144.777344 243.128906 144.046875 241.289062 L 141.238281 235.464844 C 139.710938 232.933594 137.835938 230.714844 135.613281 228.808594 C 135.507812 228.707031 135.457031 228.496094 135.457031 228.183594 "/>
<path style=" stroke:none;fill-rule:nonzero;fill:rgb(85.882354%,82.352942%,66.274512%);fill-opacity:1;" d="M 142.226562 219.398438 L 143.996094 225.324219 C 144.515625 227.820312 144.863281 230.734375 145.035156 234.0625 C 145.246094 237.425781 145.226562 240.507812 144.984375 243.316406 L 144.046875 241.289062 L 141.238281 235.464844 C 139.710938 232.933594 137.835938 230.714844 135.613281 228.808594 C 135.507812 228.707031 135.457031 228.496094 135.457031 228.183594 C 135.457031 227.007812 135.925781 225.1875 136.863281 222.726562 C 137.871094 220.054688 138.980469 217.90625 140.195312 216.277344 L 140.976562 215.445312 C 141.082031 216.035156 141.496094 217.351562 142.226562 219.398438 "/>
<path style=" stroke:none;fill-rule:nonzero;fill:rgb(5.098039%,7.450981%,10.196079%);fill-opacity:1;" d="M 128.167969 226.886719 C 130.808594 228.617188 132.402344 231.425781 132.957031 235.308594 L 134.9375 247.375 L 137.175781 258.867188 C 137.59375 261.675781 137.4375 263.199219 136.707031 263.441406 C 135.386719 263.894531 131.867188 260.566406 126.136719 253.457031 C 120.65625 246.664062 117.480469 242.085938 116.609375 239.730469 C 113.9375 232.589844 113.609375 227.839844 115.621094 225.480469 C 116.039062 224.960938 116.734375 224.632812 117.703125 224.492188 L 120.359375 224.546875 L 121.503906 224.699219 C 124.351562 225.082031 126.574219 225.808594 128.167969 226.886719 "/>
<path style=" stroke:none;fill-rule:nonzero;fill:rgb(100%,95.294118%,76.078433%);fill-opacity:1;" d="M 133.582031 247.632812 C 134.761719 253.769531 135.351562 257.460938 135.351562 258.710938 L 135.195312 259.644531 C 133.949219 259.160156 131.03125 256.074219 126.449219 250.390625 C 121.800781 244.601562 119.039062 240.527344 118.171875 238.167969 C 117.132812 235.117188 116.609375 232.433594 116.609375 230.109375 C 116.609375 228.480469 116.90625 227.300781 117.496094 226.574219 C 118.050781 225.914062 118.917969 225.6875 120.097656 225.898438 L 121.347656 226.054688 C 124.089844 226.433594 126.121094 227.09375 127.441406 228.027344 C 129.660156 229.625 131.050781 232.414062 131.605469 236.402344 L 133.582031 247.632812 "/>
<path style=" stroke:none;fill-rule:nonzero;fill:rgb(85.882354%,82.352942%,66.274512%);fill-opacity:1;" d="M 130.042969 241.339844 C 129.28125 238.289062 129.210938 234.753906 129.835938 230.734375 C 130.667969 232.257812 131.257812 234.148438 131.605469 236.402344 L 133.582031 247.632812 C 134.761719 253.769531 135.351562 257.460938 135.351562 258.710938 L 135.195312 259.644531 L 134.832031 259.4375 L 132.175781 249.402344 L 130.042969 241.339844 "/>
<path style=" stroke:none;fill-rule:nonzero;fill:rgb(100%,100%,100%);fill-opacity:1;" d="M 202.410156 63.652344 C 203.035156 63.824219 203.535156 64.359375 203.917969 65.261719 C 204.265625 66.09375 204.4375 67.082031 204.4375 68.226562 C 204.4375 69.441406 204.160156 70.480469 203.605469 71.347656 C 203.085938 72.214844 202.441406 72.648438 201.679688 72.648438 C 200.917969 72.648438 200.257812 72.214844 199.703125 71.347656 C 199.144531 70.480469 198.867188 69.441406 198.867188 68.226562 C 198.867188 67.429688 199.007812 66.667969 199.285156 65.9375 L 202.410156 63.652344 "/>
</g>
</svg>
