<?xml version="1.0" encoding="UTF-8"?>
<svg xmlns="http://www.w3.org/2000/svg" xmlns:xlink="http://www.w3.org/1999/xlink" width="183px" height="236px" viewBox="0 0 183 236" version="1.1">
<g id="surface1">
<path style=" stroke:none;fill-rule:nonzero;fill:rgb(5.098039%,7.450981%,10.196079%);fill-opacity:1;" d="M 84.640625 40.550781 L 71.976562 39.351562 C 63.398438 38.28125 58.84375 37.164062 58.308594 35.996094 C 57.875 35.09375 57.808594 33.191406 58.109375 30.289062 C 58.375 27.417969 58.792969 25.714844 59.359375 25.183594 C 60.292969 24.28125 64.382812 25.5 71.625 28.835938 C 75.230469 30.503906 78.75 32.257812 82.1875 34.09375 L 71.625 21.976562 C 64.582031 13.667969 61.042969 8.960938 61.011719 7.859375 C 60.976562 6.558594 61.929688 5.089844 63.863281 3.453125 C 65.800781 1.820312 67.453125 1 68.820312 1 C 70.421875 1 73.445312 4.304688 77.882812 10.914062 C 82.621094 17.988281 86.328125 25.117188 88.996094 32.292969 L 87.59375 17.421875 C 86.761719 7.375 86.609375 2.003906 87.144531 1.300781 C 87.8125 0.433594 89.265625 0.132812 91.5 0.402344 C 93.636719 0.632812 95.089844 1.167969 95.855469 2.003906 C 96.421875 2.601562 96.421875 8.960938 95.855469 21.078125 L 94.804688 39.050781 L 84.640625 40.550781 "/>
<path style=" stroke:none;fill-rule:nonzero;fill:rgb(5.098039%,7.450981%,10.196079%);fill-opacity:1;" d="M 146.320312 235.347656 C 144.25 235.78125 141.144531 234.714844 137.007812 232.144531 L 131.449219 228.140625 L 123.390625 231.894531 C 117.683594 234.230469 113.960938 235.082031 112.226562 234.449219 C 111.226562 234.082031 110.808594 231.996094 110.976562 228.191406 C 111.140625 224.652344 111.691406 221.28125 112.625 218.078125 L 149.925781 205.410156 C 155.097656 208.382812 160.054688 212.605469 164.792969 218.078125 C 169.765625 223.851562 171.46875 227.722656 169.898438 229.691406 C 168.933594 230.925781 165.527344 230.507812 159.6875 228.441406 L 151.226562 224.9375 L 150.023438 229.890625 C 148.957031 233.261719 147.722656 235.082031 146.320312 235.347656 "/>
<path style=" stroke:none;fill-rule:nonzero;fill:rgb(100%,94.509804%,67.450982%);fill-opacity:1;" d="M 150.726562 220.03125 L 149.324219 226.488281 C 148.289062 230.160156 147.152344 232.179688 145.917969 232.546875 C 144.816406 232.878906 142.597656 232.144531 139.261719 230.34375 C 135.324219 228.207031 132.25 225.519531 130.050781 222.28125 C 129.582031 221.582031 129.214844 221.332031 128.949219 221.53125 C 128.714844 221.730469 128.765625 222.28125 129.097656 223.183594 L 130.199219 225.988281 C 127.964844 227.421875 125.257812 228.789062 122.089844 230.09375 C 118.417969 231.59375 115.996094 232.113281 114.828125 231.644531 C 113.929688 231.3125 113.578125 229.292969 113.777344 225.585938 C 113.980469 222.117188 114.496094 218.929688 115.332031 216.023438 L 146.519531 206.261719 C 151.058594 208.230469 155.914062 212.054688 161.089844 217.726562 C 166.027344 223.167969 168.015625 226.453125 167.046875 227.589844 C 166.613281 228.054688 164.492188 227.605469 160.6875 226.238281 C 156.851562 224.871094 153.828125 223.484375 151.625 222.082031 L 151.675781 220.480469 C 151.675781 219.746094 151.578125 219.277344 151.375 219.078125 C 151.140625 218.84375 150.925781 219.160156 150.726562 220.03125 "/>
<path style=" stroke:none;fill-rule:nonzero;fill:rgb(86.274511%,81.568629%,58.823532%);fill-opacity:1;" d="M 134.054688 218.726562 C 130.714844 219.761719 126.378906 220.78125 121.039062 221.78125 L 113.980469 222.984375 L 114.429688 218.425781 L 147.722656 206.210938 L 152.175781 209.714844 L 145.769531 213.421875 C 140.894531 216.058594 136.992188 217.828125 134.054688 218.726562 "/>
<path style=" stroke:none;fill-rule:nonzero;fill:rgb(5.098039%,7.450981%,10.196079%);fill-opacity:1;" d="M 83.589844 216.875 C 86.160156 221.28125 87.960938 224.753906 88.996094 227.289062 C 90.664062 231.328125 90.816406 233.679688 89.449219 234.347656 C 87.746094 235.148438 83.972656 234.214844 78.132812 231.542969 L 69.871094 227.289062 L 64.816406 231.59375 C 61.113281 234.464844 58.441406 235.832031 56.804688 235.699219 C 55.238281 235.566406 53.769531 234.046875 52.398438 231.144531 L 50.847656 226.839844 L 40.386719 229.089844 L 28.269531 229.441406 C 26.902344 227.871094 29.320312 224.183594 35.527344 218.378906 C 41.636719 212.738281 47.242188 208.796875 52.351562 206.5625 L 83.589844 216.875 "/>
<path style=" stroke:none;fill-rule:nonzero;fill:rgb(100%,94.509804%,67.450982%);fill-opacity:1;" d="M 85.691406 225.035156 C 87.328125 228.972656 87.746094 231.195312 86.945312 231.695312 C 86.144531 232.195312 83.839844 231.59375 80.035156 229.890625 C 76.230469 228.222656 73.394531 226.570312 71.523438 224.9375 L 72.125 223.035156 C 72.292969 222.300781 72.207031 221.898438 71.875 221.832031 C 71.542969 221.765625 71.207031 222.015625 70.875 222.582031 C 69.671875 224.519531 67.351562 226.722656 63.914062 229.191406 C 60.476562 231.695312 58.109375 232.847656 56.804688 232.644531 C 54.535156 232.3125 52.765625 228.957031 51.5 222.582031 C 51.367188 221.914062 51.183594 221.613281 50.949219 221.683594 C 50.75 221.75 50.613281 222.164062 50.546875 222.933594 L 50.648438 224.183594 C 47.476562 225.285156 43.589844 226.1875 38.984375 226.886719 L 31.722656 227.1875 C 31.222656 226.222656 33.542969 223.351562 38.683594 218.578125 C 44.457031 213.171875 50.28125 209.28125 56.15625 206.914062 L 80.484375 215.023438 C 82.488281 218.128906 84.222656 221.464844 85.691406 225.035156 "/>
<path style=" stroke:none;fill-rule:nonzero;fill:rgb(86.274511%,81.568629%,58.823532%);fill-opacity:1;" d="M 63.816406 217.476562 C 60.910156 216.441406 57.757812 214.875 54.351562 212.769531 L 50.097656 209.867188 L 53.800781 207.8125 L 81.886719 216.875 L 84.441406 222.132812 L 77.832031 221.082031 C 72.59375 220.113281 67.921875 218.910156 63.816406 217.476562 "/>
<path style=" stroke:none;fill-rule:nonzero;fill:rgb(5.098039%,7.450981%,10.196079%);fill-opacity:1;" d="M 13.5 187.738281 C 8.996094 183.867188 5.640625 180.128906 3.4375 176.523438 C 1.203125 172.953125 0.71875 170.535156 1.984375 169.265625 C 4.054688 167.164062 8.160156 167.746094 14.300781 171.015625 C 18.039062 173.019531 20.507812 174.253906 21.710938 174.722656 C 24.515625 175.855469 26.851562 176.242188 28.71875 175.875 L 29.570312 179.777344 C 30.605469 183.117188 32.308594 186.570312 34.679688 190.140625 C 37.046875 193.714844 40.167969 197.132812 44.039062 200.40625 C 45.976562 202.039062 47.675781 203.308594 49.144531 204.210938 C 36.832031 203.140625 24.949219 197.652344 13.5 187.738281 "/>
<path style=" stroke:none;fill-rule:nonzero;fill:rgb(97.647059%,74.509805%,0%);fill-opacity:1;" d="M 16.804688 186.835938 C 12.367188 183.265625 8.863281 179.894531 6.292969 176.726562 C 3.753906 173.519531 2.902344 171.453125 3.738281 170.515625 C 4.539062 169.582031 5.992188 169.515625 8.09375 170.316406 C 9.195312 170.75 11.515625 171.953125 15.054688 173.921875 C 22.460938 178.058594 28.167969 179.878906 32.175781 179.378906 L 47.746094 201.957031 C 38.398438 200.921875 28.085938 195.882812 16.804688 186.835938 "/>
<path style=" stroke:none;fill-rule:nonzero;fill:rgb(84.313726%,64.313728%,0%);fill-opacity:1;" d="M 24.816406 192.796875 C 17.105469 187.957031 11.480469 183.234375 7.945312 178.628906 C 16.789062 186.539062 25.25 191.59375 33.324219 193.796875 C 37.332031 194.898438 40.46875 195.214844 42.738281 194.746094 L 47.746094 201.957031 C 41.070312 201.222656 33.425781 198.167969 24.816406 192.796875 "/>
<path style=" stroke:none;fill-rule:nonzero;fill:rgb(5.098039%,7.450981%,10.196079%);fill-opacity:1;" d="M 169.148438 64.632812 C 174.621094 71.171875 178.226562 78.300781 179.960938 86.007812 C 181.929688 94.789062 181.3125 104.117188 178.109375 113.996094 C 174.804688 124.109375 169.683594 131.949219 162.742188 137.523438 L 136.605469 105.734375 C 138.609375 103.398438 140.460938 100.378906 142.164062 96.671875 C 145.535156 89.296875 146.488281 82.203125 145.019531 75.394531 C 143.683594 69.320312 141.347656 63.195312 138.007812 57.023438 C 135.539062 52.515625 134.539062 50.03125 135.003906 49.5625 C 135.640625 48.929688 136.65625 48.710938 138.058594 48.914062 L 139.960938 49.460938 L 139.359375 47.910156 C 139.128906 46.777344 139.410156 45.910156 140.210938 45.308594 L 144.816406 45.207031 L 148.023438 46.160156 C 148.121094 45.492188 148.320312 44.824219 148.621094 44.15625 C 149.191406 42.820312 149.925781 42.121094 150.824219 42.054688 C 152.394531 41.921875 153.980469 43.15625 155.582031 45.757812 L 160.289062 54.96875 C 160.855469 56.070312 163.808594 59.292969 169.148438 64.632812 "/>
<path style=" stroke:none;fill-rule:nonzero;fill:rgb(97.647059%,74.509805%,0%);fill-opacity:1;" d="M 166.894531 65.734375 C 172.769531 73.210938 176.191406 80.585938 177.160156 87.863281 C 178.492188 97.507812 177.910156 106.25 175.40625 114.09375 C 172.835938 122.207031 168.28125 129.179688 161.738281 135.023438 L 139.660156 107.886719 C 141.628906 105.148438 143.464844 101.8125 145.167969 97.875 C 148.574219 89.964844 149.605469 82.9375 148.273438 76.796875 C 147.003906 71.023438 144.835938 65.234375 141.765625 59.425781 C 139.328125 54.820312 138.160156 52.449219 138.257812 52.316406 C 138.691406 51.75 139.542969 51.632812 140.8125 51.964844 C 141.445312 52.132812 142.046875 52.367188 142.613281 52.667969 C 142.28125 51.964844 142.03125 51.199219 141.863281 50.363281 C 141.496094 48.730469 141.679688 47.644531 142.414062 47.109375 C 143.117188 46.574219 144.535156 46.710938 146.671875 47.511719 L 149.625 48.8125 L 149.675781 46.808594 C 149.839844 45.472656 150.15625 44.707031 150.625 44.507812 C 151.425781 44.207031 152.578125 45.289062 154.078125 47.761719 C 155.3125 49.828125 156.597656 52.484375 157.933594 55.722656 L 160.839844 58.875 C 163.207031 61.3125 165.226562 63.597656 166.894531 65.734375 "/>
<path style=" stroke:none;fill-rule:nonzero;fill:rgb(5.098039%,7.450981%,10.196079%);fill-opacity:1;" d="M 173.203125 169.867188 C 173.070312 184.75 165.859375 196.851562 151.578125 206.160156 C 137.691406 215.273438 120.320312 219.710938 99.460938 219.480469 C 78.332031 219.246094 60.777344 214.1875 46.792969 204.308594 C 32.875 194.53125 25.984375 182.464844 26.117188 168.113281 C 26.183594 160.46875 28.167969 152.011719 32.074219 142.730469 C 36.011719 133.320312 41.285156 124.558594 47.894531 116.449219 C 55.035156 107.703125 62.863281 100.863281 71.375 95.921875 C 80.851562 90.414062 90.464844 87.710938 100.210938 87.8125 C 110.089844 87.910156 119.769531 90.964844 129.246094 96.972656 C 137.691406 102.28125 145.433594 109.523438 152.476562 118.699219 C 158.886719 127.042969 163.992188 135.972656 167.796875 145.484375 C 171.46875 154.730469 173.269531 162.855469 173.203125 169.867188 "/>
<path style=" stroke:none;fill-rule:nonzero;fill:rgb(97.647059%,74.509805%,0%);fill-opacity:1;" d="M 170.25 169.214844 C 170.117188 183.398438 163.207031 195.03125 149.523438 204.109375 C 136.105469 213.019531 119.503906 217.359375 99.710938 217.125 C 79.886719 216.925781 63.214844 212.21875 49.695312 203.007812 C 35.847656 193.597656 28.988281 181.816406 29.121094 167.664062 C 29.1875 160.421875 31.125 152.378906 34.929688 143.53125 C 38.734375 134.621094 43.855469 126.292969 50.296875 118.550781 C 57.207031 110.273438 64.75 103.78125 72.925781 99.074219 C 82.003906 93.835938 91.183594 91.265625 100.460938 91.367188 C 109.738281 91.464844 118.867188 94.238281 127.847656 99.675781 C 135.921875 104.550781 143.332031 111.207031 150.074219 119.652344 C 156.347656 127.527344 161.304688 135.972656 164.941406 144.984375 C 168.546875 153.894531 170.316406 161.972656 170.25 169.214844 "/>
<path style=" stroke:none;fill-rule:nonzero;fill:rgb(84.313726%,64.313728%,0%);fill-opacity:1;" d="M 107.167969 92.566406 L 111.226562 92.71875 C 119.9375 94.789062 128.347656 99.144531 136.457031 105.785156 C 143.800781 111.792969 150.308594 119.152344 155.980469 127.863281 L 156.03125 129.464844 C 156.03125 139.644531 151.257812 148.339844 141.714844 155.546875 C 132.167969 162.757812 120.652344 166.363281 107.167969 166.363281 C 93.6875 166.363281 82.171875 162.757812 72.625 155.546875 C 63.113281 148.339844 58.359375 139.644531 58.359375 129.464844 C 58.359375 119.285156 63.113281 110.589844 72.625 103.382812 C 82.171875 96.171875 93.6875 92.566406 107.167969 92.566406 "/>
<path style=" stroke:none;fill-rule:nonzero;fill:rgb(84.313726%,64.313728%,0%);fill-opacity:1;" d="M 92.152344 210.566406 C 105.167969 211.871094 118.066406 211.117188 130.851562 208.316406 C 143 205.679688 152.175781 201.875 158.386719 196.898438 C 152.042969 203.441406 143.75 208.5 133.503906 212.070312 C 123.15625 215.707031 111.875 217.441406 99.660156 217.277344 C 79.800781 217.074219 63.128906 212.386719 49.648438 203.207031 C 35.796875 193.761719 28.9375 181.964844 29.070312 167.8125 C 33.710938 180.964844 42.085938 191.261719 54.203125 198.703125 C 64.75 205.144531 77.398438 209.097656 92.152344 210.566406 "/>
<path style=" stroke:none;fill-rule:nonzero;fill:rgb(5.098039%,7.450981%,10.196079%);fill-opacity:1;" d="M 92 35.84375 C 111.191406 34.777344 127.527344 38.664062 141.011719 47.511719 C 153.761719 55.921875 160.703125 66.417969 161.839844 79 C 163.039062 92.25 157.816406 103.597656 146.167969 113.042969 C 134.589844 122.457031 119.433594 127.695312 100.710938 128.765625 C 81.855469 129.796875 65.75 126.425781 52.398438 118.652344 C 38.917969 110.742188 31.574219 100.195312 30.371094 87.011719 C 29.171875 73.695312 34.476562 62.09375 46.292969 52.214844 C 58.140625 42.335938 73.378906 36.878906 92 35.84375 "/>
<path style=" stroke:none;fill-rule:nonzero;fill:rgb(97.647059%,74.509805%,0%);fill-opacity:1;" d="M 92.300781 37.949219 C 109.691406 36.980469 124.941406 40.535156 138.058594 48.613281 C 151.140625 56.6875 158.25 66.917969 159.386719 79.300781 C 160.488281 91.683594 155.28125 102.582031 143.765625 111.992188 C 132.25 121.4375 117.800781 126.644531 100.410156 127.613281 C 82.988281 128.582031 67.738281 125.027344 54.652344 116.949219 C 41.535156 108.871094 34.425781 98.640625 33.324219 86.257812 C 32.191406 73.878906 37.398438 62.980469 48.945312 53.566406 C 60.460938 44.121094 74.914062 38.917969 92.300781 37.949219 "/>
<path style=" stroke:none;fill-rule:nonzero;fill:rgb(5.098039%,7.450981%,10.196079%);fill-opacity:1;" d="M 41.835938 63.980469 L 41.886719 66.183594 L 43.390625 65.382812 C 44.558594 64.914062 45.542969 64.914062 46.34375 65.382812 C 47.144531 65.816406 47.242188 67.601562 46.644531 70.738281 C 45.773438 75.246094 45.375 78.582031 45.441406 80.753906 C 45.609375 85.824219 46.140625 92.066406 47.042969 99.476562 C 47.746094 105.316406 48.527344 110.691406 49.394531 115.597656 C 51 125.007812 51.097656 132.902344 49.695312 139.277344 C 48.664062 144.148438 46.808594 147.886719 44.140625 150.492188 L 39.683594 153.394531 L 34.929688 155.449219 C 30.621094 156.617188 26.785156 156.316406 23.414062 154.546875 C 17.804688 151.574219 14.050781 146.570312 12.148438 139.527344 C 10.414062 133.085938 10.078125 124.273438 11.148438 113.09375 C 11.914062 104.816406 14.25 96.472656 18.15625 88.0625 C 21.960938 81.054688 23.929688 77.113281 24.0625 76.246094 C 24.898438 71.242188 25.550781 67.820312 26.015625 65.984375 C 26.816406 62.914062 27.984375 61.226562 29.519531 60.925781 C 30.421875 60.726562 31.324219 61.328125 32.226562 62.730469 L 33.324219 64.832031 C 34.09375 64.097656 34.945312 63.378906 35.878906 62.679688 C 37.78125 61.3125 39.183594 60.792969 40.085938 61.128906 C 41.019531 61.460938 41.601562 62.414062 41.835938 63.980469 "/>
<path style=" stroke:none;fill-rule:nonzero;fill:rgb(97.647059%,74.509805%,0%);fill-opacity:1;" d="M 32.523438 67.585938 L 35.027344 65.535156 C 36.832031 64.199219 38.148438 63.679688 38.984375 63.980469 C 39.816406 64.28125 40.285156 65.28125 40.386719 66.984375 L 40.285156 69.386719 C 40.753906 68.953125 41.269531 68.570312 41.835938 68.238281 C 42.972656 67.570312 43.824219 67.453125 44.390625 67.886719 C 44.589844 68.054688 44.539062 69.472656 44.238281 72.140625 L 43.4375 79.25 C 43.371094 80.71875 43.621094 85.292969 44.191406 92.96875 C 44.855469 101.945312 45.609375 108.90625 46.441406 113.84375 C 48.042969 123.355469 48.460938 130.75 47.695312 136.023438 C 47.160156 139.695312 45.660156 143.582031 43.1875 147.6875 C 42.019531 149.289062 41.535156 150.457031 41.738281 151.191406 C 41.902344 152.058594 43.105469 151.644531 45.339844 149.941406 L 44.238281 151.34375 C 43.207031 152.476562 41.902344 153.476562 40.335938 154.347656 C 37.796875 155.714844 35.695312 156.414062 34.027344 156.449219 C 36.796875 155.582031 37.847656 154.746094 37.179688 153.945312 C 36.511719 153.179688 35.09375 152.960938 32.925781 153.292969 C 26.351562 154.363281 21.3125 151.792969 17.804688 145.585938 C 13.933594 138.710938 12.617188 128.328125 13.851562 114.445312 C 14.585938 105.835938 16.871094 97.089844 20.710938 88.210938 C 24.449219 80.9375 26.332031 77.03125 26.367188 76.496094 C 26.769531 73.058594 27.300781 70.15625 27.96875 67.785156 C 28.738281 64.984375 29.539062 63.613281 30.371094 63.679688 C 31.207031 63.78125 31.925781 65.082031 32.523438 67.585938 "/>
<path style=" stroke:none;fill-rule:nonzero;fill:rgb(5.098039%,7.450981%,10.196079%);fill-opacity:1;" d="M 105.21875 87.910156 C 107.652344 87.710938 110.757812 88.847656 114.527344 91.316406 C 119.136719 94.285156 122.40625 96.054688 124.339844 96.621094 C 126.746094 97.324219 130.164062 97.691406 134.605469 97.722656 C 138.175781 97.757812 140.363281 98.140625 141.164062 98.875 C 142.03125 99.675781 142.5 101.328125 142.566406 103.832031 C 142.664062 106.601562 143.183594 108.671875 144.117188 110.039062 L 147.519531 112.691406 C 149.859375 114.296875 151.726562 115.765625 153.128906 117.097656 C 158.167969 121.90625 160.4375 127.546875 159.9375 134.019531 C 159.46875 140.5625 154.53125 146.21875 145.117188 150.992188 C 135.039062 156.097656 122.824219 158.46875 108.472656 158.101562 C 92.785156 157.734375 80.804688 155.78125 72.527344 152.242188 C 62.578125 147.972656 57.808594 141.378906 58.207031 132.46875 C 58.339844 129.699219 58.875 126.5625 59.808594 123.054688 C 60.675781 119.984375 61.0625 117.832031 60.960938 116.597656 C 60.894531 115.53125 60.394531 114.0625 59.460938 112.191406 C 58.757812 110.824219 58.691406 109.539062 59.257812 108.335938 C 60.261719 106.269531 63.582031 104.898438 69.222656 104.234375 C 76.597656 103.398438 81.554688 102.398438 84.089844 101.230469 C 86.09375 100.292969 89.863281 97.707031 95.40625 93.46875 C 100.011719 89.898438 103.28125 88.046875 105.21875 87.910156 "/>
<path style=" stroke:none;fill-rule:nonzero;fill:rgb(100%,94.509804%,67.450982%);fill-opacity:1;" d="M 106.117188 90.113281 C 108.355469 89.980469 111.023438 91.117188 114.128906 93.519531 C 117.867188 96.355469 120.6875 98.058594 122.589844 98.625 C 124.757812 99.257812 128.097656 99.675781 132.601562 99.878906 C 136.238281 100.011719 138.441406 100.425781 139.210938 101.128906 C 140.011719 101.863281 140.480469 103.464844 140.613281 105.933594 C 140.746094 108.636719 141.246094 110.605469 142.113281 111.84375 C 142.914062 112.976562 145.734375 114.980469 150.574219 117.851562 C 155.015625 121.488281 157.21875 126.3125 157.183594 132.316406 C 157.148438 136.757812 154.597656 140.929688 149.523438 144.835938 C 145.585938 147.90625 140.5625 150.523438 134.453125 152.695312 C 131.953125 153.59375 128.113281 154.378906 122.941406 155.046875 L 104.71875 155.949219 C 97.839844 155.679688 90.847656 154.714844 83.738281 153.042969 C 77.367188 151.574219 72.910156 150.074219 70.375 148.539062 C 67.167969 146.601562 64.867188 144.535156 63.464844 142.332031 C 61.660156 139.5625 60.859375 136.039062 61.0625 131.765625 C 61.160156 129.332031 61.59375 126.34375 62.363281 122.804688 C 62.996094 119.769531 63.265625 117.667969 63.164062 116.5 C 63.097656 115.597656 62.695312 114.328125 61.960938 112.691406 C 61.429688 111.558594 61.429688 110.441406 61.960938 109.339844 C 62.597656 108.003906 65.851562 106.917969 71.726562 106.085938 C 78.800781 105.117188 83.507812 104.03125 85.84375 102.832031 L 96.257812 95.621094 C 101.164062 92.050781 104.449219 90.214844 106.117188 90.113281 "/>
<path style=" stroke:none;fill-rule:nonzero;fill:rgb(5.098039%,7.450981%,10.196079%);fill-opacity:1;" d="M 96.808594 99.125 C 97.609375 99.425781 98.425781 99.976562 99.261719 100.777344 C 100.09375 101.613281 100.679688 102.480469 101.011719 103.382812 C 101.378906 104.28125 101.328125 104.832031 100.863281 105.035156 C 100.394531 105.199219 99.878906 104.898438 99.308594 104.132812 L 97.90625 102.230469 L 95.65625 100.878906 C 94.6875 100.277344 94.46875 99.726562 95.003906 99.226562 L 96.808594 99.125 "/>
<path style=" stroke:none;fill-rule:nonzero;fill:rgb(5.098039%,7.450981%,10.196079%);fill-opacity:1;" d="M 114.628906 102.078125 L 113.726562 103.480469 C 113.328125 104.050781 112.878906 104.234375 112.375 104.03125 C 112.042969 103.933594 111.960938 103.566406 112.125 102.929688 C 112.257812 102.296875 112.558594 101.679688 113.027344 101.078125 C 113.460938 100.476562 113.945312 100.042969 114.480469 99.777344 L 115.628906 99.675781 C 116.066406 99.945312 116.082031 100.34375 115.679688 100.878906 L 114.628906 102.078125 "/>
<path style=" stroke:none;fill-rule:nonzero;fill:rgb(86.274511%,81.568629%,58.823532%);fill-opacity:1;" d="M 67.921875 142.230469 C 70.757812 144.800781 76.613281 147.035156 85.492188 148.9375 C 94.703125 150.910156 104.199219 151.859375 113.980469 151.792969 C 125.160156 151.726562 134.421875 150.273438 141.765625 147.4375 C 150.410156 144.101562 155.582031 139.109375 157.285156 132.46875 C 157.25 136.90625 154.695312 141.078125 149.625 144.984375 C 145.652344 148.054688 140.628906 150.675781 134.554688 152.84375 C 132.019531 153.746094 128.164062 154.53125 122.988281 155.199219 L 104.765625 156.097656 C 97.890625 155.832031 90.898438 154.863281 83.789062 153.195312 C 77.414062 151.726562 72.960938 150.222656 70.421875 148.6875 C 67.1875 146.71875 64.867188 144.667969 63.464844 142.53125 C 61.628906 139.761719 60.792969 136.238281 60.960938 131.96875 C 61.09375 129.199219 61.378906 126.945312 61.8125 125.210938 L 62.8125 120.804688 L 62.363281 128.765625 C 62.730469 134.671875 64.582031 139.160156 67.921875 142.230469 "/>
<path style=" stroke:none;fill-rule:nonzero;fill:rgb(5.098039%,7.450981%,10.196079%);fill-opacity:1;" d="M 116.082031 84.957031 C 112.675781 81.71875 111.257812 78.214844 111.824219 74.445312 C 112.394531 70.671875 114.796875 67.769531 119.035156 65.734375 C 123.273438 63.664062 128.113281 63.046875 133.554688 63.882812 C 138.960938 64.714844 143.382812 66.75 146.820312 69.988281 C 150.226562 73.261719 151.644531 76.765625 151.074219 80.503906 C 150.507812 84.273438 148.105469 87.195312 143.867188 89.261719 C 139.628906 91.332031 134.789062 91.933594 129.347656 91.066406 C 123.941406 90.230469 119.519531 88.195312 116.082031 84.957031 "/>
<path style=" stroke:none;fill-rule:nonzero;fill:rgb(100%,100%,100%);fill-opacity:1;" d="M 117.785156 84.058594 C 114.710938 81.285156 113.445312 78.265625 113.980469 74.996094 C 114.511719 71.722656 116.683594 69.1875 120.488281 67.386719 C 124.324219 65.582031 128.679688 65.03125 133.554688 65.734375 C 138.425781 66.433594 142.398438 68.1875 145.46875 70.992188 C 148.539062 73.792969 149.789062 76.8125 149.222656 80.050781 C 148.6875 83.324219 146.519531 85.859375 142.714844 87.660156 C 138.875 89.464844 134.519531 90.015625 129.648438 89.3125 C 124.808594 88.613281 120.855469 86.859375 117.785156 84.058594 "/>
<path style=" stroke:none;fill-rule:nonzero;fill:rgb(5.098039%,7.450981%,10.196079%);fill-opacity:1;" d="M 127.046875 78.648438 C 126.511719 78.683594 126.042969 78.515625 125.644531 78.148438 C 125.242188 77.78125 125.027344 77.316406 124.992188 76.746094 C 124.960938 76.214844 125.125 75.746094 125.492188 75.347656 C 125.859375 74.945312 126.328125 74.726562 126.894531 74.695312 C 127.429688 74.660156 127.894531 74.828125 128.296875 75.195312 C 128.699219 75.5625 128.914062 76.03125 128.949219 76.597656 C 128.980469 77.132812 128.8125 77.597656 128.445312 78 C 128.078125 78.398438 127.613281 78.617188 127.046875 78.648438 "/>
<path style=" stroke:none;fill-rule:nonzero;fill:rgb(5.098039%,7.450981%,10.196079%);fill-opacity:1;" d="M 89.699219 87.910156 C 85.824219 91.550781 80.835938 93.800781 74.730469 94.671875 C 68.652344 95.539062 63.246094 94.804688 58.507812 92.46875 C 53.769531 90.097656 51.097656 86.792969 50.496094 82.554688 C 49.898438 78.316406 51.53125 74.394531 55.402344 70.789062 C 59.277344 67.183594 64.25 64.949219 70.324219 64.082031 C 76.398438 63.214844 81.804688 63.964844 86.542969 66.335938 C 91.28125 68.671875 93.96875 71.957031 94.605469 76.195312 C 95.203125 80.402344 93.570312 84.308594 89.699219 87.910156 "/>
<path style=" stroke:none;fill-rule:nonzero;fill:rgb(100%,100%,100%);fill-opacity:1;" d="M 88.046875 86.859375 C 84.574219 89.996094 80.117188 91.949219 74.679688 92.71875 C 69.238281 93.484375 64.398438 92.835938 60.160156 90.765625 C 55.953125 88.730469 53.570312 85.875 53 82.203125 C 52.46875 78.53125 53.917969 75.144531 57.355469 72.042969 C 60.828125 68.902344 65.285156 66.953125 70.722656 66.183594 C 76.164062 65.417969 81.003906 66.050781 85.242188 68.085938 C 89.480469 70.15625 91.867188 73.027344 92.402344 76.699219 C 92.96875 80.335938 91.515625 83.722656 88.046875 86.859375 "/>
<path style=" stroke:none;fill-rule:nonzero;fill:rgb(5.098039%,7.450981%,10.196079%);fill-opacity:1;" d="M 75.128906 80.652344 C 74.59375 80.71875 74.109375 80.570312 73.675781 80.203125 C 73.277344 79.835938 73.042969 79.382812 72.976562 78.851562 C 72.941406 78.316406 73.09375 77.832031 73.425781 77.398438 C 73.792969 76.996094 74.246094 76.765625 74.777344 76.699219 C 75.347656 76.664062 75.828125 76.8125 76.230469 77.148438 C 76.664062 77.515625 76.898438 77.964844 76.929688 78.5 C 77 79.066406 76.847656 79.550781 76.480469 79.953125 C 76.148438 80.386719 75.695312 80.621094 75.128906 80.652344 "/>
</g>
</svg>
