<?xml version="1.0" encoding="UTF-8"?>
<svg xmlns="http://www.w3.org/2000/svg" xmlns:xlink="http://www.w3.org/1999/xlink" width="190px" height="183px" viewBox="0 0 190 183" version="1.1">
<g id="surface1">
<path style=" stroke:none;fill-rule:nonzero;fill:rgb(51.764709%,79.215688%,74.901962%);fill-opacity:1;" d="M 87.042969 94.394531 C 85.25 93.394531 82.105469 89.289062 77.617188 82.074219 C 73.757812 75.855469 71.199219 71.296875 69.933594 68.40625 C 68.769531 65.8125 67.507812 62.253906 66.144531 57.730469 C 64.515625 52.542969 63.980469 49.730469 64.546875 49.300781 C 65.410156 48.667969 68.003906 48.285156 72.328125 48.152344 L 73.824219 43.113281 C 74.988281 39.722656 75.96875 38.027344 76.769531 38.027344 C 77.566406 38.027344 81.839844 41.167969 89.585938 47.453125 L 100.960938 56.882812 L 103.355469 61.71875 C 105.714844 65.644531 108.757812 69.253906 112.484375 72.542969 L 111.886719 79.429688 C 110.855469 84.515625 108.691406 88.339844 105.398438 90.902344 C 101.609375 93.859375 98.199219 95.574219 95.175781 96.039062 C 92.515625 96.4375 89.804688 95.890625 87.042969 94.394531 "/>
<path style=" stroke:none;fill-rule:nonzero;fill:rgb(51.764709%,79.215688%,74.901962%);fill-opacity:1;" d="M 165.257812 11.886719 C 173.140625 17.507812 177.082031 23.84375 177.082031 30.894531 C 177.082031 32.222656 176.714844 33.320312 175.984375 34.1875 L 174.335938 31.941406 C 171.910156 36.796875 170.695312 41.070312 170.695312 44.761719 C 170.695312 50.179688 171.542969 52.890625 173.238281 52.890625 C 174.003906 52.890625 174.703125 52.527344 175.335938 51.792969 L 176.082031 50.648438 L 177.480469 52.394531 C 178.378906 53.921875 178.828125 55.550781 178.828125 57.28125 C 178.828125 59.042969 178.246094 60.574219 177.082031 61.871094 L 175.335938 63.316406 C 174.269531 68.238281 170.710938 72.792969 164.660156 76.984375 C 158.007812 81.574219 150.609375 83.867188 142.460938 83.867188 C 130.09375 83.867188 119.316406 79.429688 110.140625 70.550781 C 101.226562 61.96875 96.769531 52.292969 96.769531 41.519531 C 96.769531 30.113281 101.226562 20.75 110.140625 13.433594 C 118.320312 6.75 127.8125 3.410156 138.621094 3.410156 C 148.464844 3.410156 157.34375 6.234375 165.257812 11.886719 "/>
<path style=" stroke:none;fill-rule:nonzero;fill:rgb(51.764709%,79.215688%,74.901962%);fill-opacity:1;" d="M 164.011719 78.980469 C 165.609375 79.679688 167.1875 80.441406 168.75 81.273438 C 171.277344 82.636719 174.753906 84.816406 179.175781 87.808594 L 182.367188 87.808594 C 184.53125 87.910156 185.644531 88.191406 185.710938 88.65625 C 185.875 89.355469 185.609375 91.050781 184.910156 93.746094 L 186.757812 94.542969 C 188.019531 95.140625 188.703125 95.671875 188.804688 96.140625 C 188.96875 96.835938 187.707031 98.535156 185.011719 101.226562 C 185.875 102.492188 186.074219 103.636719 185.609375 104.667969 C 185.179688 105.601562 183.066406 106.730469 179.277344 108.0625 C 174.984375 109.523438 170.878906 110.253906 166.953125 110.253906 C 163.363281 110.253906 159.9375 109.757812 156.679688 108.757812 L 152.839844 107.261719 C 153.335938 103.074219 153.503906 98.914062 153.335938 94.792969 C 153.238281 92.230469 152.738281 89.472656 151.839844 86.511719 L 150.492188 82.820312 L 156.878906 80.824219 C 158.007812 80.425781 159.753906 79.546875 162.117188 78.179688 L 164.011719 78.980469 "/>
<path style=" stroke:none;fill-rule:nonzero;fill:rgb(51.764709%,79.215688%,74.901962%);fill-opacity:1;" d="M 75.121094 120.929688 C 76.917969 120.929688 78.996094 121.976562 81.355469 124.074219 C 84.117188 126.5 86.3125 129.675781 87.941406 133.601562 C 91.832031 143.042969 93.097656 149.261719 91.734375 152.257812 C 91.234375 153.421875 89.921875 155.433594 87.792969 158.292969 C 85 162.050781 83.101562 164.710938 82.105469 166.273438 L 75.71875 175.5 C 73.292969 178.828125 71.863281 180.574219 71.429688 180.738281 C 70.898438 180.972656 68.570312 178.992188 64.449219 174.800781 C 57.5625 177.5625 53.957031 178.859375 53.621094 178.695312 C 53.324219 178.558594 52.972656 176.199219 52.574219 171.609375 C 47.1875 168.75 44.460938 166.886719 44.394531 166.023438 C 44.363281 165.492188 45.542969 164.144531 47.9375 161.984375 L 51.527344 158.890625 C 51.761719 156.164062 52.210938 153.105469 52.875 149.710938 C 54.238281 142.894531 56.082031 137.773438 58.410156 134.347656 C 64.429688 125.402344 70 120.929688 75.121094 120.929688 "/>
<path style=" stroke:none;fill-rule:nonzero;fill:rgb(51.764709%,79.215688%,74.901962%);fill-opacity:1;" d="M 131.988281 144.074219 C 134.746094 142.28125 137.722656 139.371094 140.917969 135.347656 L 144.90625 129.808594 L 150.09375 134.648438 C 153.519531 138.703125 155.230469 142.828125 155.230469 147.019531 C 155.230469 149.976562 155 152.390625 154.535156 154.25 L 153.785156 156.148438 L 157.875 158.191406 C 160.535156 159.65625 161.785156 160.6875 161.617188 161.285156 C 161.484375 161.949219 160.1875 163.113281 157.726562 164.777344 C 157.527344 164.910156 157.675781 165.175781 158.175781 165.574219 C 158.675781 166.007812 158.789062 166.304688 158.523438 166.472656 C 155.097656 168.535156 150.476562 170.597656 144.65625 172.65625 C 139.136719 174.652344 135.695312 175.566406 134.332031 175.402344 C 133.46875 175.300781 131.703125 173.574219 129.042969 170.214844 C 126.683594 167.21875 125.253906 165.175781 124.753906 164.078125 C 124.457031 163.445312 122.292969 161.417969 118.269531 157.992188 L 112.285156 153.054688 C 120.964844 149.894531 127.53125 146.902344 131.988281 144.074219 "/>
<path style=" stroke:none;fill-rule:nonzero;fill:rgb(51.764709%,79.215688%,74.901962%);fill-opacity:1;" d="M 2.394531 94.84375 C 2.394531 85.796875 5.371094 78.332031 11.324219 72.445312 C 16.976562 66.824219 23.761719 64.015625 31.675781 64.015625 C 38.792969 64.015625 44.476562 66.527344 48.734375 71.546875 C 53.15625 76.734375 55.367188 83.917969 55.367188 93.097656 L 54.421875 102.722656 C 53.789062 108.144531 53.472656 112.75 53.472656 116.539062 C 53.472656 120.699219 54.40625 124.769531 56.265625 128.761719 C 57.164062 130.722656 58.078125 132.285156 59.011719 133.449219 L 56.816406 138.039062 L 54.421875 144.226562 C 52.09375 144.191406 49.265625 143.777344 45.941406 142.976562 C 39.289062 141.316406 33.472656 138.503906 28.484375 134.546875 C 21.199219 128.726562 15.199219 122.476562 10.476562 115.792969 C 5.089844 108.144531 2.394531 101.160156 2.394531 94.84375 "/>
<path style=" stroke:none;fill-rule:nonzero;fill:rgb(94.901961%,88.235295%,0%);fill-opacity:1;" d="M 112.484375 72.542969 L 117.570312 75.835938 C 121.761719 78.332031 125.867188 80.34375 129.890625 81.871094 C 133.917969 83.402344 138.554688 84.019531 143.808594 83.71875 L 150.492188 82.820312 L 152.089844 87.910156 C 153.121094 92 153.636719 95.890625 153.636719 99.582031 C 153.636719 114.480469 148.464844 127.363281 138.121094 138.238281 C 127.613281 149.28125 114.960938 154.800781 100.164062 154.800781 C 97.667969 154.800781 95.472656 154.515625 93.578125 153.953125 L 91.484375 153.054688 C 91.847656 151.558594 91.933594 149.527344 91.734375 146.96875 C 91.300781 141.847656 89.621094 136.609375 86.695312 131.253906 C 83.800781 125.902344 80.792969 122.558594 77.667969 121.230469 C 76.703125 120.796875 75.789062 120.597656 74.921875 120.632812 L 73.875 120.78125 L 76.816406 118.136719 C 79.113281 115.675781 81.140625 112.765625 82.902344 109.40625 C 84.699219 106.050781 85.929688 102.605469 86.59375 99.082031 L 87.042969 94.84375 L 88.441406 95.492188 C 89.636719 95.921875 90.902344 96.1875 92.230469 96.289062 C 96.519531 96.554688 100.746094 94.976562 104.902344 91.550781 C 108.425781 88.65625 110.738281 84.617188 111.835938 79.429688 L 112.484375 72.542969 "/>
<path style=" stroke:none;fill-rule:nonzero;fill:rgb(93.333334%,93.333334%,93.725491%);fill-opacity:1;" d="M 82.855469 90.503906 C 83.683594 91.667969 85.164062 93.097656 87.292969 94.792969 L 86.546875 99.429688 C 85.746094 103.089844 84.582031 106.332031 83.054688 109.15625 C 81.558594 112.019531 79.527344 114.828125 76.96875 117.589844 L 73.574219 120.878906 L 72.03125 121.429688 L 68.835938 122.777344 C 67.9375 123.242188 66.824219 124.15625 65.496094 125.519531 L 63.75 127.464844 C 64.046875 125.570312 64.449219 123.523438 64.945312 121.328125 C 65.910156 116.972656 66.839844 114.078125 67.738281 112.648438 C 68.339844 111.71875 69.75 110.039062 71.980469 107.613281 C 74.109375 105.25 75.703125 103.15625 76.769531 101.328125 C 77.964844 99.265625 78.761719 96.105469 79.164062 91.847656 L 79.460938 86.0625 L 82.855469 90.503906 "/>
<path style=" stroke:none;fill-rule:nonzero;fill:rgb(81.176472%,44.313726%,0%);fill-opacity:1;" d="M 79.113281 91.699219 C 78.8125 96.289062 78.03125 99.613281 76.769531 101.675781 C 75.703125 103.472656 73.957031 105.667969 71.53125 108.261719 C 69.167969 110.753906 67.722656 112.484375 67.191406 113.449219 C 65.992188 115.578125 64.796875 120.050781 63.597656 126.867188 L 59.011719 133.449219 C 58.078125 132.554688 57.164062 131.121094 56.265625 129.160156 C 54.40625 125.203125 53.472656 120.515625 53.472656 115.09375 C 53.472656 102.390625 56.167969 90.585938 61.554688 79.679688 C 64.246094 74.222656 66.941406 70.050781 69.636719 67.15625 L 74.175781 75.9375 L 79.164062 85.414062 L 79.113281 91.699219 "/>
<path style=" stroke:none;fill-rule:nonzero;fill:rgb(93.333334%,93.333334%,93.725491%);fill-opacity:1;" d="M 90.785156 48.550781 L 96.273438 44.761719 L 99.265625 56.234375 L 90.785156 48.550781 "/>
<path style=" stroke:none;fill-rule:nonzero;fill:rgb(77.64706%,0%,4.313726%);fill-opacity:1;" d="M 122.109375 43.164062 C 121.777344 42.566406 121.710938 41.003906 121.910156 38.476562 C 122.175781 35.683594 122.710938 32.9375 123.507812 30.246094 C 125.835938 22.695312 129.425781 18.921875 134.28125 18.921875 C 136.242188 18.921875 137.691406 20.285156 138.621094 23.011719 C 139.753906 26.238281 139.503906 30.328125 137.875 35.28125 C 137.007812 37.878906 135.910156 40.253906 134.582031 42.417969 C 133.285156 44.511719 132.1875 45.742188 131.289062 46.109375 C 130.492188 46.40625 128.796875 46.089844 126.199219 45.160156 C 123.707031 44.261719 122.34375 43.597656 122.109375 43.164062 "/>
<path style=" stroke:none;fill-rule:nonzero;fill:rgb(77.64706%,0%,4.313726%);fill-opacity:1;" d="M 174.335938 31.941406 C 174.835938 31.941406 175.449219 32.65625 176.183594 34.085938 C 177.179688 36.015625 177.679688 38.375 177.679688 41.167969 C 177.679688 44.328125 177.128906 47.15625 176.03125 49.648438 C 175.003906 51.976562 173.9375 53.140625 172.839844 53.140625 C 171.246094 53.140625 170.445312 50.894531 170.445312 46.40625 C 170.445312 42.816406 171.09375 39.324219 172.390625 35.929688 L 174.335938 31.941406 "/>
<path style=" stroke:none;fill-rule:nonzero;fill:rgb(100%,100%,100%);fill-opacity:1;" d="M 131.636719 46.257812 C 133.402344 44.59375 134.8125 42.796875 135.878906 40.871094 C 136.941406 38.90625 137.890625 36.878906 138.722656 34.785156 L 138.121094 40.222656 C 137.558594 43.914062 136.890625 45.957031 136.128906 46.355469 L 133.183594 46.65625 L 131.636719 46.257812 "/>
<path style=" stroke:none;fill-rule:nonzero;fill:rgb(5.098039%,7.450981%,10.196079%);fill-opacity:1;" d="M 132.238281 24.011719 C 133.066406 24.175781 133.699219 25.039062 134.132812 26.605469 C 134.566406 28.265625 134.582031 30.195312 134.183594 32.390625 C 133.816406 34.351562 133.132812 35.980469 132.136719 37.277344 C 131.105469 38.640625 130.042969 39.207031 128.945312 38.972656 C 127.878906 38.742188 127.164062 37.792969 126.800781 36.132812 C 126.433594 34.601562 126.46875 32.855469 126.898438 30.894531 C 127.398438 28.632812 128.214844 26.835938 129.34375 25.507812 C 130.375 24.34375 131.339844 23.84375 132.238281 24.011719 "/>
<path style=" stroke:none;fill-rule:nonzero;fill:rgb(5.098039%,7.450981%,10.196079%);fill-opacity:1;" d="M 171.792969 47.40625 C 171.292969 47.238281 171.011719 46.554688 170.945312 45.359375 C 170.878906 44.328125 170.976562 43.179688 171.246094 41.917969 C 171.511719 40.652344 171.925781 39.507812 172.492188 38.476562 C 173.15625 37.3125 173.773438 36.863281 174.335938 37.128906 C 174.9375 37.394531 175.25 38.175781 175.285156 39.472656 C 175.351562 40.539062 175.21875 41.800781 174.886719 43.265625 C 174.621094 44.429688 174.121094 45.460938 173.390625 46.355469 C 172.722656 47.15625 172.191406 47.503906 171.792969 47.40625 "/>
<path style=" stroke:none;fill-rule:nonzero;fill:rgb(100%,100%,100%);fill-opacity:1;" d="M 133.632812 19.421875 C 134.265625 19.785156 134.796875 20.566406 135.230469 21.765625 C 135.695312 23.226562 135.710938 24.660156 135.28125 26.054688 C 134.8125 27.585938 133.964844 28.714844 132.734375 29.445312 C 131.636719 30.144531 130.605469 30.328125 129.644531 29.996094 C 128.445312 29.628906 127.648438 28.796875 127.25 27.5 C 126.847656 26.171875 126.964844 24.660156 127.597656 22.960938 C 128.128906 21.566406 129.128906 20.5 130.589844 19.769531 C 131.921875 19.105469 132.933594 18.988281 133.632812 19.421875 "/>
<path style=" stroke:none;fill-rule:nonzero;fill:rgb(100%,100%,100%);fill-opacity:1;" d="M 174.238281 33.6875 C 174.535156 33.785156 174.769531 34.1875 174.9375 34.882812 C 175.101562 35.617188 175.101562 36.363281 174.9375 37.128906 C 174.4375 39.421875 173.804688 40.503906 173.039062 40.371094 C 172.574219 40.269531 172.273438 39.871094 172.140625 39.175781 C 172.007812 38.476562 172.058594 37.644531 172.292969 36.679688 C 172.890625 34.484375 173.539062 33.488281 174.238281 33.6875 "/>
<path style=" stroke:none;fill-rule:nonzero;fill:rgb(79.607844%,74.117649%,0%);fill-opacity:1;" d="M 112.484375 72.542969 L 118.667969 76.136719 C 123.855469 78.761719 129.011719 80.742188 134.132812 82.074219 C 137.359375 82.871094 141.066406 83.167969 145.257812 82.96875 L 150.542969 82.421875 L 151.292969 84.265625 C 150.492188 84.964844 149.328125 85.679688 147.800781 86.410156 C 144.742188 87.808594 141.363281 88.507812 137.675781 88.507812 C 133.617188 88.507812 128.628906 86.445312 122.710938 82.320312 C 117.386719 78.597656 113.980469 75.339844 112.484375 72.542969 "/>
<path style=" stroke:none;fill-rule:nonzero;fill:rgb(79.607844%,74.117649%,0%);fill-opacity:1;" d="M 129.742188 145.472656 C 120.699219 151.691406 111.003906 154.800781 100.660156 154.800781 L 94.175781 153.953125 L 91.484375 153.054688 L 92.03125 150.660156 C 92.296875 148.765625 92.265625 147.085938 91.933594 145.621094 L 91.035156 140.785156 L 90.683594 138.539062 C 97.402344 140.964844 105.816406 142.082031 115.925781 141.878906 C 127.03125 141.679688 135.128906 139.769531 140.21875 136.144531 C 137.757812 139.269531 134.265625 142.378906 129.742188 145.472656 "/>
<path style=" stroke:none;fill-rule:nonzero;fill:rgb(44.705883%,69.01961%,65.098041%);fill-opacity:1;" d="M 82.355469 59.125 C 82.023438 60.191406 81.625 60.855469 81.15625 61.121094 C 80.726562 61.386719 80.410156 61.089844 80.210938 60.222656 C 79.910156 58.695312 79.792969 56.730469 79.859375 54.339844 L 80.058594 51.195312 C 80.058594 50.066406 80.226562 49.25 80.558594 48.75 C 80.925781 48.121094 81.390625 48.566406 81.957031 50.097656 C 83.121094 53.222656 83.253906 56.234375 82.355469 59.125 "/>
<path style=" stroke:none;fill-rule:nonzero;fill:rgb(44.705883%,69.01961%,65.098041%);fill-opacity:1;" d="M 86.695312 94.542969 C 84.601562 92.945312 81.625 89.105469 77.765625 83.019531 C 74.339844 77.566406 71.894531 73.125 70.433594 69.703125 C 69.269531 67.042969 68.105469 63.898438 66.941406 60.273438 C 65.945312 57.214844 65.261719 54.871094 64.894531 53.242188 C 64.464844 51.445312 64.546875 50.347656 65.144531 49.949219 C 65.84375 49.449219 67.074219 50.546875 68.835938 53.242188 L 87.394531 75.6875 C 97.46875 87.824219 101.941406 94.210938 100.8125 94.84375 C 98.980469 95.871094 96.855469 96.453125 94.425781 96.589844 C 91.332031 96.789062 88.757812 96.105469 86.695312 94.542969 "/>
<path style=" stroke:none;fill-rule:nonzero;fill:rgb(44.705883%,69.01961%,65.098041%);fill-opacity:1;" d="M 166.15625 110.207031 C 162.464844 110.207031 159.140625 109.722656 156.179688 108.757812 L 152.839844 107.261719 L 153.636719 99.582031 C 155.863281 100.910156 159.988281 102.191406 166.007812 103.421875 C 173.421875 104.953125 179.957031 105.367188 185.609375 104.667969 C 184.980469 105.601562 183.699219 106.53125 181.769531 107.460938 C 177.878906 109.292969 172.675781 110.207031 166.15625 110.207031 "/>
<path style=" stroke:none;fill-rule:nonzero;fill:rgb(44.705883%,69.01961%,65.098041%);fill-opacity:1;" d="M 130.390625 145.324219 C 128.726562 146.519531 128.214844 148.25 128.84375 150.511719 C 129.410156 152.671875 130.890625 154.832031 133.285156 156.996094 C 139.136719 162.28125 146.070312 164.425781 154.085938 163.429688 L 152.589844 162.78125 C 151.457031 162.347656 150.960938 162.117188 151.09375 162.082031 L 156.480469 161.585938 L 161.917969 160.4375 C 161.21875 161.832031 159.855469 163.246094 157.828125 164.675781 C 157.691406 164.742188 157.777344 165.027344 158.074219 165.523438 C 158.375 165.992188 158.441406 166.273438 158.273438 166.371094 C 156.878906 167.269531 153.984375 168.800781 149.59375 170.960938 C 145.238281 173.058594 141.464844 174.421875 138.273438 175.050781 L 133.734375 175.25 C 132.96875 175.019531 130.140625 171.246094 125.253906 163.929688 L 112.035156 153.554688 L 115.925781 152.15625 L 122.609375 149.460938 C 125.171875 148.296875 127.765625 146.917969 130.390625 145.324219 "/>
<path style=" stroke:none;fill-rule:nonzero;fill:rgb(44.705883%,69.01961%,65.098041%);fill-opacity:1;" d="M 44.792969 166.371094 C 44.660156 165.742188 46.15625 166.105469 49.285156 167.46875 C 52.277344 168.765625 53.574219 170.03125 53.175781 171.261719 L 48.585938 169.714844 L 44.792969 166.371094 "/>
<path style=" stroke:none;fill-rule:nonzero;fill:rgb(44.705883%,69.01961%,65.098041%);fill-opacity:1;" d="M 64.097656 174.601562 L 57.613281 177.597656 L 54.871094 178.195312 L 53.175781 178.394531 L 53.621094 176.796875 C 53.824219 177.097656 55.1875 176.566406 57.714844 175.203125 C 60.640625 173.671875 62.402344 172.839844 63 172.707031 C 63.933594 172.476562 64.496094 172.675781 64.695312 173.304688 C 64.863281 173.871094 64.664062 174.304688 64.097656 174.601562 "/>
<path style=" stroke:none;fill-rule:nonzero;fill:rgb(44.705883%,69.01961%,65.098041%);fill-opacity:1;" d="M 68.988281 179.191406 C 69.320312 179.359375 70.351562 178.410156 72.078125 176.347656 C 73.808594 174.289062 75.105469 172.441406 75.96875 170.8125 L 84.050781 155.199219 C 88.472656 146.152344 90.519531 140.800781 90.1875 139.136719 L 91.582031 144.175781 C 92.382812 147.933594 92.347656 150.894531 91.484375 153.054688 C 90.71875 154.984375 89.585938 156.8125 88.089844 158.542969 C 85.863281 161.070312 84.183594 163.195312 83.054688 164.925781 C 76.003906 175.699219 72.210938 181.085938 71.679688 181.085938 L 70.035156 180.140625 L 68.988281 179.191406 "/>
<path style=" stroke:none;fill-rule:nonzero;fill:rgb(44.705883%,69.01961%,65.098041%);fill-opacity:1;" d="M 57.214844 136.84375 L 54.421875 144.226562 C 52.191406 144.324219 49.367188 143.941406 45.941406 143.078125 C 39.089844 141.347656 32.6875 138.089844 26.738281 133.300781 C 20.519531 128.3125 15.28125 122.742188 11.023438 116.589844 L 6.535156 108.859375 C 12.953125 112.382812 16.628906 114.195312 17.558594 114.296875 C 18.523438 114.429688 21.714844 113.730469 27.136719 112.199219 C 30.460938 119.050781 35.484375 125.003906 42.199219 130.058594 C 48.21875 134.582031 53.222656 136.84375 57.214844 136.84375 "/>
<path style=" stroke:none;fill-rule:nonzero;fill:rgb(44.705883%,69.01961%,65.098041%);fill-opacity:1;" d="M 3.492188 85.015625 C 4.222656 82.652344 5.238281 80.394531 6.535156 78.230469 L 8.230469 75.6875 C 7.167969 81.539062 7.546875 86.8125 9.378906 91.5 C 10.972656 95.589844 13.46875 98.816406 16.859375 101.175781 C 19.984375 103.371094 23.246094 104.417969 26.636719 104.320312 C 30.09375 104.1875 32.773438 102.875 34.667969 100.378906 L 34.019531 102.824219 C 33.453125 104.652344 32.773438 106.164062 31.972656 107.363281 C 30.910156 108.992188 29.199219 110.503906 26.835938 111.902344 C 24.144531 113.496094 21.582031 114.296875 19.15625 114.296875 C 16.59375 114.296875 14.066406 113.53125 11.574219 112 C 9.144531 110.539062 7.300781 108.726562 6.035156 106.5625 C 2.011719 99.746094 1.164062 92.5625 3.492188 85.015625 "/>
<path style=" stroke:none;fill-rule:nonzero;fill:rgb(66.274512%,35.686275%,0%);fill-opacity:1;" d="M 59.957031 83.519531 C 61.121094 80.726562 62.367188 78.25 63.699219 76.085938 L 65.34375 73.640625 C 62.984375 79.925781 62.121094 88.074219 62.75 98.085938 C 63.351562 107.429688 64.695312 113.214844 66.792969 115.441406 L 63.597656 126.867188 L 59.011719 133.449219 C 58.011719 132.785156 57.03125 131.488281 56.066406 129.558594 C 54.136719 125.703125 53.324219 120.566406 53.621094 114.144531 C 54.15625 102.605469 56.265625 92.398438 59.957031 83.519531 "/>
<path style=" stroke:none;fill-rule:nonzero;fill:rgb(78.431374%,78.823531%,79.215688%);fill-opacity:1;" d="M 78.964844 115.242188 L 74.375 120.78125 L 72.179688 121.429688 C 70.550781 121.996094 69.269531 122.578125 68.339844 123.175781 L 63.597656 126.867188 C 64.230469 123.574219 64.714844 121.296875 65.046875 120.03125 L 66.09375 116.988281 L 66.792969 115.441406 C 67.089844 116.375 68.320312 116.941406 70.484375 117.140625 C 73.109375 117.371094 75.9375 116.738281 78.964844 115.242188 "/>
<path style=" stroke:none;fill-rule:nonzero;fill:rgb(5.098039%,7.450981%,10.196079%);fill-opacity:1;" d="M 172.890625 18.222656 C 175.417969 21.515625 177.046875 24.742188 177.777344 27.902344 C 178.511719 31.027344 178.195312 33.355469 176.832031 34.882812 C 176.699219 35.050781 176.515625 34.769531 176.28125 34.035156 C 176.050781 33.269531 175.984375 32.789062 176.082031 32.589844 C 176.882812 31.292969 176.730469 29.28125 175.632812 26.554688 C 174.503906 23.761719 172.675781 20.917969 170.148438 18.023438 C 163.761719 10.742188 156.230469 6.453125 147.550781 5.15625 C 135.214844 3.292969 124.371094 5.355469 115.027344 11.339844 C 105.683594 17.324219 100.144531 25.773438 98.417969 36.679688 C 96.753906 47.253906 99.628906 56.898438 107.046875 65.609375 C 114.429688 74.257812 124.253906 79.59375 136.527344 81.625 C 145.140625 83.054688 153.285156 81.773438 160.96875 77.78125 C 168.21875 73.992188 172.707031 69.101562 174.4375 63.117188 L 175.335938 63.167969 C 175.832031 63.398438 176.050781 63.632812 175.984375 63.867188 C 174.1875 70.183594 169.480469 75.339844 161.867188 79.328125 C 153.851562 83.484375 145.304688 84.816406 136.226562 83.320312 C 123.457031 81.191406 113.132812 75.570312 105.25 66.460938 C 97.269531 57.246094 94.160156 47.15625 95.921875 36.179688 C 97.785156 24.441406 103.488281 15.546875 113.03125 9.496094 C 122.609375 3.410156 134.214844 1.398438 147.851562 3.457031 C 158.257812 5.019531 166.605469 9.941406 172.890625 18.222656 "/>
<path style=" stroke:none;fill-rule:nonzero;fill:rgb(5.098039%,7.450981%,10.196079%);fill-opacity:1;" d="M 175.535156 50.746094 C 175.433594 50.648438 175.550781 50.445312 175.882812 50.148438 C 176.214844 49.882812 176.464844 49.816406 176.632812 49.949219 C 178.660156 51.878906 179.609375 54.386719 179.476562 57.480469 C 179.308594 60.539062 178.179688 62.835938 176.082031 64.363281 L 174.984375 64.265625 C 174.585938 63.867188 174.105469 63.5 173.539062 63.167969 C 172.742188 62.703125 172.027344 62.46875 171.394531 62.46875 L 166.007812 64.714844 C 162.515625 66.175781 159.789062 66.875 157.828125 66.808594 C 156.996094 66.773438 154.933594 65.777344 151.640625 63.816406 C 147.949219 61.621094 145.671875 60.375 144.808594 60.074219 C 143.410156 59.609375 140.667969 58.992188 136.578125 58.230469 L 127.398438 56.832031 C 125.070312 56.597656 122.824219 55.652344 120.664062 53.988281 C 118.601562 52.425781 117.039062 50.582031 115.976562 48.453125 C 115.476562 47.421875 115.410156 46.824219 115.777344 46.65625 C 116.109375 46.488281 116.523438 46.921875 117.023438 47.953125 C 117.921875 49.78125 119.367188 51.378906 121.363281 52.742188 C 123.390625 54.105469 125.46875 54.902344 127.597656 55.136719 L 136.925781 56.53125 C 141.148438 57.332031 143.976562 57.996094 145.40625 58.527344 C 146.269531 58.859375 148.5 60.074219 152.089844 62.167969 C 155.316406 64.066406 157.277344 65.046875 157.976562 65.113281 C 159.773438 65.246094 162.398438 64.582031 165.855469 63.117188 L 171.292969 60.773438 C 172.722656 60.707031 174.171875 61.304688 175.632812 62.570312 C 176.832031 61.503906 177.496094 59.742188 177.628906 57.28125 C 177.761719 54.585938 177.0625 52.410156 175.535156 50.746094 "/>
<path style=" stroke:none;fill-rule:nonzero;fill:rgb(5.098039%,7.450981%,10.196079%);fill-opacity:1;" d="M 152.789062 54.988281 C 153.1875 54.785156 153.785156 55.300781 154.582031 56.53125 C 155.414062 57.761719 155.566406 58.496094 155.03125 58.726562 C 154.5 58.960938 153.902344 58.445312 153.238281 57.179688 C 152.570312 55.882812 152.421875 55.152344 152.789062 54.988281 "/>
<path style=" stroke:none;fill-rule:nonzero;fill:rgb(5.098039%,7.450981%,10.196079%);fill-opacity:1;" d="M 166.105469 58.230469 C 166.304688 58.628906 165.921875 59.191406 164.960938 59.925781 C 164.027344 60.625 163.460938 60.839844 163.261719 60.574219 C 163.0625 60.308594 163.445312 59.742188 164.410156 58.878906 C 165.339844 58.011719 165.90625 57.796875 166.105469 58.230469 "/>
<path style=" stroke:none;fill-rule:nonzero;fill:rgb(5.098039%,7.450981%,10.196079%);fill-opacity:1;" d="M 172.839844 26.902344 L 173.988281 26.753906 C 174.121094 26.953125 173.886719 27.253906 173.289062 27.652344 L 172.09375 28.898438 L 170.894531 30.792969 C 170.597656 31.425781 170.261719 31.640625 169.898438 31.441406 C 169.53125 31.242188 169.480469 30.828125 169.746094 30.195312 C 170.511719 28.566406 171.542969 27.46875 172.839844 26.902344 "/>
<path style=" stroke:none;fill-rule:nonzero;fill:rgb(5.098039%,7.450981%,10.196079%);fill-opacity:1;" d="M 137.675781 16.027344 C 137.042969 15.695312 136.777344 15.378906 136.875 15.082031 C 137.007812 14.816406 137.390625 14.816406 138.023438 15.082031 C 139.21875 15.613281 140.21875 16.378906 141.015625 17.375 C 141.878906 18.472656 142.378906 19.6875 142.511719 21.015625 C 142.578125 22.082031 142.429688 22.628906 142.0625 22.664062 C 141.664062 22.664062 141.382812 22.164062 141.214844 21.167969 C 140.75 18.839844 139.570312 17.125 137.675781 16.027344 "/>
<path style=" stroke:none;fill-rule:nonzero;fill:rgb(5.098039%,7.450981%,10.196079%);fill-opacity:1;" d="M 138.871094 42.316406 C 138.007812 45.308594 137.226562 46.957031 136.527344 47.253906 C 135.164062 47.851562 132.386719 47.621094 128.195312 46.554688 C 123.839844 45.460938 121.496094 44.261719 121.164062 42.964844 C 120.863281 41.769531 120.863281 39.839844 121.164062 37.179688 C 121.460938 34.1875 122.0625 31.34375 122.957031 28.648438 C 125.417969 21.300781 129.0625 17.792969 133.882812 18.125 C 138.835938 18.457031 141.03125 23.261719 140.46875 32.539062 C 140.269531 35.929688 139.734375 39.191406 138.871094 42.316406 M 133.78125 19.820312 C 131.855469 19.6875 130.09375 20.585938 128.496094 22.511719 C 126.898438 24.476562 125.550781 27.402344 124.457031 31.292969 C 123.890625 33.289062 123.441406 35.632812 123.109375 38.324219 C 122.808594 40.652344 122.710938 42.066406 122.808594 42.566406 L 123.058594 42.863281 L 124.007812 43.511719 C 125.503906 44.277344 127.730469 44.910156 130.691406 45.410156 L 135.777344 45.757812 C 136.210938 45.292969 136.726562 43.8125 137.324219 41.320312 C 138.023438 38.527344 138.457031 35.796875 138.621094 33.136719 L 138.722656 30.09375 C 138.722656 26.171875 138.171875 23.378906 137.074219 21.714844 C 136.277344 20.550781 135.179688 19.917969 133.78125 19.820312 "/>
<path style=" stroke:none;fill-rule:nonzero;fill:rgb(5.098039%,7.450981%,10.196079%);fill-opacity:1;" d="M 138.222656 24.707031 C 138.1875 24.476562 138.421875 24.324219 138.921875 24.257812 C 139.417969 24.191406 139.6875 24.277344 139.71875 24.507812 C 140.21875 27.769531 139.886719 31.441406 138.722656 35.53125 C 137.390625 40.253906 135.328125 43.78125 132.535156 46.109375 L 131.738281 46.007812 C 131.339844 45.875 131.222656 45.742188 131.390625 45.609375 C 134.050781 43.28125 136.011719 39.839844 137.273438 35.28125 C 138.40625 31.292969 138.722656 27.769531 138.222656 24.707031 "/>
<path style=" stroke:none;fill-rule:nonzero;fill:rgb(5.098039%,7.450981%,10.196079%);fill-opacity:1;" d="M 176.03125 35.882812 C 175.601562 34.453125 175.070312 33.402344 174.4375 32.738281 C 173.503906 34.535156 172.757812 36.761719 172.191406 39.421875 C 171.695312 41.917969 171.445312 44.3125 171.445312 46.605469 C 171.445312 48.636719 171.660156 50.246094 172.09375 51.445312 C 172.324219 52.011719 172.542969 52.292969 172.742188 52.292969 C 173.171875 52.324219 173.589844 52.175781 173.988281 51.84375 C 174.71875 51.246094 175.335938 50.113281 175.832031 48.453125 C 176.300781 46.789062 176.597656 44.792969 176.730469 42.464844 L 176.78125 41.21875 C 176.78125 39.289062 176.53125 37.511719 176.03125 35.882812 M 174.984375 30.144531 C 175.382812 29.714844 175.566406 29.695312 175.535156 30.09375 L 174.984375 31.691406 C 176.117188 32.554688 177.015625 34.101562 177.679688 36.332031 C 178.3125 38.425781 178.558594 40.503906 178.425781 42.566406 C 178.195312 46.65625 177.445312 49.714844 176.183594 51.746094 C 175.152344 53.375 173.953125 54.121094 172.589844 53.988281 C 171.726562 53.921875 171.042969 53.273438 170.546875 52.042969 C 169.582031 49.683594 169.53125 46.140625 170.394531 41.417969 C 171.328125 36.398438 172.855469 32.640625 174.984375 30.144531 "/>
<path style=" stroke:none;fill-rule:nonzero;fill:rgb(5.098039%,7.450981%,10.196079%);fill-opacity:1;" d="M 90.683594 49.398438 L 89.488281 48.152344 C 91.351562 45.859375 93.660156 44.460938 96.421875 43.960938 C 96.753906 43.894531 96.9375 44.179688 96.96875 44.8125 C 97.003906 45.441406 96.871094 45.792969 96.570312 45.859375 C 94.175781 46.523438 92.214844 47.703125 90.683594 49.398438 "/>
<path style=" stroke:none;fill-rule:nonzero;fill:rgb(5.098039%,7.450981%,10.196079%);fill-opacity:1;" d="M 69.1875 65.960938 L 70.433594 68.40625 C 66.941406 73.09375 63.914062 78.179688 61.355469 83.667969 C 57.664062 91.449219 55.453125 100.164062 54.71875 109.808594 C 53.890625 120.613281 55.519531 128.3125 59.609375 132.902344 C 59.773438 133.066406 59.660156 133.335938 59.257812 133.699219 C 58.859375 134.066406 58.578125 134.164062 58.410156 134 C 54.054688 129.144531 52.109375 121.078125 52.574219 109.808594 C 52.972656 99.464844 55.035156 90.386719 58.761719 82.570312 C 61.621094 76.550781 65.097656 71.015625 69.1875 65.960938 "/>
<path style=" stroke:none;fill-rule:nonzero;fill:rgb(5.098039%,7.450981%,10.196079%);fill-opacity:1;" d="M 77.867188 93.945312 C 78.464844 89.988281 78.515625 86.644531 78.015625 83.917969 C 77.949219 83.71875 78.265625 83.902344 78.964844 84.464844 C 79.628906 85.03125 79.976562 85.429688 80.011719 85.664062 C 80.574219 88.691406 80.527344 91.964844 79.859375 95.492188 C 79.230469 98.847656 78.246094 101.476562 76.917969 103.371094 L 71.730469 109.308594 C 69.867188 111.238281 68.671875 112.75 68.136719 113.847656 C 67.308594 115.644531 66.507812 117.820312 65.746094 120.382812 C 65.011719 122.941406 64.5625 124.953125 64.398438 126.417969 L 63.5 127.8125 L 62.652344 128.5625 C 62.917969 126.335938 63.433594 123.707031 64.199219 120.679688 C 65.03125 117.523438 65.859375 115.027344 66.691406 113.199219 C 67.289062 111.902344 68.636719 110.105469 70.734375 107.8125 L 75.320312 102.273438 C 76.417969 100.546875 77.265625 97.769531 77.867188 93.945312 "/>
<path style=" stroke:none;fill-rule:nonzero;fill:rgb(5.098039%,7.450981%,10.196079%);fill-opacity:1;" d="M 58.710938 85.515625 C 58.746094 85.28125 59.027344 85.230469 59.558594 85.363281 C 60.089844 85.464844 60.339844 85.613281 60.308594 85.8125 C 59.574219 89.539062 59.773438 94.109375 60.90625 99.53125 C 62.167969 105.417969 64.246094 110.621094 67.140625 115.144531 C 67.273438 115.34375 67.109375 115.59375 66.640625 115.890625 L 65.792969 115.992188 C 62.335938 110.636719 60.042969 105.152344 58.910156 99.53125 C 57.878906 94.609375 57.8125 89.9375 58.710938 85.515625 "/>
<path style=" stroke:none;fill-rule:nonzero;fill:rgb(5.098039%,7.450981%,10.196079%);fill-opacity:1;" d="M 86.046875 94.542969 C 86.046875 94.34375 86.363281 94.394531 86.992188 94.691406 L 87.941406 95.292969 C 87.742188 104.902344 83.371094 113.429688 74.824219 120.878906 C 74.65625 121.011719 74.222656 121.011719 73.527344 120.878906 C 72.859375 120.746094 72.613281 120.613281 72.777344 120.480469 C 75.871094 118.121094 78.761719 114.546875 81.457031 109.757812 C 84.515625 104.304688 86.046875 99.230469 86.046875 94.542969 "/>
<path style=" stroke:none;fill-rule:nonzero;fill:rgb(5.098039%,7.450981%,10.196079%);fill-opacity:1;" d="M 149.59375 83.167969 C 149.496094 82.9375 149.695312 82.722656 150.195312 82.519531 C 150.691406 82.289062 150.976562 82.289062 151.042969 82.519531 C 153.402344 87.875 154.582031 92.980469 154.582031 97.835938 C 154.582031 120.914062 145.621094 137.609375 127.699219 147.917969 C 121.011719 151.773438 113.945312 154.183594 106.496094 155.148438 C 99.847656 155.980469 94.777344 155.53125 91.285156 153.800781 C 91.085938 153.703125 91.101562 153.421875 91.332031 152.953125 C 91.566406 152.457031 91.78125 152.257812 91.980469 152.355469 C 95.441406 154.085938 100.394531 154.449219 106.847656 153.453125 C 113.929688 152.390625 120.664062 149.910156 127.050781 146.019531 C 134.597656 141.433594 140.535156 135.445312 144.855469 128.0625 C 149.976562 119.417969 152.539062 109.339844 152.539062 97.835938 C 152.539062 92.648438 151.558594 87.757812 149.59375 83.167969 "/>
<path style=" stroke:none;fill-rule:nonzero;fill:rgb(5.098039%,7.450981%,10.196079%);fill-opacity:1;" d="M 109.339844 86.410156 C 109.273438 86.246094 109.40625 85.898438 109.738281 85.363281 C 110.105469 84.867188 110.320312 84.714844 110.386719 84.914062 C 111.753906 88.175781 114.210938 91.101562 117.769531 93.695312 C 121.363281 96.253906 125.636719 98.167969 130.589844 99.429688 C 135.078125 100.59375 139.351562 101.027344 143.410156 100.726562 C 147.46875 100.394531 150.558594 99.382812 152.6875 97.683594 C 152.855469 97.550781 153.105469 97.703125 153.4375 98.132812 C 153.769531 98.566406 153.851562 98.847656 153.6875 98.980469 C 151.292969 100.878906 147.964844 102.058594 143.710938 102.523438 C 139.320312 103.023438 134.78125 102.671875 130.09375 101.476562 C 125.203125 100.210938 120.898438 98.199219 117.171875 95.441406 C 113.582031 92.8125 110.96875 89.804688 109.339844 86.410156 "/>
<path style=" stroke:none;fill-rule:nonzero;fill:rgb(5.098039%,7.450981%,10.196079%);fill-opacity:1;" d="M 140.21875 101.726562 C 139.652344 108.242188 136.890625 117.054688 131.9375 128.164062 C 126.847656 139.570312 122.328125 146.667969 118.371094 149.460938 L 117.621094 149.015625 C 117.320312 148.582031 117.253906 148.296875 117.421875 148.164062 C 120.648438 145.871094 124.902344 138.804688 130.191406 126.964844 C 135.347656 115.394531 138.15625 106.929688 138.621094 101.574219 C 138.621094 101.34375 138.886719 101.261719 139.417969 101.328125 C 139.984375 101.359375 140.25 101.492188 140.21875 101.726562 "/>
<path style=" stroke:none;fill-rule:nonzero;fill:rgb(5.098039%,7.450981%,10.196079%);fill-opacity:1;" d="M 103.105469 91.847656 L 103.703125 92.046875 L 103.953125 92.597656 L 104.800781 105.667969 L 105.398438 117.488281 L 105.199219 118.039062 L 99.5625 123.523438 C 95.273438 127.382812 91.265625 130.242188 87.542969 132.105469 L 86.945312 132.152344 L 86.445312 131.753906 L 86.394531 131.40625 C 86.394531 131.074219 86.546875 130.824219 86.84375 130.65625 C 91.964844 128.097656 97.617188 123.605469 103.804688 117.1875 L 103.15625 105.46875 L 102.359375 92.695312 L 102.359375 92.648438 C 102.359375 92.113281 102.605469 91.847656 103.105469 91.847656 "/>
<path style=" stroke:none;fill-rule:nonzero;fill:rgb(5.098039%,7.450981%,10.196079%);fill-opacity:1;" d="M 129.195312 130.109375 L 137.027344 130.457031 C 140.21875 130.359375 142.761719 130.058594 144.65625 129.558594 C 144.890625 129.527344 144.921875 129.757812 144.757812 130.257812 L 144.207031 131.054688 C 142.347656 131.6875 139.917969 132.121094 136.925781 132.351562 C 133.832031 132.621094 131.039062 132.585938 128.546875 132.253906 C 123.589844 131.621094 118.953125 130.074219 114.628906 127.613281 C 110.40625 125.1875 107.097656 122.226562 104.703125 118.734375 C 104.570312 118.535156 104.585938 118.152344 104.75 117.589844 C 104.886719 117.023438 105.019531 116.824219 105.152344 116.988281 C 107.277344 120.148438 110.65625 122.941406 115.277344 125.371094 C 119.566406 127.597656 124.207031 129.175781 129.195312 130.109375 "/>
<path style=" stroke:none;fill-rule:nonzero;fill:rgb(5.098039%,7.450981%,10.196079%);fill-opacity:1;" d="M 91.980469 147.867188 C 91.75 147.832031 91.683594 147.601562 91.78125 147.167969 C 91.847656 146.734375 92 146.535156 92.230469 146.570312 L 104.902344 147.765625 C 110.953125 148.132812 115.261719 148.214844 117.820312 148.015625 L 118.371094 148.164062 L 118.667969 148.664062 L 118.917969 151.160156 C 118.984375 151.390625 118.785156 151.558594 118.320312 151.65625 L 117.570312 151.507812 L 117.222656 149.664062 L 104.054688 149.261719 L 91.980469 147.867188 "/>
<path style=" stroke:none;fill-rule:nonzero;fill:rgb(5.098039%,7.450981%,10.196079%);fill-opacity:1;" d="M 78.515625 122.578125 C 77.117188 121.613281 75.453125 121.347656 73.527344 121.777344 C 71.664062 122.144531 69.71875 123.160156 67.691406 124.820312 C 64.796875 127.183594 61.988281 130.675781 59.257812 135.296875 C 57.199219 138.753906 55.402344 143.710938 53.871094 150.160156 C 53.140625 153.386719 52.59375 156.296875 52.226562 158.890625 L 51.925781 159.390625 L 47.386719 163.378906 C 46.089844 164.710938 45.441406 165.574219 45.441406 165.972656 C 45.507812 166.371094 46.308594 167.039062 47.835938 167.96875 C 49.332031 168.933594 51.0625 169.847656 53.023438 170.710938 C 53.355469 170.8125 53.523438 171.046875 53.523438 171.410156 C 53.523438 174.703125 53.738281 176.75 54.171875 177.546875 C 55.5 177.28125 58.859375 176.050781 64.246094 173.855469 L 65.195312 174.054688 L 68.585938 177.746094 C 69.816406 178.910156 70.632812 179.542969 71.03125 179.640625 C 71.664062 179.308594 73.191406 177.464844 75.621094 174.105469 L 80.808594 166.421875 C 81.9375 164.59375 84.367188 161.25 88.089844 156.394531 L 90.035156 153.851562 C 90.867188 152.789062 91.285156 151.109375 91.285156 148.8125 L 91.035156 145.472656 C 90.335938 141.082031 88.773438 136.644531 86.34375 132.152344 C 83.882812 127.699219 81.273438 124.503906 78.515625 122.578125 M 52.324219 148.117188 C 53.621094 141.796875 55.269531 136.960938 57.265625 133.601562 C 60.921875 127.449219 64.980469 123.324219 69.4375 121.230469 C 73.359375 119.335938 76.683594 119.335938 79.410156 121.230469 C 84.933594 125.085938 88.957031 131.023438 91.484375 139.039062 C 93.878906 146.6875 93.8125 152.125 91.285156 155.347656 C 87.160156 160.503906 84.132812 164.476562 82.207031 167.269531 L 76.816406 175.851562 C 74.257812 179.90625 72.542969 182.019531 71.679688 182.183594 C 70.382812 182.484375 67.9375 180.273438 64.347656 175.550781 C 62.054688 177.015625 59.757812 178.210938 57.464844 179.140625 C 55.234375 180.039062 53.804688 180.371094 53.175781 180.140625 C 52.640625 179.941406 52.292969 179.257812 52.125 178.09375 C 52.027344 177.195312 51.960938 175.152344 51.925781 171.960938 L 46.289062 169.566406 C 43.894531 168.402344 42.648438 167.386719 42.550781 166.523438 C 42.484375 165.789062 43.097656 164.726562 44.394531 163.328125 C 45.859375 161.734375 47.953125 160.070312 50.679688 158.339844 L 52.324219 148.117188 "/>
<path style=" stroke:none;fill-rule:nonzero;fill:rgb(5.098039%,7.450981%,10.196079%);fill-opacity:1;" d="M 153.136719 142.527344 C 151.40625 137.539062 148.367188 133.535156 144.007812 130.507812 C 143.875 130.40625 144.09375 130.058594 144.65625 129.460938 C 145.191406 128.828125 145.554688 128.578125 145.753906 128.710938 C 150.609375 132.105469 153.835938 136.726562 155.433594 142.578125 C 156.863281 147.800781 156.695312 152.222656 154.933594 155.847656 C 160.285156 158.140625 162.964844 159.9375 162.964844 161.234375 C 162.964844 162.03125 161.382812 163.480469 158.226562 165.574219 L 156.679688 164.277344 C 159.371094 162.648438 160.71875 161.601562 160.71875 161.136719 C 160.71875 160.769531 159.953125 160.171875 158.425781 159.339844 C 157.027344 158.542969 155.382812 157.757812 153.488281 156.996094 L 152.9375 156.496094 L 153.136719 155.746094 C 154.832031 151.789062 154.832031 147.382812 153.136719 142.527344 "/>
<path style=" stroke:none;fill-rule:nonzero;fill:rgb(5.098039%,7.450981%,10.196079%);fill-opacity:1;" d="M 162.464844 78.03125 C 162.964844 77.53125 163.28125 77.316406 163.414062 77.382812 C 165.707031 78.214844 168.832031 79.910156 172.789062 82.472656 C 177.082031 85.199219 180.007812 87.527344 181.570312 89.453125 C 181.9375 89.921875 181.984375 90.304688 181.71875 90.601562 C 181.421875 90.867188 181.085938 90.769531 180.722656 90.304688 C 179.226562 88.441406 176.097656 86.128906 171.34375 83.371094 C 167.019531 80.875 163.894531 79.378906 161.964844 78.878906 C 161.765625 78.8125 161.933594 78.53125 162.464844 78.03125 "/>
<path style=" stroke:none;fill-rule:nonzero;fill:rgb(5.098039%,7.450981%,10.196079%);fill-opacity:1;" d="M 179.125 87.707031 C 178.726562 87.34375 178.625 87.144531 178.828125 87.109375 L 183.316406 86.910156 C 185.113281 87.042969 186.207031 87.375 186.609375 87.910156 C 186.839844 88.242188 186.859375 88.972656 186.65625 90.101562 L 185.761719 93.246094 C 188.386719 94.042969 189.785156 94.976562 189.949219 96.039062 C 189.984375 96.40625 189.667969 97.054688 189.003906 97.984375 C 188.203125 99.117188 187.089844 100.277344 185.660156 101.476562 C 186.324219 102.308594 186.65625 103.207031 186.65625 104.171875 C 186.65625 105.132812 185.644531 106.214844 183.613281 107.414062 C 181.488281 108.644531 178.859375 109.605469 175.734375 110.304688 C 167.585938 112.132812 159.886719 111.402344 152.636719 108.109375 C 152.40625 108.011719 152.371094 107.644531 152.539062 107.011719 C 152.671875 106.347656 152.839844 106.066406 153.039062 106.164062 C 154.898438 106.996094 157.195312 107.695312 159.921875 108.261719 L 170.246094 109.257812 C 173.640625 109.257812 177.015625 108.527344 180.371094 107.0625 C 183.300781 105.765625 184.761719 104.769531 184.761719 104.070312 C 184.761719 103.503906 184.496094 102.722656 183.964844 101.726562 C 183.765625 101.394531 183.796875 101.078125 184.0625 100.777344 C 186.359375 98.484375 187.589844 96.96875 187.753906 96.238281 C 187.457031 95.738281 186.390625 95.15625 184.5625 94.492188 L 184.015625 94.144531 L 184.015625 93.546875 C 184.613281 91.449219 184.910156 89.921875 184.910156 88.957031 L 184.910156 88.855469 L 182.917969 88.457031 L 179.925781 88.308594 L 179.125 87.707031 "/>
<path style=" stroke:none;fill-rule:nonzero;fill:rgb(5.098039%,7.450981%,10.196079%);fill-opacity:1;" d="M 27.386719 86.5625 C 26.320312 86.261719 25.324219 86.261719 24.390625 86.5625 C 23.460938 86.894531 22.730469 87.476562 22.199219 88.308594 C 21.796875 88.972656 21.449219 89.222656 21.148438 89.054688 C 20.851562 88.890625 20.867188 88.472656 21.199219 87.808594 C 21.898438 86.410156 22.828125 85.496094 23.992188 85.066406 C 25.023438 84.699219 26.304688 84.683594 27.835938 85.015625 C 30.429688 85.582031 32.554688 87.09375 34.21875 89.554688 C 35.882812 91.949219 36.714844 94.660156 36.714844 97.683594 C 36.714844 102.339844 34.902344 106.449219 31.277344 110.007812 C 27.683594 113.496094 23.59375 115.242188 19.003906 115.242188 C 14.214844 115.242188 10.007812 113.132812 6.386719 108.910156 C 2.660156 104.617188 0.796875 99.5625 0.796875 93.746094 C 0.796875 84.601562 4.089844 77 10.675781 70.949219 C 16.761719 65.363281 23.761719 62.570312 31.675781 62.570312 C 39.789062 62.570312 45.941406 65.429688 50.132812 71.148438 C 54.355469 76.867188 56.351562 85.113281 56.117188 95.890625 C 56.082031 96.820312 55.785156 97.617188 55.21875 98.285156 C 54.652344 98.914062 54.386719 98.898438 54.421875 98.234375 C 55.054688 87.292969 53.15625 78.847656 48.734375 72.894531 C 44.644531 67.40625 38.957031 64.664062 31.675781 64.664062 C 25.023438 64.664062 18.921875 67.140625 13.367188 72.097656 C 7.015625 77.75 3.839844 84.964844 3.839844 93.746094 C 3.839844 99.199219 5.304688 103.804688 8.230469 107.5625 C 11.15625 111.320312 14.75 113.199219 19.003906 113.199219 C 23.09375 113.199219 26.605469 111.683594 29.53125 108.660156 C 32.421875 105.632812 33.871094 101.976562 33.871094 97.683594 C 33.871094 94.527344 33.171875 91.914062 31.773438 89.855469 C 30.578125 88.15625 29.113281 87.058594 27.386719 86.5625 "/>
<path style=" stroke:none;fill-rule:nonzero;fill:rgb(5.098039%,7.450981%,10.196079%);fill-opacity:1;" d="M 1.945312 100.429688 C 1.878906 100.230469 2.144531 100.179688 2.742188 100.277344 C 3.34375 100.378906 3.65625 100.496094 3.691406 100.628906 C 7.617188 112.101562 14.617188 122.027344 24.691406 130.40625 C 34.800781 138.855469 44.828125 143.078125 54.769531 143.078125 C 55.003906 143.078125 55.035156 143.425781 54.871094 144.125 C 54.703125 144.824219 54.503906 145.171875 54.269531 145.171875 C 44.230469 145.171875 34.035156 140.816406 23.695312 132.105469 C 13.152344 123.226562 5.902344 112.667969 1.945312 100.429688 "/>
<path style=" stroke:none;fill-rule:nonzero;fill:rgb(5.098039%,7.450981%,10.196079%);fill-opacity:1;" d="M 110.988281 154.050781 C 110.820312 153.953125 111.121094 153.71875 111.886719 153.351562 C 112.617188 152.988281 113.050781 152.839844 113.183594 152.90625 C 118.003906 155.367188 122.941406 159.773438 127.996094 166.125 L 132.535156 172.109375 C 133.832031 173.773438 134.714844 174.585938 135.179688 174.554688 C 138.371094 174.355469 142.976562 173.023438 148.996094 170.5625 C 154.75 168.203125 157.644531 166.621094 157.675781 165.824219 C 157.710938 165.492188 157.246094 165.058594 156.28125 164.527344 C 155.316406 163.996094 154.167969 163.546875 152.839844 163.179688 C 151.542969 162.78125 150.960938 162.414062 151.09375 162.082031 L 153.238281 161.933594 C 155.132812 162.300781 156.761719 162.929688 158.125 163.828125 C 159.390625 164.691406 159.921875 165.410156 159.722656 165.972656 C 159.023438 168.070312 155.367188 170.414062 148.746094 173.007812 C 142.230469 175.535156 137.472656 176.597656 134.480469 176.199219 C 133.75 176.101562 130.957031 173.222656 126.101562 167.570312 C 120.648438 161.152344 115.609375 156.644531 110.988281 154.050781 "/>
<path style=" stroke:none;fill-rule:nonzero;fill:rgb(5.098039%,7.450981%,10.196079%);fill-opacity:1;" d="M 100.261719 54.988281 C 100.496094 55.121094 100.695312 55.652344 100.859375 56.582031 C 101.0625 57.480469 101.0625 57.863281 100.859375 57.730469 C 98.933594 56.53125 94.359375 52.972656 87.144531 47.054688 C 80.691406 41.769531 77.285156 39.15625 76.917969 39.222656 C 76.453125 39.289062 75.789062 40.585938 74.921875 43.113281 C 74.125 45.542969 73.625 47.621094 73.425781 49.351562 C 73.292969 50.679688 73.027344 51.328125 72.628906 51.296875 C 72.230469 51.296875 72.03125 50.628906 72.03125 49.300781 C 72.0625 46.707031 72.511719 44.078125 73.375 41.417969 C 74.308594 38.660156 75.304688 37.160156 76.367188 36.929688 C 77.367188 36.730469 81.007812 39.242188 87.292969 44.460938 C 94.941406 50.847656 99.265625 54.355469 100.261719 54.988281 "/>
<path style=" stroke:none;fill-rule:nonzero;fill:rgb(5.098039%,7.450981%,10.196079%);fill-opacity:1;" d="M 112.535156 72.496094 L 113.382812 72.992188 C 113.582031 75.121094 113.316406 77.699219 112.582031 80.726562 C 111.820312 83.917969 110.804688 86.394531 109.539062 88.15625 C 106.515625 92.347656 102.757812 95.125 98.265625 96.488281 C 93.84375 97.851562 90.019531 97.484375 86.792969 95.390625 C 82.636719 92.695312 77.382812 84.914062 71.03125 72.046875 C 64.746094 59.375 62.121094 51.609375 63.152344 48.75 C 63.484375 47.820312 64.847656 47.289062 67.242188 47.15625 L 72.679688 47.503906 C 72.878906 47.539062 72.960938 47.820312 72.925781 48.351562 C 72.925781 48.882812 72.8125 49.132812 72.578125 49.101562 C 71.179688 49 69.71875 49 68.1875 49.101562 C 66.59375 49.234375 65.679688 49.417969 65.445312 49.648438 C 64.582031 52.109375 67.007812 59.359375 72.726562 71.398438 C 78.648438 83.835938 83.636719 91.367188 87.691406 93.992188 C 90.519531 95.855469 93.878906 96.089844 97.769531 94.691406 C 101.660156 93.296875 105 90.652344 107.792969 86.761719 C 109.089844 84.964844 110.15625 82.585938 110.988281 79.628906 C 111.785156 76.667969 112.035156 74.308594 111.734375 72.542969 L 112.535156 72.496094 "/>
<path style=" stroke:none;fill-rule:nonzero;fill:rgb(5.098039%,7.450981%,10.196079%);fill-opacity:1;" d="M 84.699219 48.101562 C 86.328125 49.167969 87.441406 50.148438 88.042969 51.046875 C 88.671875 52.042969 88.757812 52.691406 88.289062 52.992188 C 87.824219 53.257812 87.277344 52.90625 86.644531 51.945312 C 86.246094 51.3125 85.382812 50.628906 84.050781 49.898438 C 82.789062 49.199219 81.957031 48.902344 81.558594 49 C 81.222656 49.332031 80.976562 50.363281 80.808594 52.09375 C 80.640625 54.054688 80.675781 56.332031 80.910156 58.925781 C 81.042969 60.222656 80.824219 60.890625 80.261719 60.921875 C 79.726562 60.957031 79.410156 60.324219 79.3125 59.027344 C 78.679688 51.609375 79.113281 47.554688 80.609375 46.855469 C 81.472656 46.457031 82.835938 46.871094 84.699219 48.101562 "/>
</g>
</svg>
