<?xml version="1.0" encoding="UTF-8"?>
<svg xmlns="http://www.w3.org/2000/svg" xmlns:xlink="http://www.w3.org/1999/xlink" width="500px" height="360px" viewBox="0 0 500 360" version="1.1">
<g id="surface1">
<path style=" stroke:none;fill-rule:nonzero;fill:rgb(40.000001%,26.666668%,59.215689%);fill-opacity:1;" d="M 494.71875 154.316406 C 492.507812 159.023438 488.632812 163.054688 483.101562 166.398438 C 480.636719 167.878906 477.820312 169.203125 474.652344 170.367188 L 468.015625 172.820312 C 464.191406 174.414062 462.734375 177.0625 463.640625 180.757812 C 460.269531 183.792969 455.464844 185.625 449.230469 186.246094 C 445.308594 186.636719 439.199219 186.539062 430.898438 185.953125 L 411.8125 185.429688 C 405.023438 185.855469 399.566406 187.394531 395.445312 190.039062 C 393.933594 191.011719 393.105469 192.550781 392.953125 194.652344 C 392.753906 196.871094 393.457031 198.949219 395.066406 200.898438 C 399.390625 206.109375 407.789062 207.960938 420.261719 206.441406 C 414.328125 212.203125 404.394531 216.363281 390.464844 218.933594 L 376.433594 221.558594 C 372.007812 222.609375 369.066406 223.972656 367.605469 225.644531 C 364.4375 229.34375 362.929688 232.785156 363.082031 235.976562 C 363.230469 238.933594 364.742188 241.074219 367.605469 242.398438 C 370.375 243.683594 374.722656 243.800781 380.65625 242.75 C 387.246094 241.582031 391.144531 239.304688 392.351562 235.917969 C 394.261719 235.453125 395.972656 236.445312 397.480469 238.894531 C 399.089844 241.542969 401 242.769531 403.214844 242.574219 L 418.375 242.105469 C 426.324219 241.640625 433.136719 240.375 438.820312 238.3125 C 442.691406 236.910156 445.609375 237.183594 447.570312 239.128906 C 449.332031 240.882812 450.160156 243.644531 450.058594 247.417969 C 450.011719 251 449.15625 254.695312 447.496094 258.507812 C 445.835938 262.4375 443.699219 265.511719 441.082031 267.730469 C 436.859375 271.3125 431 272.75 423.507812 272.050781 L 414.679688 271.410156 C 411.359375 271.410156 408.496094 272.011719 406.082031 273.21875 C 404.070312 274.230469 401.65625 276.410156 398.839844 279.757812 C 396.222656 282.90625 392.878906 285.300781 388.804688 286.9375 C 383.425781 289.113281 377.238281 289.796875 370.246094 288.980469 C 363.257812 288.199219 358.101562 286.253906 354.78125 283.140625 C 349.804688 278.472656 344.046875 276.117188 337.507812 276.078125 C 332.226562 276.078125 326.042969 277.636719 318.949219 280.75 C 316.535156 281.839844 315.027344 284.132812 314.421875 287.636719 C 313.769531 291.371094 314.5 294.796875 316.613281 297.910156 C 322.445312 306.507812 334.714844 308.046875 353.425781 302.519531 C 344.675781 313.183594 334.941406 319.722656 324.230469 322.132812 C 317.894531 323.535156 310.527344 323.4375 302.128906 321.839844 C 298.40625 321.140625 294.332031 318.359375 289.90625 313.496094 C 285.730469 308.980469 282.5625 306.742188 280.402344 306.78125 C 265.3125 307.09375 255.078125 309.019531 249.699219 312.5625 C 247.636719 313.882812 246.027344 315.617188 244.871094 317.753906 L 242.378906 323.535156 C 240.769531 327.230469 235.492188 329.917969 226.539062 331.589844 C 217.335938 333.300781 210.671875 332.445312 206.546875 329.019531 C 200.863281 324.273438 196.589844 320.925781 193.722656 318.980469 C 188.996094 315.789062 184.871094 313.882812 181.351562 313.261719 L 168.148438 310.808594 C 161.3125 309.796875 157.890625 310.050781 157.890625 311.566406 C 157.890625 318.882812 157.414062 323.339844 156.457031 324.933594 C 154.898438 327.582031 150.648438 329.058594 143.707031 329.371094 C 140.890625 329.488281 136.191406 328.789062 129.601562 327.269531 C 122.5625 325.636719 115.546875 323.535156 108.554688 320.964844 C 90.097656 314.195312 79.761719 307.230469 77.550781 300.070312 C 76.34375 296.253906 77.5 292.714844 81.019531 289.445312 L 84.792969 286.117188 C 85.949219 284.988281 86.425781 283.996094 86.226562 283.140625 C 85.117188 277.886719 81.09375 274.308594 74.15625 272.402344 C 66.511719 271.195312 61.683594 269.988281 59.671875 268.78125 C 56.957031 267.148438 54.113281 263.394531 51.148438 257.515625 C 48.53125 252.300781 47.097656 248.410156 46.847656 245.84375 C 46.695312 244.558594 45.386719 243.859375 42.925781 243.742188 C 40.058594 243.546875 38.171875 242.867188 37.265625 241.699219 C 35.707031 239.597656 34.347656 236.699219 33.191406 233 C 31.933594 228.992188 32.0625 227.105469 33.570312 227.339844 L 39.527344 228.039062 C 41.84375 227.960938 42.949219 227.046875 42.847656 225.296875 C 42.648438 221.988281 41.765625 219.554688 40.207031 218 L 33.945312 213.621094 C 30.527344 211.285156 26.480469 209.945312 21.800781 209.59375 C 17.878906 209.28125 15.515625 208.523438 14.710938 207.316406 C 13.152344 204.90625 11.339844 201.597656 9.277344 197.394531 C 6.414062 191.558594 4.777344 187.277344 4.375 184.554688 C 2.96875 175.292969 2.992188 166.28125 4.449219 157.527344 C 5.304688 152.039062 7.417969 143.808594 10.789062 132.835938 C 11.089844 131.824219 12.847656 134.605469 16.066406 141.183594 C 19.6875 148.617188 22.355469 152.507812 24.066406 152.859375 L 33.042969 153.324219 C 36.914062 152.625 39.65625 150.601562 41.265625 147.253906 C 43.527344 142.546875 41.941406 135.910156 36.511719 127.347656 L 29.796875 116.902344 C 27.382812 112.894531 25.898438 109.488281 25.347656 106.6875 C 24.691406 103.339844 25.296875 100.148438 27.15625 97.113281 C 28.917969 94.195312 31.558594 91.859375 35.078125 90.109375 C 43.277344 86.101562 51.824219 86.585938 60.726562 91.566406 C 64.550781 93.707031 68.398438 92.054688 72.269531 86.605469 C 75.839844 81.625 77.296875 78.046875 76.644531 75.867188 C 76.191406 74.191406 75.035156 72.011719 73.175781 69.328125 C 71.515625 66.953125 70.683594 65.535156 70.683594 65.066406 C 70.835938 61.835938 73.628906 58.042969 79.058594 53.683594 C 84.792969 49.09375 89.671875 47.402344 93.695312 48.605469 C 97.917969 49.851562 103.800781 52.304688 111.347656 55.960938 C 118.738281 59.503906 123.617188 62.1875 125.980469 64.015625 C 128.546875 66 133.273438 67.070312 140.164062 67.226562 C 147.253906 67.421875 150.800781 66.195312 150.800781 63.550781 C 150.800781 60.242188 151.628906 57.945312 153.289062 56.660156 C 155.25 55.066406 158.242188 55.359375 162.265625 57.539062 C 164.378906 58.667969 166.640625 58.917969 169.054688 58.296875 C 171.167969 57.75 173.003906 56.660156 174.5625 55.027344 C 176.070312 53.433594 176.800781 51.855469 176.75 50.300781 C 176.699219 48.585938 175.644531 47.34375 173.582031 46.5625 C 168.351562 44.617188 165.15625 41.289062 164 36.582031 C 162.644531 31.054688 165.761719 26.289062 173.355469 22.28125 C 180.347656 18.546875 187.410156 15.78125 194.554688 13.992188 C 198.726562 12.941406 204.058594 12.046875 210.546875 11.308594 C 212.003906 13.292969 213.839844 15.0625 216.054688 16.621094 C 218.46875 18.332031 220.453125 19.070312 222.011719 18.835938 C 223.117188 18.683594 226.941406 15.9375 233.480469 10.605469 C 241.273438 5.355469 249.121094 2.726562 257.015625 2.726562 C 267.425781 2.726562 275.371094 3.777344 280.855469 5.878906 C 286.636719 8.097656 286.636719 10.472656 280.855469 13 C 263.351562 20.820312 255.105469 26.757812 256.109375 30.804688 C 256.714844 33.410156 259.101562 36.289062 263.277344 39.441406 C 267.097656 42.285156 270.167969 43.859375 272.480469 44.171875 C 274.039062 44.363281 276.882812 43.507812 281.003906 41.601562 C 285.933594 39.304688 288.773438 38.0625 289.527344 37.867188 C 291.039062 37.476562 291.816406 37.710938 291.867188 38.566406 C 292.070312 40.242188 292.394531 41.367188 292.847656 41.953125 C 294.40625 43.9375 296.949219 45.300781 300.46875 46.039062 C 303.988281 46.777344 306.90625 46.503906 309.21875 45.222656 C 310.175781 44.714844 310.953125 43.585938 311.558594 41.835938 C 312.160156 39.617188 312.714844 37.90625 313.214844 36.699219 C 315.179688 31.953125 319.152344 28.976562 325.136719 27.769531 C 331.171875 26.523438 340.023438 26.09375 351.691406 26.484375 C 363.960938 26.914062 371.984375 28.136719 375.753906 30.160156 C 381.738281 33.390625 384.179688 36.308594 383.070312 38.917969 C 381.863281 41.71875 376.710938 43.585938 367.605469 44.519531 C 361.472656 45.144531 356.191406 46.351562 351.765625 48.140625 C 346.535156 50.242188 344.875 52.460938 346.785156 54.792969 C 347.894531 56.15625 350.757812 56.855469 355.386719 56.894531 C 359.8125 56.894531 362.554688 57.789062 363.609375 59.582031 C 364.210938 60.554688 363.332031 61.644531 360.96875 62.847656 C 357.648438 64.523438 355.738281 65.613281 355.234375 66.117188 C 353.726562 67.597656 353.023438 69.289062 353.125 71.195312 C 353.273438 73.257812 354.554688 74.289062 356.96875 74.289062 C 359.234375 74.289062 361.320312 73.863281 363.230469 73.007812 L 368.511719 70.203125 C 370.375 70.90625 371.355469 71.761719 371.453125 72.773438 C 371.554688 73.316406 371.226562 74.425781 370.472656 76.097656 C 368.863281 79.875 369.519531 83.375 372.433594 86.605469 C 375.25 89.71875 378.09375 91.566406 380.960938 92.152344 C 385.082031 92.96875 389.636719 91.46875 394.613281 87.65625 L 405.476562 79.484375 C 408.996094 77.074219 412.441406 75.28125 415.8125 74.113281 C 423.203125 71.546875 434.996094 70.925781 451.191406 72.246094 C 454.410156 72.519531 457.226562 73.589844 459.640625 75.457031 C 461.804688 77.09375 463.285156 79.078125 464.089844 81.410156 C 464.894531 83.707031 464.820312 85.691406 463.867188 87.363281 C 462.859375 89.195312 461 90.207031 458.28125 90.402344 L 444.703125 90.109375 L 431.578125 89.175781 C 422.476562 88.902344 418.101562 91.46875 418.453125 96.878906 C 401.152344 100.578125 390.238281 108.027344 385.710938 119.234375 C 383.902344 123.671875 383.375 128.265625 384.128906 133.011719 C 384.78125 137.332031 386.339844 141.046875 388.804688 144.160156 C 391.570312 147.585938 395.367188 150.113281 400.195312 151.75 C 404.671875 153.226562 409.449219 153.773438 414.527344 153.382812 C 419.507812 152.992188 423.882812 151.789062 427.65625 149.765625 C 431.628906 147.625 434.242188 144.898438 435.5 141.59375 C 436.960938 137.738281 440.003906 135.597656 444.628906 135.171875 C 447.546875 134.898438 451.519531 135.386719 456.546875 136.628906 C 457.203125 136.785156 458.886719 138.226562 461.601562 140.949219 C 464.015625 143.363281 467.636719 144.761719 472.464844 145.152344 L 493.890625 147.253906 C 496.503906 147.527344 496.78125 149.878906 494.71875 154.316406 "/>
<path style=" stroke:none;fill-rule:nonzero;fill:rgb(40.000001%,26.666668%,59.215689%);fill-opacity:1;" d="M 244.871094 336.257812 C 247.234375 334.3125 249.195312 333.203125 250.753906 332.933594 C 251.054688 332.894531 252.992188 333.730469 256.5625 335.441406 C 260.335938 337.230469 264.234375 338.070312 268.257812 337.953125 L 276.328125 336.84375 C 279.695312 336.296875 282.386719 336.257812 284.398438 336.726562 C 285.707031 337.039062 287.492188 337.992188 289.753906 339.585938 C 291.917969 341.105469 293.527344 342.484375 294.582031 343.730469 C 296.445312 345.910156 295.941406 348.535156 293.074219 351.609375 C 290.410156 354.453125 285.832031 356.417969 279.34375 357.507812 L 263.050781 358.324219 C 255.304688 357.972656 249.320312 356.28125 245.097656 353.246094 C 240.671875 350.09375 239.1875 346.125 240.644531 341.335938 C 241.046875 339.898438 242.457031 338.203125 244.871094 336.257812 "/>
<path style=" stroke:none;fill-rule:nonzero;fill:rgb(40.000001%,26.666668%,59.215689%);fill-opacity:1;" d="M 155.628906 6.519531 C 159.449219 6.519531 161.386719 7.4375 161.4375 9.265625 C 161.488281 10.277344 160.65625 12.164062 158.945312 14.925781 C 157.941406 16.601562 156.40625 18.292969 154.34375 20.003906 L 148.613281 24.324219 C 147.40625 25.179688 144.160156 28.3125 138.878906 33.722656 C 135.359375 37.261719 131.890625 39.265625 128.46875 39.734375 L 115.191406 39.441406 C 112.175781 38.351562 110.1875 35.941406 109.234375 32.203125 C 108.78125 30.6875 108.628906 28.46875 108.78125 25.550781 C 108.933594 22.085938 109.585938 20.042969 110.742188 19.421875 C 112.300781 18.605469 114.4375 18.078125 117.15625 17.84375 C 120.523438 17.496094 122.8125 17.144531 124.019531 16.792969 L 129.601562 13.292969 C 132.21875 11.308594 135.738281 9.789062 140.164062 8.738281 C 146.398438 7.261719 151.554688 6.519531 155.628906 6.519531 "/>
<path style=" stroke:none;fill-rule:nonzero;fill:rgb(40.000001%,26.666668%,59.215689%);fill-opacity:1;" d="M 422.753906 287.050781 L 424.863281 286.175781 C 425.316406 286.175781 425.996094 286.488281 426.902344 287.109375 C 427.402344 287.460938 428.609375 287.910156 430.523438 288.453125 C 432.28125 289 433.414062 289.503906 433.917969 289.972656 C 436.078125 292.074219 436.054688 294.816406 433.839844 298.203125 C 431.828125 301.199219 429.0625 304.15625 425.542969 307.074219 C 421.820312 310.226562 417.925781 312.753906 413.851562 314.660156 C 410.683594 316.140625 406.734375 316.722656 402.007812 316.414062 C 397.933594 316.140625 393.835938 315.265625 389.710938 313.785156 C 387.847656 313.125 386.0625 311.996094 384.355469 310.402344 C 382.191406 308.378906 381.386719 306.429688 381.941406 304.5625 C 382.996094 301.140625 386.820312 298.707031 393.40625 297.265625 C 397.078125 296.449219 402.785156 295.574219 410.53125 294.640625 C 413.144531 294.171875 415.410156 293.105469 417.320312 291.429688 C 420.289062 288.902344 422.097656 287.441406 422.753906 287.050781 "/>
<path style=" stroke:none;fill-rule:nonzero;fill:rgb(40.000001%,26.666668%,59.215689%);fill-opacity:1;" d="M 491.324219 196.8125 C 493.085938 197.394531 493.6875 198.949219 493.136719 201.480469 L 491.023438 207.140625 C 490.117188 209.359375 487.828125 211.441406 484.15625 213.386719 C 479.78125 215.410156 476.613281 217.046875 474.652344 218.292969 C 470.175781 221.210938 464.621094 223.351562 457.980469 224.710938 C 449.683594 226.386719 444.703125 225.042969 443.042969 220.683594 C 441.835938 217.453125 442.894531 212.941406 446.214844 207.140625 C 449.179688 201.96875 452.023438 198.601562 454.738281 197.042969 C 455.84375 196.421875 457.554688 196.148438 459.867188 196.226562 L 464.921875 196.871094 C 468.695312 197.917969 473.597656 197.996094 479.632812 197.101562 L 491.324219 196.8125 "/>
<path style=" stroke:none;fill-rule:nonzero;fill:rgb(40.000001%,26.666668%,59.215689%);fill-opacity:1;" d="M 490.722656 107.152344 C 492.53125 107.542969 493.613281 108.691406 493.964844 110.597656 C 494.265625 112.269531 493.941406 113.691406 492.984375 114.859375 L 491.703125 115.792969 L 490.34375 116.726562 C 490.191406 116.921875 490.09375 117.289062 490.042969 117.835938 L 489.589844 118.828125 C 488.382812 119.957031 486.269531 120.949219 483.253906 121.804688 C 480.234375 122.699219 477.898438 122.953125 476.238281 122.5625 C 472.515625 121.746094 470.605469 120.054688 470.503906 117.484375 C 470.402344 115.96875 471.058594 113.90625 472.464844 111.296875 C 473.269531 109.703125 475.734375 108.4375 479.859375 107.503906 L 490.722656 107.152344 "/>
<path style=" stroke:none;fill-rule:nonzero;fill:rgb(31.764707%,18.82353%,55.686277%);fill-opacity:1;" d="M 301.824219 92.851562 C 304.945312 88.53125 308.515625 85.109375 312.539062 82.578125 C 317.816406 79.269531 320.683594 80.496094 321.136719 86.257812 C 321.539062 91.238281 326.445312 95.265625 335.847656 98.339844 L 345.65625 101.492188 C 348.722656 102.699219 350.382812 104.019531 350.632812 105.460938 C 350.984375 107.640625 350.15625 109.488281 348.144531 111.003906 C 346.886719 111.976562 344.546875 113.105469 341.128906 114.390625 C 337.457031 115.792969 335.019531 116.882812 333.8125 117.660156 C 331.546875 119.097656 330.441406 120.8125 330.492188 122.796875 C 330.492188 124.3125 331.144531 125.792969 332.453125 127.234375 L 336 130.617188 C 338.664062 133.1875 338.363281 135.988281 335.09375 139.023438 C 332.578125 141.359375 332.832031 142.992188 335.847656 143.925781 C 337.910156 144.550781 342.058594 144.976562 348.296875 145.210938 L 362.25 146.027344 C 366.527344 146.691406 368.3125 147.933594 367.605469 149.765625 L 364.4375 157 C 363.082031 160.230469 362.328125 162.898438 362.175781 165 C 361.621094 171.265625 365.769531 175.175781 374.621094 176.730469 C 380.558594 177.78125 382.441406 180.15625 380.28125 183.851562 L 371.90625 193.367188 C 370.347656 195.234375 368.839844 197.53125 367.378906 200.253906 L 364.136719 206.5 C 361.570312 210.820312 357.574219 213.484375 352.140625 214.496094 C 349.023438 215.082031 346.558594 216.34375 344.75 218.292969 C 343.140625 220.082031 342.511719 221.8125 342.863281 223.488281 C 343.113281 224.652344 344.398438 226.542969 346.710938 229.148438 C 348.824219 231.5625 349.855469 233.46875 349.804688 234.867188 C 349.804688 238.058594 346.988281 240.917969 341.355469 243.449219 C 334.464844 246.445312 324.632812 248.175781 311.859375 248.644531 C 308.289062 248.800781 307.132812 250.863281 308.386719 254.832031 L 310.5 260.550781 C 311.355469 262.964844 311.808594 264.988281 311.859375 266.621094 C 311.910156 268.761719 308.941406 271.527344 302.957031 274.910156 C 296.769531 278.335938 293.550781 281.371094 293.300781 284.015625 C 292.796875 288.804688 290.960938 291.566406 287.792969 292.304688 L 282.816406 292.539062 L 277.007812 292.421875 L 256.414062 292.949219 C 249.121094 293.609375 244.820312 295.476562 243.511719 298.550781 C 242.203125 301.664062 237.777344 303.921875 230.234375 305.324219 C 222.492188 306.761719 216.882812 306.042969 213.414062 303.164062 C 210.292969 300.59375 206.496094 298.6875 202.023438 297.441406 L 191.082031 295.398438 C 190.480469 295.320312 186.984375 293.726562 180.597656 290.613281 C 175.214844 288.042969 172.527344 287.34375 172.527344 288.511719 C 172.527344 294.230469 171.066406 297.871094 168.148438 299.425781 C 164.628906 301.257812 157.539062 301.3125 146.875 299.601562 C 144.363281 296.839844 141.195312 294.777344 137.371094 293.414062 C 135.511719 292.714844 132.292969 291.917969 127.714844 291.023438 C 123.945312 290.28125 121.253906 289.40625 119.644531 288.394531 C 117.28125 286.957031 115.769531 284.699219 115.117188 281.625 C 113.359375 272.789062 107.246094 267.671875 96.785156 266.273438 L 84.488281 265.046875 C 80.0625 264.386719 76.871094 263.121094 74.910156 261.253906 C 72.597656 259.035156 70.835938 256.777344 69.628906 254.480469 C 67.617188 250.667969 68.195312 248.117188 71.363281 246.835938 C 75.285156 245.277344 76.117188 242.789062 73.851562 239.363281 L 70.910156 234.925781 C 69.957031 233.097656 69.730469 231.484375 70.230469 230.082031 L 73.550781 223.195312 C 75.210938 219.769531 76.015625 217.375 75.964844 216.015625 C 75.765625 212.628906 75.210938 210.253906 74.304688 208.894531 C 73.199219 207.296875 71.261719 206.421875 68.496094 206.265625 C 56.125 205.527344 49.359375 202.21875 48.203125 196.34375 L 47.527344 188.753906 C 47.074219 185.796875 45.765625 183.484375 43.601562 181.808594 C 38.976562 178.269531 39.929688 172.722656 46.46875 165.171875 C 48.832031 162.371094 51.472656 159.941406 54.390625 157.878906 C 57.207031 155.894531 59.117188 154.996094 60.125 155.191406 C 67.515625 156.828125 72.34375 155.25 74.609375 150.464844 C 75.613281 148.402344 76.140625 144.917969 76.191406 140.015625 L 76.34375 127.117188 C 77.097656 116.804688 81.773438 111.785156 90.375 112.054688 C 95 112.210938 98.648438 110.304688 101.3125 106.335938 C 104.078125 102.25 105.085938 96.976562 104.332031 90.515625 C 104.179688 89 103.273438 87.171875 101.613281 85.03125 C 100.105469 82.96875 99.351562 81.78125 99.351562 81.46875 C 99.402344 79.171875 106.667969 78.046875 121.152344 78.085938 C 135.433594 78.085938 143.660156 78.921875 145.820312 80.59375 C 150.246094 84.019531 154.824219 85.730469 159.550781 85.730469 C 164.277344 85.730469 166.640625 83.882812 166.640625 80.1875 C 166.640625 77.8125 168.90625 76.082031 173.429688 74.992188 C 177.957031 73.941406 182.28125 74.09375 186.40625 75.457031 C 195.558594 78.53125 204.335938 77.128906 212.734375 71.253906 L 221.636719 64.132812 C 224.804688 61.566406 227.367188 60.046875 229.332031 59.582031 C 236.320312 57.984375 242.40625 59.25 247.585938 63.375 C 252.164062 67.03125 256.816406 73.667969 261.542969 83.277344 C 265.011719 90.402344 271.625 95.128906 281.382812 97.464844 C 285.707031 98.476562 289.65625 98.628906 293.226562 97.929688 C 297.097656 97.152344 299.964844 95.460938 301.824219 92.851562 "/>
<path style=" stroke:none;fill-rule:nonzero;fill:rgb(31.764707%,18.82353%,55.686277%);fill-opacity:1;" d="M 260.484375 346.648438 C 263.152344 345.597656 266.144531 345.035156 269.460938 344.957031 L 280.097656 343.730469 C 284.726562 343.226562 287.441406 343.4375 288.246094 344.371094 C 290.660156 347.253906 289.226562 349.976562 283.945312 352.542969 C 278.765625 355.035156 272.707031 356.125 265.765625 355.8125 C 261.390625 355.578125 258.324219 354.898438 256.5625 353.769531 C 255.003906 352.757812 254.652344 351.550781 255.507812 350.152344 C 256.261719 348.828125 257.921875 347.660156 260.484375 346.648438 "/>
<path style=" stroke:none;fill-rule:nonzero;fill:rgb(31.764707%,18.82353%,55.686277%);fill-opacity:1;" d="M 416.414062 309.699219 C 413.195312 311.179688 410.378906 311.859375 407.964844 311.742188 C 406.105469 311.664062 403.136719 310.886719 399.066406 309.410156 L 395.519531 308.53125 C 394.613281 308.066406 394.4375 306.9375 394.992188 305.148438 C 396.046875 301.800781 398.964844 299.835938 403.742188 299.253906 L 418.226562 298.027344 C 425.066406 296.742188 428.335938 297.5 428.03125 300.300781 C 427.679688 303.105469 423.808594 306.238281 416.414062 309.699219 "/>
<path style=" stroke:none;fill-rule:nonzero;fill:rgb(31.764707%,18.82353%,55.686277%);fill-opacity:1;" d="M 451.265625 210.585938 C 451.417969 208.5625 452.828125 206.8125 455.492188 205.332031 C 456.347656 204.828125 458.558594 204.847656 462.128906 205.390625 L 468.617188 205.800781 C 473.699219 203.816406 477.871094 203.328125 481.140625 204.339844 C 483.957031 205.195312 485.011719 206.480469 484.308594 208.191406 C 483.453125 210.253906 481.492188 211.539062 478.425781 212.046875 C 474.300781 212.707031 471.484375 213.542969 469.976562 214.554688 C 467.109375 216.460938 464.089844 217.414062 460.921875 217.414062 C 458.15625 217.414062 455.820312 216.714844 453.90625 215.316406 C 452.046875 213.953125 451.167969 212.375 451.265625 210.585938 "/>
<path style=" stroke:none;fill-rule:nonzero;fill:rgb(31.764707%,18.82353%,55.686277%);fill-opacity:1;" d="M 485.515625 112.289062 C 486.472656 112.523438 487.023438 113.105469 487.175781 114.039062 C 487.328125 114.9375 487.175781 115.695312 486.722656 116.316406 L 486.042969 116.785156 L 485.363281 117.25 L 485.140625 117.835938 L 484.914062 118.359375 C 484.308594 118.945312 483.226562 119.46875 481.667969 119.9375 L 477.972656 120.285156 C 476.0625 119.859375 475.082031 118.984375 475.03125 117.660156 C 474.980469 116.84375 475.332031 115.773438 476.085938 114.449219 C 476.488281 113.632812 477.769531 112.988281 479.933594 112.523438 L 485.515625 112.289062 "/>
<path style=" stroke:none;fill-rule:nonzero;fill:rgb(24.313726%,30.588236%,34.117648%);fill-opacity:1;" d="M 314.199219 227.746094 C 307.359375 239.773438 297.800781 250.472656 285.53125 259.851562 C 273.210938 269.230469 259.230469 276.507812 243.585938 281.683594 C 227.394531 287.050781 210.671875 289.738281 193.421875 289.738281 C 176.171875 289.738281 159.652344 287.070312 143.859375 281.742188 C 128.671875 276.605469 115.167969 269.347656 103.347656 259.96875 C 91.632812 250.628906 82.527344 239.945312 76.042969 227.921875 C 69.351562 215.46875 66.007812 202.492188 66.007812 188.988281 C 66.007812 159.84375 77.5 136.085938 100.484375 117.71875 C 123.867188 99.039062 154.496094 89.699219 192.367188 89.699219 C 209.667969 89.699219 226.464844 92.289062 242.757812 97.464844 C 258.550781 102.484375 272.632812 109.527344 285.003906 118.59375 C 297.476562 127.777344 307.15625 138.265625 314.046875 150.054688 C 321.238281 162.429688 324.835938 175.332031 324.835938 188.753906 C 324.835938 202.21875 321.289062 215.21875 314.199219 227.746094 "/>
<path style=" stroke:none;fill-rule:nonzero;fill:rgb(92.941177%,52.156866%,60.000002%);fill-opacity:1;" d="M 160.078125 262.945312 C 144.238281 262.867188 130.933594 261.3125 120.171875 258.277344 C 108.65625 255.046875 97.917969 249.578125 87.960938 241.875 C 100.734375 240.238281 127.363281 238.875 167.847656 237.789062 C 208.636719 236.738281 236.875 236.679688 252.566406 237.613281 C 240.996094 245.550781 227.542969 251.699219 212.207031 256.058594 C 195.859375 260.726562 178.484375 263.023438 160.078125 262.945312 "/>
<path style=" stroke:none;fill-rule:nonzero;fill:rgb(100%,100%,100%);fill-opacity:1;" d="M 304.390625 122.328125 C 309.269531 128.515625 312.589844 136.164062 314.347656 145.269531 C 316.160156 154.609375 316.007812 164.085938 313.894531 173.695312 C 308.867188 196.578125 295.085938 213.367188 272.554688 224.070312 C 262.195312 228.972656 251.40625 231.523438 240.191406 231.714844 C 229.632812 231.910156 219.546875 230.003906 209.941406 225.996094 C 200.539062 222.105469 192.617188 216.617188 186.179688 209.535156 C 179.542969 202.21875 175.191406 193.96875 173.128906 184.785156 C 184.996094 178.171875 199.355469 170.601562 216.203125 162.082031 C 249.898438 145.074219 279.292969 131.824219 304.390625 122.328125 "/>
<path style=" stroke:none;fill-rule:nonzero;fill:rgb(100%,100%,100%);fill-opacity:1;" d="M 100.105469 160.269531 L 134.277344 186.1875 C 134.832031 191.441406 133.425781 197.375 130.054688 203.992188 C 126.632812 210.761719 122.082031 216.308594 116.398438 220.625 C 110.011719 225.492188 103.375 227.785156 96.484375 227.515625 C 88.539062 227.203125 80.917969 223.390625 73.628906 216.074219 C 62.210938 204.59375 55.546875 190.078125 53.636719 172.527344 C 51.925781 156.261719 54.464844 141.554688 61.253906 128.398438 C 63.820312 131.707031 76.769531 142.332031 100.105469 160.269531 "/>
<path style=" stroke:none;fill-rule:nonzero;fill:rgb(100%,100%,100%);fill-opacity:1;" d="M 234.835938 237.261719 C 235.289062 239.597656 235.089844 244.34375 234.234375 251.503906 C 233.378906 258.625 232.523438 262.75 231.667969 263.878906 C 228.601562 261.972656 225.332031 258.351562 221.863281 253.023438 C 218.089844 247.339844 215.777344 242.085938 214.921875 237.261719 L 234.835938 237.261719 "/>
<path style=" stroke:none;fill-rule:nonzero;fill:rgb(100%,100%,100%);fill-opacity:1;" d="M 113.835938 240.179688 L 114.136719 251.914062 C 114.136719 257.089844 113.960938 260.453125 113.609375 262.011719 C 110.039062 259.363281 106.441406 255.511719 102.820312 250.453125 C 99.804688 246.210938 98.019531 243.136719 97.464844 241.230469 L 113.835938 240.179688 "/>
<path style=" stroke:none;fill-rule:nonzero;fill:rgb(31.764707%,18.82353%,55.686277%);fill-opacity:1;" d="M 134.128906 19.828125 C 136.691406 19.828125 138.832031 20.804688 140.539062 22.75 C 142.199219 24.65625 142.402344 26.074219 141.144531 27.007812 L 135.109375 32.847656 C 132.894531 35.066406 130.707031 36.328125 128.546875 36.640625 L 120.246094 36.40625 C 118.335938 35.746094 117.078125 34.246094 116.476562 31.914062 C 115.46875 27.867188 117.054688 24.753906 121.226562 22.574219 C 124.648438 20.746094 128.949219 19.828125 134.128906 19.828125 "/>
<path style=" stroke:none;fill-rule:nonzero;fill:rgb(31.764707%,18.82353%,55.686277%);fill-opacity:1;" d="M 431.578125 157.703125 C 440.027344 155.796875 445.710938 154.0625 448.628906 152.507812 C 451.394531 151.027344 453.453125 150.40625 454.8125 150.640625 C 455.917969 150.796875 456.824219 151.574219 457.527344 152.972656 L 459.488281 157.527344 C 460.546875 159.511719 461.929688 161.066406 463.640625 162.195312 C 465.550781 163.441406 465.398438 165.347656 463.1875 167.917969 C 461.226562 170.175781 458.257812 172.371094 454.285156 174.511719 C 450.261719 176.691406 446.792969 177.9375 443.875 178.25 C 440.605469 178.636719 439.046875 177.644531 439.199219 175.273438 C 439.347656 173.015625 437.839844 171.554688 434.671875 170.894531 L 424.941406 170.425781 L 416.792969 169.785156 C 415.03125 169.085938 415.207031 167.527344 417.320312 165.117188 C 420.386719 161.652344 425.140625 159.179688 431.578125 157.703125 "/>
<path style=" stroke:none;fill-rule:nonzero;fill:rgb(31.764707%,18.82353%,55.686277%);fill-opacity:1;" d="M 403.96875 251.503906 C 411.210938 253.179688 418.148438 254.09375 424.789062 254.246094 C 434.496094 254.441406 437.085938 256.71875 432.558594 261.078125 C 430.847656 262.710938 428.460938 264.269531 425.390625 265.746094 C 422.425781 267.1875 419.9375 268.023438 417.925781 268.257812 C 416.464844 268.414062 414.125 268.414062 410.910156 268.257812 C 407.589844 268.101562 405.050781 268.101562 403.289062 268.257812 C 397.003906 268.839844 391.648438 271.757812 387.222656 277.011719 C 380.882812 284.523438 376.761719 286.351562 374.847656 282.5 C 374.347656 281.449219 373.867188 279.523438 373.414062 276.722656 C 373.011719 274.191406 372.609375 272.671875 372.207031 272.167969 C 370.902344 270.648438 367.757812 268.859375 362.777344 266.796875 C 359.058594 265.28125 357.398438 263.355469 357.800781 261.019531 C 358.753906 255.804688 361.394531 253.082031 365.722656 252.847656 C 367.230469 252.769531 368.765625 253.003906 370.324219 253.546875 C 371.679688 254.09375 372.535156 254.636719 372.886719 255.183594 C 374.144531 257.128906 377.515625 257.828125 382.996094 257.285156 C 388.476562 256.699219 392.601562 255.203125 395.367188 252.789062 C 396.675781 251.660156 397.984375 251.039062 399.289062 250.921875 L 403.96875 251.503906 "/>
<path style=" stroke:none;fill-rule:nonzero;fill:rgb(31.764707%,18.82353%,55.686277%);fill-opacity:1;" d="M 245.851562 47.382812 C 240.167969 49.792969 235.566406 49.328125 232.046875 45.980469 C 230.789062 44.773438 227.695312 44.675781 222.765625 45.6875 C 217.585938 46.777344 213.789062 46.542969 211.375 44.988281 C 208.007812 42.886719 204.007812 41.503906 199.382812 40.84375 C 194.90625 40.222656 192.015625 40.472656 190.707031 41.601562 C 189.449219 42.730469 188.820312 42.4375 188.820312 40.726562 C 188.820312 39.015625 189.5 37.109375 190.855469 35.007812 C 194.929688 28.859375 200.941406 27.027344 208.886719 29.519531 L 219.371094 30.335938 C 223.796875 29.949219 228.222656 28.058594 232.648438 24.675781 C 236.269531 21.871094 240.445312 19.984375 245.171875 19.011719 C 249.75 18.117188 252.035156 18.546875 252.035156 20.296875 C 252.035156 21.425781 250.90625 23.292969 248.640625 25.902344 C 246.328125 28.46875 245.171875 30.316406 245.171875 31.445312 L 244.570312 36.40625 C 244.921875 38.351562 247.207031 40.242188 251.433594 42.070312 C 252.136719 42.378906 251.910156 43.121094 250.753906 44.289062 C 249.496094 45.453125 247.863281 46.484375 245.851562 47.382812 "/>
<path style=" stroke:none;fill-rule:nonzero;fill:rgb(80.784315%,45.490196%,52.549022%);fill-opacity:1;" d="M 224.726562 251.914062 C 202.699219 248.136719 183.210938 246.230469 166.265625 246.191406 C 145.292969 246.113281 126.183594 248.820312 108.933594 254.304688 C 101.589844 251.191406 94.597656 247.050781 87.960938 241.875 C 100.734375 240.238281 127.363281 238.875 167.847656 237.789062 C 208.636719 236.738281 236.875 236.679688 252.566406 237.613281 C 244.519531 243.214844 235.238281 247.984375 224.726562 251.914062 "/>
<path style=" stroke:none;fill-rule:nonzero;fill:rgb(85.882354%,86.274511%,86.274511%);fill-opacity:1;" d="M 272.027344 173.460938 C 273.839844 162.449219 270.417969 151.359375 261.769531 140.191406 C 277.15625 133.1875 291.363281 127.234375 304.390625 122.328125 C 309.320312 128.554688 312.714844 136.203125 314.574219 145.269531 C 316.484375 154.648438 316.460938 164.125 314.5 173.695312 C 309.820312 196.617188 296.21875 213.40625 273.6875 224.070312 C 257.039062 232.007812 239.941406 233.972656 222.390625 229.964844 C 205.59375 226.152344 191.964844 217.785156 181.503906 204.867188 C 194.328125 210.742188 207.679688 213 221.558594 211.636719 C 234.585938 210.351562 245.800781 206.226562 255.207031 199.261719 C 264.8125 192.101562 270.417969 183.503906 272.027344 173.460938 "/>
<path style=" stroke:none;fill-rule:nonzero;fill:rgb(15.294118%,20%,22.745098%);fill-opacity:1;" d="M 241.25 281.566406 C 225.859375 286.351562 209.917969 288.746094 193.421875 288.746094 C 171.546875 288.746094 151 284.582031 131.789062 276.253906 C 178.914062 284.738281 220.175781 280.320312 255.582031 263.003906 C 286.007812 248.097656 308.589844 225.878906 323.324219 196.34375 C 322.066406 208.992188 317.71875 221.035156 310.273438 232.476562 C 303.082031 243.566406 293.527344 253.351562 281.609375 261.835938 C 269.640625 270.320312 256.1875 276.894531 241.25 281.566406 "/>
<path style=" stroke:none;fill-rule:nonzero;fill:rgb(85.882354%,86.274511%,86.274511%);fill-opacity:1;" d="M 98.898438 227.921875 C 88.738281 227.921875 79.257812 222.511719 70.457031 211.695312 C 62.964844 202.550781 58.640625 193.796875 57.484375 185.429688 C 60.199219 189.902344 64.625 193.582031 70.761719 196.460938 C 76.894531 199.339844 83.332031 200.761719 90.074219 200.722656 C 97.414062 200.722656 103.777344 198.933594 109.15625 195.351562 C 115.242188 191.34375 119.417969 185.390625 121.679688 177.488281 C 128.621094 182.742188 132.820312 185.640625 134.277344 186.1875 C 135.132812 194.515625 132.039062 203.367188 125 212.746094 C 117.355469 222.863281 108.65625 227.921875 98.898438 227.921875 "/>
<path style=" stroke:none;fill-rule:nonzero;fill:rgb(100%,100%,100%);fill-opacity:1;" d="M 113.835938 240.179688 L 114.136719 251.914062 C 114.136719 257.089844 113.960938 260.453125 113.609375 262.011719 C 110.039062 259.363281 106.441406 255.511719 102.820312 250.453125 C 99.804688 246.210938 98.019531 243.136719 97.464844 241.230469 L 113.835938 240.179688 "/>
<path style=" stroke:none;fill-rule:nonzero;fill:rgb(100%,100%,100%);fill-opacity:1;" d="M 234.835938 237.261719 C 235.289062 239.597656 235.089844 244.34375 234.234375 251.503906 C 233.378906 258.625 232.523438 262.75 231.667969 263.878906 C 228.601562 261.972656 225.332031 258.351562 221.863281 253.023438 C 218.089844 247.339844 215.777344 242.085938 214.921875 237.261719 L 234.835938 237.261719 "/>
<path style=" stroke:none;fill-rule:nonzero;fill:rgb(85.882354%,86.274511%,86.274511%);fill-opacity:1;" d="M 113.835938 240.179688 L 114.136719 245.84375 C 111.621094 244.636719 109.082031 244.128906 106.519531 244.324219 C 104.203125 244.519531 102.167969 245.238281 100.40625 246.484375 L 97.464844 241.230469 L 113.835938 240.179688 "/>
<path style=" stroke:none;fill-rule:nonzero;fill:rgb(85.882354%,86.274511%,86.274511%);fill-opacity:1;" d="M 234.835938 237.261719 L 234.988281 243.097656 C 232.171875 241.738281 228.953125 241.113281 225.332031 241.230469 C 221.609375 241.308594 218.71875 242.144531 216.65625 243.742188 C 216.003906 241.949219 215.425781 239.792969 214.921875 237.261719 L 234.835938 237.261719 "/>
<path style=" stroke:none;fill-rule:nonzero;fill:rgb(40.000001%,26.666668%,59.215689%);fill-opacity:1;" d="M 492.15625 156.300781 C 495.070312 151.125 495.597656 148.441406 493.738281 148.246094 L 472.3125 146.203125 C 468.59375 145.890625 465.574219 145.054688 463.261719 143.691406 C 461.953125 142.914062 460.546875 141.667969 459.039062 139.957031 C 457.929688 138.554688 456.976562 137.757812 456.171875 137.5625 C 453.050781 136.824219 450.4375 136.378906 448.324219 136.222656 C 445.507812 135.988281 443.195312 136.242188 441.386719 136.980469 C 439.222656 137.835938 437.6875 139.472656 436.785156 141.882812 C 435.527344 145.152344 433.011719 147.894531 429.238281 150.113281 C 425.519531 152.371094 421.042969 153.773438 415.8125 154.316406 C 410.632812 154.863281 405.652344 154.433594 400.875 153.03125 C 395.242188 151.398438 390.867188 148.617188 387.75 144.683594 C 384.230469 140.289062 382.46875 135.074219 382.46875 129.042969 C 382.46875 124.761719 383.472656 120.65625 385.484375 116.726562 C 387.648438 112.445312 390.890625 108.710938 395.21875 105.519531 C 400.898438 101.316406 408.21875 98.203125 417.167969 96.179688 C 417.167969 93.648438 418.074219 91.703125 419.886719 90.34375 C 421.796875 88.980469 424.714844 88.242188 428.636719 88.125 L 441.160156 88.765625 L 458.132812 89.40625 C 460.144531 89.214844 461.601562 88.492188 462.507812 87.25 C 463.0625 86.429688 463.335938 85.457031 463.335938 84.328125 C 463.335938 81.957031 462.304688 79.679688 460.246094 77.5 C 457.878906 74.972656 454.839844 73.550781 451.117188 73.238281 C 436.078125 72.03125 425.015625 72.460938 417.925781 74.523438 C 413.097656 75.964844 406.707031 79.757812 398.761719 85.90625 L 395.519531 88.359375 C 390.890625 91.976562 386.492188 93.628906 382.316406 93.320312 C 378.546875 93.046875 374.898438 91.023438 371.378906 87.25 C 369.214844 84.875 368.136719 82.5 368.136719 80.128906 C 368.136719 79 368.5625 77.402344 369.417969 75.339844 L 370.171875 73.0625 C 370.171875 72.441406 369.644531 71.878906 368.585938 71.371094 L 366.929688 72.304688 L 362.703125 74.40625 C 360.945312 75.03125 359.03125 75.339844 356.96875 75.339844 C 354.808594 75.339844 353.300781 74.640625 352.445312 73.238281 C 351.738281 72.148438 351.589844 70.808594 351.992188 69.210938 C 352.394531 67.734375 353.125 66.488281 354.179688 65.476562 C 355.035156 64.660156 356.617188 63.707031 358.933594 62.617188 L 361.722656 61.15625 C 362.375 60.691406 362.601562 60.300781 362.402344 59.988281 C 361.898438 59.09375 360.992188 58.511719 359.6875 58.238281 L 354.933594 57.886719 L 349.878906 57.597656 C 348.019531 57.207031 346.609375 56.449219 345.65625 55.320312 C 344.546875 53.996094 344.421875 52.632812 345.277344 51.234375 C 346.484375 49.289062 349.578125 47.574219 354.554688 46.097656 C 358.628906 44.851562 362.929688 43.996094 367.457031 43.527344 C 371.679688 43.101562 375.050781 42.4375 377.566406 41.542969 C 380.128906 40.648438 381.589844 39.597656 381.941406 38.390625 C 382.59375 36.25 380.28125 33.78125 375 30.980469 C 371.429688 29.070312 363.582031 27.925781 351.464844 27.535156 C 339.945312 27.144531 331.269531 27.554688 325.4375 28.761719 C 321.414062 29.539062 318.421875 31.132812 316.460938 33.546875 C 315.355469 34.949219 314.324219 37.1875 313.367188 40.261719 L 312.160156 43.703125 C 311.605469 44.753906 310.878906 45.53125 309.972656 46.039062 C 307.558594 47.402344 304.566406 47.769531 300.996094 47.148438 C 299.035156 46.875 297.222656 46.3125 295.5625 45.453125 C 293.855469 44.597656 292.570312 43.605469 291.71875 42.476562 C 291.113281 41.738281 290.734375 40.609375 290.585938 39.09375 L 290.585938 38.683594 L 289.90625 38.800781 C 288.949219 39.035156 287.015625 39.871094 284.097656 41.308594 L 277.609375 44.171875 C 275.347656 45.027344 273.5625 45.359375 272.253906 45.164062 C 269.640625 44.851562 266.34375 43.199219 262.371094 40.203125 C 257.996094 36.933594 255.480469 33.878906 254.828125 31.039062 C 253.722656 26.40625 262.195312 20.101562 280.25 12.125 C 282.867188 10.957031 283.996094 9.925781 283.644531 9.03125 C 283.191406 7.707031 280.5 6.519531 275.574219 5.46875 C 270.292969 4.34375 264.105469 3.777344 257.015625 3.777344 C 251.082031 3.777344 245.195312 5.296875 239.363281 8.332031 C 236.09375 10.042969 232.171875 12.746094 227.59375 16.445312 L 224.351562 18.894531 L 222.3125 19.828125 C 220.453125 20.140625 218.242188 19.441406 215.675781 17.730469 C 213.464844 16.289062 211.527344 14.519531 209.867188 12.417969 C 203.984375 13.078125 198.929688 13.953125 194.703125 15.042969 C 187.765625 16.832031 180.898438 19.519531 174.109375 23.097656 C 171.34375 24.539062 169.179688 26.171875 167.621094 28 C 165.8125 30.140625 164.957031 32.339844 165.058594 34.597656 C 165.15625 36.855469 166.039062 39.015625 167.699219 41.078125 C 169.355469 43.179688 171.496094 44.695312 174.109375 45.628906 C 176.675781 46.601562 178.007812 48.160156 178.109375 50.300781 L 178.109375 50.417969 C 178.109375 51.972656 177.453125 53.53125 176.148438 55.085938 C 174.839844 56.640625 173.179688 57.847656 171.167969 58.703125 C 167.746094 60.105469 164.527344 59.988281 161.511719 58.355469 C 158.644531 56.835938 156.457031 56.351562 154.949219 56.894531 C 153.039062 57.710938 152.082031 59.929688 152.082031 63.550781 C 152.082031 65.261719 150.800781 66.546875 148.234375 67.402344 C 145.167969 68.375 141.042969 68.570312 135.863281 67.984375 C 130.683594 67.402344 127.085938 66.332031 125.074219 64.777344 C 122.761719 62.984375 117.984375 60.339844 110.742188 56.835938 C 103.25 53.21875 97.414062 50.804688 93.242188 49.597656 C 91.027344 48.9375 88.261719 49.464844 84.941406 51.175781 C 81.671875 52.886719 78.679688 55.222656 75.964844 58.179688 C 73.402344 61.058594 72.09375 63.355469 72.042969 65.066406 C 71.992188 65.652344 72.34375 66.429688 73.097656 67.402344 L 74.835938 69.503906 C 76.445312 71.996094 77.5 74.039062 78.003906 75.632812 C 78.40625 77.148438 77.550781 79.875 75.4375 83.804688 C 73.125 88.164062 70.535156 91.0625 67.667969 92.5 C 64.953125 93.824219 62.386719 93.804688 59.972656 92.445312 C 56 90.226562 51.953125 88.980469 47.828125 88.707031 C 43.652344 88.433594 39.730469 89.136719 36.058594 90.808594 C 32.589844 92.480469 30 94.738281 28.289062 97.582031 C 26.578125 100.421875 26.027344 103.398438 26.628906 106.511719 C 27.082031 108.808594 28.164062 111.472656 29.875 114.507812 L 34.925781 122.621094 C 38.699219 128.300781 41.136719 132.523438 42.246094 135.289062 C 44.105469 139.996094 44.207031 144.101562 42.546875 147.605469 C 41.089844 150.640625 38.722656 152.703125 35.457031 153.792969 C 32.238281 154.84375 28.3125 154.863281 23.6875 153.851562 C 22.328125 153.539062 20.847656 152.136719 19.238281 149.648438 C 18.078125 147.894531 16.34375 144.667969 14.03125 139.957031 L 11.464844 134.878906 C 9.101562 142.660156 7.492188 148.636719 6.636719 152.800781 C 5.28125 159.101562 4.601562 165.191406 4.601562 171.070312 C 4.601562 175.503906 4.953125 179.960938 5.65625 184.4375 C 6.058594 187.082031 7.695312 191.304688 10.5625 197.101562 L 15.917969 206.851562 C 16.320312 207.472656 16.898438 207.882812 17.652344 208.078125 L 20.972656 208.484375 C 26.804688 208.914062 31.984375 210.664062 36.511719 213.738281 C 41.339844 217.046875 43.878906 220.878906 44.132812 225.238281 L 44.132812 225.53125 C 44.132812 226.734375 43.652344 227.648438 42.699219 228.273438 L 37.792969 228.796875 L 33.796875 228.449219 C 33.496094 229.265625 33.570312 230.375 34.023438 231.773438 L 35.304688 234.984375 C 36.210938 237.554688 37.265625 239.636719 38.472656 241.230469 L 40.207031 242.339844 L 42.925781 242.691406 L 46.167969 243.214844 C 47.324219 243.683594 47.976562 244.519531 48.128906 245.726562 C 48.378906 248.292969 49.8125 252.128906 52.429688 257.226562 C 55.296875 262.90625 57.960938 266.488281 60.425781 267.964844 C 61.480469 268.585938 64.019531 269.289062 68.042969 270.066406 C 73.375 271.039062 77.296875 272.148438 79.8125 273.394531 C 84.085938 275.535156 86.652344 278.726562 87.507812 282.964844 L 87.582031 283.550781 C 87.582031 284.328125 87.207031 285.164062 86.453125 286.058594 L 83.886719 288.453125 C 82.074219 290.011719 80.84375 291.234375 80.191406 292.128906 C 78.984375 293.6875 78.378906 295.320312 78.378906 297.035156 C 78.378906 297.929688 78.53125 298.863281 78.832031 299.835938 C 81.046875 306.839844 91.230469 313.628906 109.382812 320.207031 C 116.222656 322.699219 123.113281 324.742188 130.054688 326.335938 C 136.492188 327.777344 141.019531 328.4375 143.632812 328.320312 C 149.769531 328.046875 153.539062 326.917969 154.949219 324.933594 C 156.054688 323.457031 156.582031 319.664062 156.53125 313.554688 L 156.53125 311.566406 C 156.53125 310.90625 156.886719 310.363281 157.589844 309.933594 C 158.847656 309.195312 161.3125 309.019531 164.980469 309.410156 L 178.785156 311.742188 L 181.578125 312.269531 C 185.300781 312.929688 189.601562 314.894531 194.476562 318.164062 C 197.292969 320.070312 201.644531 323.457031 207.527344 328.320312 C 209.238281 329.761719 211.679688 330.695312 214.847656 331.121094 L 225.484375 330.773438 C 229.355469 330.109375 232.773438 329.058594 235.742188 327.621094 C 238.660156 326.21875 240.445312 324.761719 241.097656 323.242188 L 241.929688 321.316406 C 243.839844 316.375 246.53125 312.929688 250 310.984375 C 255.785156 307.753906 265.917969 306.003906 280.402344 305.730469 C 282.210938 305.691406 283.972656 306.335938 285.683594 307.65625 L 290.433594 312.328125 C 292.746094 314.816406 294.507812 316.550781 295.714844 317.523438 C 297.929688 319.3125 300.164062 320.421875 302.429688 320.847656 C 309.972656 322.289062 316.5625 322.484375 322.195312 321.433594 C 332.402344 319.527344 341.730469 313.863281 350.179688 304.445312 C 339.671875 307.09375 331.121094 307.269531 324.53125 304.972656 C 320.207031 303.453125 317.039062 301.0625 315.027344 297.792969 C 312.964844 294.40625 312.335938 290.828125 313.140625 287.050781 C 313.945312 283.433594 315.65625 281.039062 318.269531 279.871094 C 325.011719 276.914062 330.96875 275.339844 336.148438 275.144531 C 343.644531 274.871094 350.179688 277.324219 355.761719 282.5 C 358.980469 285.457031 363.910156 287.304688 370.550781 288.042969 C 377.1875 288.746094 383.070312 288.0625 388.203125 286 C 390.867188 284.949219 393.078125 283.6875 394.839844 282.207031 L 398.535156 278.238281 C 400.800781 275.476562 403.089844 273.511719 405.402344 272.34375 C 407.765625 271.175781 410.457031 270.535156 413.472656 270.417969 L 421.46875 270.824219 L 430.976562 271.117188 C 434.394531 270.6875 437.4375 269.328125 440.101562 267.03125 C 443.875 263.839844 446.515625 259.152344 448.023438 252.964844 C 449.480469 246.777344 449.03125 242.417969 446.664062 239.886719 C 445.105469 238.253906 442.691406 238.039062 439.421875 239.246094 C 434.644531 240.957031 429.1875 242.125 423.054688 242.75 L 409.023438 243.390625 L 403.363281 243.566406 C 401.503906 243.722656 399.917969 243.292969 398.613281 242.28125 L 396.199219 239.304688 L 394.765625 237.261719 C 394.363281 236.910156 393.882812 236.757812 393.332031 236.796875 C 391.972656 239.480469 389.183594 241.484375 384.957031 242.808594 C 381.789062 243.78125 378.34375 244.304688 374.621094 244.382812 C 371.101562 244.421875 368.539062 244.050781 366.929688 243.273438 C 364.414062 242.066406 362.804688 240.296875 362.101562 237.960938 L 361.722656 235.511719 C 361.722656 232.242188 363.308594 228.757812 366.476562 225.0625 C 367.832031 223.46875 370.296875 222.164062 373.867188 221.152344 C 375.980469 220.527344 379.753906 219.75 385.183594 218.816406 C 392.273438 217.609375 397.707031 216.441406 401.480469 215.316406 C 407.765625 213.40625 412.894531 210.898438 416.867188 207.785156 C 409.625 208.289062 403.765625 207.492188 399.289062 205.390625 C 396.375 203.992188 394.261719 202.179688 392.953125 199.960938 C 391.796875 198.015625 391.394531 195.992188 391.746094 193.890625 C 392.050781 191.828125 393.003906 190.273438 394.613281 189.222656 C 398.839844 186.5 404.34375 184.902344 411.132812 184.4375 L 430.144531 184.902344 L 444.25 185.488281 C 449.128906 185.410156 453.152344 184.824219 456.320312 183.734375 C 458.785156 182.878906 460.34375 182.121094 461 181.460938 C 461.652344 180.835938 461.980469 179.804688 461.980469 178.367188 C 461.980469 176.304688 462.859375 174.648438 464.621094 173.402344 C 465.726562 172.625 467.890625 171.671875 471.109375 170.542969 C 475.933594 168.871094 479.65625 167.214844 482.273438 165.582031 C 486.347656 163.167969 489.640625 160.074219 492.15625 156.300781 M 498.945312 147.546875 C 499.648438 149.609375 498.691406 152.605469 496.078125 156.535156 C 493.261719 160.816406 489.488281 164.375 484.761719 167.214844 C 482.046875 168.851562 478.148438 170.582031 473.070312 172.410156 C 470.203125 173.421875 468.066406 174.824219 466.65625 176.613281 C 465.347656 178.328125 465.023438 179.941406 465.675781 181.460938 C 466.480469 183.210938 463.914062 184.707031 457.980469 185.953125 C 450.992188 187.394531 441.613281 187.722656 429.84375 186.945312 C 417.121094 186.050781 407.5625 186.691406 401.175781 188.871094 C 394.589844 191.089844 392.652344 194.515625 395.367188 199.144531 C 398.585938 204.632812 406.304688 206.636719 418.527344 205.15625 C 420.085938 204.964844 421.320312 205.082031 422.222656 205.507812 C 423.28125 206.015625 423.28125 206.792969 422.222656 207.84375 C 418.101562 211.851562 412.292969 214.925781 404.796875 217.066406 C 401.78125 217.882812 395.445312 219.128906 385.789062 220.800781 L 375.226562 222.902344 C 371.957031 223.796875 369.769531 224.886719 368.664062 226.171875 C 366.398438 228.855469 365.015625 231.503906 364.515625 234.109375 C 363.859375 237.574219 365.117188 240.042969 368.285156 241.523438 C 370.296875 242.457031 373.0625 242.769531 376.585938 242.457031 C 379.652344 242.183594 382.34375 241.5625 384.65625 240.589844 C 385.8125 240.121094 387.144531 239.011719 388.652344 237.261719 L 391.972656 233.410156 C 393.882812 231.621094 396.097656 232.785156 398.613281 236.910156 L 400.496094 240.0625 C 401.253906 241.152344 402.105469 241.660156 403.0625 241.582031 L 409.023438 241.40625 L 422.601562 240.765625 C 428.535156 240.140625 433.765625 239.011719 438.292969 237.378906 C 440.957031 236.40625 443.472656 236.171875 445.835938 236.679688 C 447.644531 237.066406 448.980469 237.730469 449.835938 238.664062 C 452.699219 241.660156 453.65625 246.484375 452.699219 253.140625 C 451.695312 259.949219 449.105469 265.125 444.929688 268.664062 C 439.648438 273.140625 431.703125 274.8125 421.09375 273.683594 L 413.773438 273.277344 C 411.109375 273.394531 408.796875 273.9375 406.835938 274.910156 C 405.527344 275.574219 404.371094 276.371094 403.363281 277.304688 L 400.800781 280.164062 L 396.726562 284.425781 C 394.765625 286.097656 392.324219 287.519531 389.410156 288.6875 C 383.875 290.90625 377.238281 291.46875 369.492188 290.378906 C 361.847656 289.328125 356.242188 287.128906 352.671875 283.785156 C 348.394531 279.8125 343.644531 277.769531 338.414062 277.65625 C 333.484375 277.539062 327.199219 279.152344 319.554688 282.5 C 317.59375 283.355469 316.308594 285.183594 315.707031 287.988281 C 315.050781 291.023438 315.628906 294 317.441406 296.917969 C 319.25 299.875 322.496094 302.015625 327.171875 303.339844 C 333.15625 305.089844 340.148438 304.777344 348.144531 302.402344 C 355.183594 300.378906 357.699219 300.59375 355.6875 303.046875 C 340.449219 321.53125 323.097656 328.90625 303.636719 325.167969 C 300.769531 324.625 297.976562 323.535156 295.261719 321.898438 C 292.847656 320.460938 290.710938 318.710938 288.851562 316.648438 L 284.023438 311.511719 C 282.011719 309.5625 280.453125 308.609375 279.34375 308.648438 C 265.714844 308.921875 256.386719 310.460938 251.359375 313.261719 C 248.542969 314.816406 246.226562 317.929688 244.417969 322.601562 L 243.664062 324.527344 C 242.707031 326.667969 240.445312 328.730469 236.875 330.714844 C 233.453125 332.582031 229.832031 333.828125 226.011719 334.449219 L 212.960938 334.742188 C 208.585938 334.195312 205.390625 333.085938 203.378906 331.414062 L 191.914062 321.140625 C 187.789062 317.679688 184.167969 315.671875 181.050781 315.128906 L 178.109375 314.546875 C 166.441406 312.171875 160.128906 311.453125 159.171875 312.386719 C 159.675781 320.128906 159.398438 324.933594 158.34375 326.804688 C 156.734375 329.800781 152.183594 331.316406 144.6875 331.355469 C 141.621094 331.394531 136.769531 330.734375 130.128906 329.371094 C 122.585938 327.777344 115.292969 325.773438 108.253906 323.359375 C 88.941406 316.667969 77.953125 309.019531 75.285156 300.417969 C 74.382812 297.539062 74.808594 294.835938 76.570312 292.304688 C 77.375 291.214844 79.160156 289.464844 81.925781 287.050781 L 84.1875 285.007812 C 84.742188 284.347656 84.96875 283.785156 84.867188 283.316406 C 84.164062 279.738281 81.898438 277.324219 78.078125 276.078125 L 67.0625 274.09375 L 61.632812 273.042969 C 59.621094 272.617188 58.1875 272.128906 57.332031 271.585938 C 54.464844 269.871094 51.726562 265.589844 49.109375 258.742188 C 47.046875 253.410156 45.839844 249.128906 45.488281 245.902344 C 45.4375 245.472656 45.113281 245.179688 44.507812 245.023438 L 41.867188 244.734375 L 38.398438 244.265625 C 37.089844 243.878906 36.058594 243.195312 35.304688 242.222656 C 33.898438 240.394531 32.539062 237.769531 31.230469 234.34375 C 29.621094 230.335938 29.320312 227.804688 30.324219 226.753906 C 31.128906 225.898438 32.890625 225.722656 35.605469 226.230469 C 38.421875 226.773438 40.257812 226.773438 41.113281 226.230469 C 41.71875 225.839844 41.867188 224.886719 41.566406 223.371094 L 40.511719 220.449219 C 39.554688 218.894531 37.742188 217.261719 35.078125 215.546875 C 31.707031 213.484375 26.628906 212.203125 19.839844 211.695312 L 14.636719 211.113281 C 12.523438 210.683594 11.140625 209.964844 10.484375 208.953125 C 9.582031 207.472656 8.121094 203.992188 6.109375 198.503906 C 3.949219 192.511719 2.640625 188.015625 2.1875 185.019531 L 0.828125 177.957031 C 0.277344 175.234375 0 173.035156 0 171.359375 C 0 165.367188 0.878906 158.734375 2.640625 151.457031 L 8.375 131.785156 C 8.875 130.152344 9.730469 129.761719 10.9375 130.617188 C 12.398438 131.707031 14.257812 134.585938 16.519531 139.257812 C 17.828125 141.863281 19.1875 144.257812 20.59375 146.4375 C 22.40625 149.277344 23.738281 150.796875 24.59375 150.988281 C 28.714844 151.882812 31.984375 152.058594 34.398438 151.515625 C 36.964844 150.890625 38.851562 149.335938 40.058594 146.84375 C 41.515625 143.808594 41.214844 140.113281 39.152344 135.753906 C 38.347656 134.082031 35.808594 130.015625 31.53125 123.554688 L 25.875 115.207031 C 23.914062 111.976562 22.679688 109.195312 22.179688 106.859375 C 21.523438 103.398438 22.429688 99.738281 24.894531 95.886719 C 27.359375 92.035156 30.578125 89.175781 34.550781 87.308594 C 38.371094 85.515625 42.796875 85.011719 47.828125 85.789062 C 52.304688 86.488281 56.878906 88.144531 61.558594 90.75 L 66.234375 90.808594 C 68.648438 89.5625 70.734375 86.976562 72.496094 83.046875 C 74.054688 79.582031 74.65625 77.246094 74.304688 76.042969 C 74.003906 74.992188 72.773438 73.101562 70.609375 70.378906 C 68.75 68.003906 67.84375 66.117188 67.894531 64.71875 C 67.945312 62.617188 69.679688 59.988281 73.097656 56.835938 C 76.265625 53.878906 79.738281 51.429688 83.507812 49.480469 C 85.972656 48.238281 87.933594 47.382812 89.394531 46.914062 C 91.503906 46.253906 93.242188 46.136719 94.597656 46.5625 C 98.824219 47.847656 104.683594 50.378906 112.175781 54.152344 C 119.214844 57.730469 123.996094 60.496094 126.507812 62.441406 C 128.117188 63.6875 131.285156 64.699219 136.015625 65.476562 C 140.941406 66.292969 144.6875 66.292969 147.253906 65.476562 C 148.710938 65.007812 149.441406 64.367188 149.441406 63.550781 C 149.441406 61.019531 149.644531 59.074219 150.046875 57.710938 C 150.496094 55.921875 151.351562 54.773438 152.609375 54.269531 L 157.363281 54.386719 C 159.121094 54.851562 161.007812 55.628906 163.019531 56.71875 L 169.886719 56.894531 C 171.496094 56.234375 172.851562 55.261719 173.957031 53.976562 C 175.015625 52.730469 175.519531 51.523438 175.46875 50.359375 C 175.417969 49.035156 174.613281 48.082031 173.054688 47.496094 C 170.085938 46.445312 167.597656 45.085938 165.585938 43.410156 C 162.96875 41.273438 161.535156 38.917969 161.285156 36.347656 C 160.683594 30.511719 163.925781 25.726562 171.015625 21.988281 C 183.339844 15.492188 194.277344 11.328125 203.832031 9.5 L 209.867188 8.972656 C 211.175781 9.167969 212.507812 9.886719 213.867188 11.132812 L 218.316406 15.570312 C 220.027344 17.203125 221.183594 17.960938 221.785156 17.84375 L 225.710938 15.042969 C 231.390625 10.414062 235.492188 7.359375 238.003906 5.878906 C 244.34375 2.105469 250.679688 0.21875 257.015625 0.21875 C 263.90625 0.21875 270.394531 0.996094 276.480469 2.550781 C 282.765625 4.148438 286.285156 6.035156 287.039062 8.214844 C 287.742188 10.082031 286.183594 11.871094 282.363281 13.585938 C 272.65625 17.863281 265.867188 21.679688 261.996094 25.023438 C 259.277344 27.28125 258.121094 29.148438 258.523438 30.628906 C 259.078125 33.117188 261.191406 35.824219 264.859375 38.742188 C 268.179688 41.464844 270.796875 42.945312 272.707031 43.179688 C 274.113281 43.332031 277.433594 42.128906 282.664062 39.558594 L 286.210938 37.515625 C 287.519531 36.699219 288.472656 36.210938 289.078125 36.058594 C 291.441406 35.433594 292.898438 35.824219 293.453125 37.222656 L 295.035156 41.308594 C 295.691406 42.128906 296.820312 42.945312 298.429688 43.761719 C 299.941406 44.578125 301.296875 45.085938 302.503906 45.28125 C 305.121094 45.667969 307.054688 45.359375 308.3125 44.347656 C 309.269531 43.566406 310.097656 42.050781 310.800781 39.792969 C 311.910156 36.289062 313.242188 33.546875 314.800781 31.5625 C 317.417969 28.214844 321.035156 26.074219 325.664062 25.140625 L 352.59375 24.5 C 364.765625 25.316406 372.886719 26.816406 376.960938 28.996094 C 383.199219 32.339844 385.863281 35.511719 384.957031 38.507812 C 384.355469 40.335938 382.59375 41.953125 379.675781 43.351562 C 376.507812 44.910156 372.535156 45.921875 367.757812 46.390625 C 363.535156 46.777344 359.6875 47.382812 356.214844 48.199219 C 350.933594 49.445312 348.09375 50.902344 347.691406 52.574219 C 347.238281 54.636719 349.878906 55.804688 355.613281 56.078125 C 362.152344 56.390625 365.871094 57.304688 366.777344 58.820312 C 367.429688 59.871094 367.054688 60.921875 365.644531 61.972656 C 364.539062 62.789062 363.054688 63.472656 361.195312 64.015625 C 358.378906 64.832031 356.316406 66.527344 355.007812 69.09375 C 353.652344 71.78125 354.808594 73.121094 358.480469 73.121094 C 360.238281 73.121094 361.898438 72.597656 363.457031 71.546875 L 367.757812 68.511719 L 369.039062 68.453125 C 372.308594 69.621094 373.917969 70.828125 373.867188 72.070312 C 373.816406 72.8125 373.164062 74.113281 371.90625 75.984375 C 371.152344 77.8125 370.777344 79.25 370.777344 80.300781 C 370.824219 82.171875 371.757812 84.078125 373.566406 86.023438 C 376.585938 89.332031 379.578125 91.101562 382.542969 91.335938 C 385.660156 91.566406 389.308594 90.148438 393.480469 87.074219 L 399.066406 81.9375 C 401.480469 79.523438 403.390625 77.851562 404.796875 76.917969 C 410.832031 72.871094 418.300781 70.535156 427.203125 69.914062 L 452.25 70.789062 C 456.472656 71.136719 460.070312 72.675781 463.035156 75.398438 C 465.800781 78.007812 467.183594 80.808594 467.183594 83.804688 C 467.183594 85.867188 466.480469 87.695312 465.074219 89.292969 C 463.613281 90.886719 461.777344 91.878906 459.566406 92.269531 L 439.5 90.925781 C 429.492188 89.914062 423.554688 90.226562 421.695312 91.859375 C 421.144531 92.328125 420.890625 93.066406 420.941406 94.078125 L 421.320312 97.171875 C 421.417969 97.714844 421.09375 98.066406 420.339844 98.222656 C 411.488281 100.128906 404.167969 103.027344 398.386719 106.917969 C 393.757812 110.109375 390.464844 113.652344 388.503906 117.542969 C 386.191406 122.097656 385.410156 126.980469 386.164062 132.195312 C 386.867188 136.628906 388.503906 140.445312 391.066406 143.636719 C 396.097656 149.976562 404.21875 152.566406 415.433594 151.398438 C 425.089844 150.464844 431 147.097656 433.164062 141.300781 C 433.714844 139.820312 434.644531 138.382812 435.953125 136.980469 C 437.261719 135.578125 438.59375 134.585938 439.953125 134.003906 C 442.0625 133.148438 444.828125 132.933594 448.25 133.363281 L 457.378906 135.289062 C 458.332031 135.519531 459.164062 135.949219 459.867188 136.570312 L 461.679688 138.5 C 463.1875 140.25 464.34375 141.398438 465.148438 141.941406 C 466.957031 143.1875 469.449219 143.925781 472.617188 144.160156 L 484.761719 144.800781 L 495.171875 145.386719 C 497.234375 145.542969 498.492188 146.261719 498.945312 147.546875 "/>
<path style=" stroke:none;fill-rule:nonzero;fill:rgb(5.098039%,7.450981%,10.196079%);fill-opacity:1;" d="M 296.546875 126.066406 C 294.886719 126.570312 293.855469 126.941406 293.453125 127.175781 C 289.980469 124.0625 286.890625 121.53125 284.171875 119.585938 C 271.953125 110.480469 257.894531 103.4375 242.003906 98.457031 C 226.113281 93.476562 209.792969 90.984375 193.042969 90.984375 C 174.636719 90.984375 157.714844 93.339844 142.273438 98.046875 C 126.835938 102.753906 113.457031 109.625 102.140625 118.652344 C 93.242188 125.773438 85.972656 134.101562 80.339844 143.636719 C 78.53125 142.660156 77.398438 141.882812 76.945312 141.300781 C 86.804688 124.957031 101.3125 112.054688 120.472656 102.601562 C 141.09375 92.40625 165.058594 87.308594 192.367188 87.308594 C 212.382812 87.308594 231.820312 90.945312 250.679688 98.222656 C 268.433594 105.109375 283.71875 114.390625 296.546875 126.066406 "/>
<path style=" stroke:none;fill-rule:nonzero;fill:rgb(5.098039%,7.450981%,10.196079%);fill-opacity:1;" d="M 316.460938 158.402344 C 316.761719 155.757812 316.8125 153.617188 316.613281 151.980469 C 323.097656 164.085938 326.34375 176.246094 326.34375 188.464844 C 326.34375 202.433594 322.796875 215.800781 315.707031 228.566406 C 308.867188 240.902344 299.234375 251.816406 286.8125 261.3125 C 274.390625 270.804688 260.210938 278.160156 244.265625 283.375 C 227.722656 288.746094 210.496094 291.429688 192.59375 291.429688 C 162.117188 291.429688 134.957031 283.746094 111.121094 268.375 C 86.324219 252.339844 71.238281 231.640625 65.855469 206.265625 C 67.015625 207.472656 68.246094 209.242188 69.554688 211.578125 C 70.910156 213.875 72.042969 215.507812 72.949219 216.480469 C 80.644531 237.339844 95.554688 254.402344 117.683594 267.671875 C 140.261719 281.175781 165.761719 287.929688 194.175781 287.929688 C 211.324219 287.929688 227.871094 285.28125 243.8125 279.988281 C 259.152344 274.929688 272.832031 267.789062 284.851562 258.566406 C 296.820312 249.382812 306.125 238.894531 312.765625 227.105469 C 319.652344 214.847656 323.097656 202.140625 323.097656 188.988281 C 323.097656 178.445312 320.886719 168.246094 316.460938 158.402344 "/>
<path style=" stroke:none;fill-rule:nonzero;fill:rgb(5.098039%,7.450981%,10.196079%);fill-opacity:1;" d="M 322.042969 113.867188 C 327.574219 112.035156 330.691406 111.394531 331.398438 111.9375 C 332.050781 112.523438 329.660156 113.808594 324.230469 115.792969 C 307.585938 121.863281 281.355469 133.226562 245.550781 149.878906 C 209.1875 166.808594 185.273438 178.851562 173.808594 186.011719 C 170.035156 188.347656 167.847656 189.164062 167.246094 188.464844 C 166.589844 187.761719 168.148438 186.1875 171.921875 183.734375 C 184.644531 175.445312 209.0625 162.976562 245.171875 146.320312 C 280.125 130.171875 305.75 119.351562 322.042969 113.867188 "/>
<path style=" stroke:none;fill-rule:nonzero;fill:rgb(5.098039%,7.450981%,10.196079%);fill-opacity:1;" d="M 51.296875 120.871094 C 49.085938 118.378906 48.105469 116.824219 48.355469 116.199219 C 48.605469 115.539062 50.265625 116.511719 53.335938 119.117188 L 92.9375 152.566406 C 112.152344 168.363281 126.808594 179.476562 136.917969 185.894531 C 139.9375 187.800781 141.421875 189.203125 141.371094 190.097656 C 141.320312 190.992188 139.734375 190.546875 136.617188 188.753906 C 125.753906 182.414062 109.863281 170.777344 88.941406 153.851562 C 69.378906 138.011719 56.828125 127.019531 51.296875 120.871094 "/>
<path style=" stroke:none;fill-rule:nonzero;fill:rgb(5.098039%,7.450981%,10.196079%);fill-opacity:1;" d="M 220.277344 252.378906 C 220.527344 252.925781 221.082031 253.585938 221.9375 254.363281 C 202.070312 261.523438 181.554688 265.046875 160.378906 264.929688 C 142.578125 264.890625 127.011719 262.4375 113.683594 257.574219 L 113.683594 255.007812 C 120.019531 257.339844 127.011719 259.074219 134.65625 260.203125 C 142.097656 261.332031 150.574219 261.914062 160.078125 261.953125 C 181.703125 262.03125 201.769531 258.839844 220.277344 252.378906 "/>
<path style=" stroke:none;fill-rule:nonzero;fill:rgb(5.098039%,7.450981%,10.196079%);fill-opacity:1;" d="M 234.914062 248.9375 L 234.6875 246.484375 C 239.714844 244.109375 244.519531 241.445312 249.09375 238.488281 C 232.347656 237.75 205.367188 237.84375 168.148438 238.78125 C 131.035156 239.753906 105.285156 241.015625 90.902344 242.574219 C 94.371094 245.179688 98.195312 247.613281 102.367188 249.871094 L 105.386719 254.015625 C 99.148438 251.058594 93.039062 247.261719 87.054688 242.632812 C 85.695312 241.582031 85.921875 240.9375 87.734375 240.707031 C 105.386719 238.410156 132.089844 236.816406 167.847656 235.917969 C 203.503906 235.0625 231.769531 235.296875 252.640625 236.621094 C 253.546875 236.660156 254.074219 236.832031 254.222656 237.144531 C 254.425781 237.457031 254.175781 237.863281 253.46875 238.371094 C 247.738281 242.300781 241.550781 245.824219 234.914062 248.9375 "/>
<path style=" stroke:none;fill-rule:nonzero;fill:rgb(5.098039%,7.450981%,10.196079%);fill-opacity:1;" d="M 306.578125 121.863281 C 311.960938 129.488281 315.40625 138.226562 316.914062 148.070312 C 318.421875 157.800781 317.894531 167.546875 315.328125 177.316406 C 309.546875 199.339844 296.066406 215.371094 274.894531 225.414062 C 264.9375 230.160156 254.148438 232.691406 242.53125 233 C 231.367188 233.351562 220.679688 231.640625 210.472656 227.863281 C 200.109375 224.050781 191.5625 218.601562 184.820312 211.519531 C 177.578125 203.933594 173.15625 195.234375 171.546875 185.429688 C 171.496094 185.117188 171.949219 184.84375 172.902344 184.609375 C 173.910156 184.339844 174.4375 184.339844 174.488281 184.609375 C 176.648438 194.378906 181.199219 202.902344 188.140625 210.179688 C 194.679688 216.988281 202.75 222.164062 212.355469 225.703125 C 221.761719 229.207031 231.644531 230.742188 242.003906 230.316406 C 252.664062 229.925781 262.699219 227.496094 272.101562 223.019531 C 292.472656 213.367188 305.546875 197.902344 311.332031 176.613281 C 313.894531 167.121094 314.5 157.664062 313.140625 148.246094 C 311.683594 138.671875 308.363281 130.191406 303.183594 122.796875 C 302.980469 122.523438 303.460938 122.230469 304.617188 121.921875 L 306.578125 121.863281 "/>
<path style=" stroke:none;fill-rule:nonzero;fill:rgb(5.098039%,7.450981%,10.196079%);fill-opacity:1;" d="M 61.332031 127.347656 C 62.136719 128.167969 62.488281 128.691406 62.386719 128.925781 C 56 141.339844 53.6875 155.738281 55.445312 172.121094 C 57.359375 189.824219 63.695312 204.085938 74.457031 214.90625 C 79.285156 219.769531 84.488281 223.097656 90.074219 224.886719 C 95.554688 226.636719 100.886719 226.734375 106.066406 225.179688 C 113.710938 222.921875 120.347656 217.472656 125.980469 208.835938 C 131.3125 200.625 133.648438 193.113281 132.996094 186.304688 L 134.355469 186.421875 C 135.257812 186.730469 135.710938 187.003906 135.710938 187.238281 C 136.0625 194.671875 133.625 202.511719 128.394531 210.761719 C 122.761719 219.710938 115.921875 225.394531 107.875 227.804688 C 102.898438 229.285156 97.390625 229.324219 91.355469 227.921875 C 83.761719 226.132812 76.972656 222.203125 70.988281 216.132812 C 59.671875 204.730469 53.160156 189.824219 51.449219 171.417969 C 49.839844 154.257812 52.65625 139.277344 59.898438 126.472656 C 60.046875 126.203125 60.527344 126.492188 61.332031 127.347656 "/>
<path style=" stroke:none;fill-rule:nonzero;fill:rgb(69.01961%,34.901962%,39.607844%);fill-opacity:1;" d="M 162.644531 162.253906 C 162.996094 160.699219 163.398438 159.960938 163.851562 160.039062 C 164.351562 160.074219 164.605469 160.875 164.605469 162.429688 C 164.554688 167.179688 165.03125 171.554688 166.039062 175.5625 C 166.390625 177.121094 166.363281 178.132812 165.960938 178.597656 C 165.511719 179.105469 164.855469 178.269531 164 176.089844 C 162.089844 171.03125 161.636719 166.417969 162.644531 162.253906 "/>
<path style=" stroke:none;fill-rule:nonzero;fill:rgb(69.01961%,34.901962%,39.607844%);fill-opacity:1;" d="M 141.144531 163.421875 C 141.246094 166.03125 141.46875 168.324219 141.824219 170.308594 C 142.175781 172.257812 142.804688 174.609375 143.707031 177.375 C 144.210938 178.851562 144.238281 179.609375 143.785156 179.648438 C 143.332031 179.648438 142.753906 179.066406 142.050781 177.898438 C 140.742188 175.71875 139.835938 173.308594 139.332031 170.660156 C 138.878906 168.210938 138.855469 165.855469 139.257812 163.597656 C 139.507812 162.042969 139.859375 161.261719 140.3125 161.261719 C 140.816406 161.222656 141.09375 161.945312 141.144531 163.421875 "/>
<path style=" stroke:none;fill-rule:nonzero;fill:rgb(69.01961%,34.901962%,39.607844%);fill-opacity:1;" d="M 133.523438 204.867188 C 134.277344 201.753906 134.957031 200.136719 135.5625 200.019531 C 136.164062 199.945312 136.289062 201.265625 135.9375 203.992188 C 135.285156 208.464844 134.101562 212.144531 132.394531 215.023438 C 130.832031 217.707031 128.496094 220.238281 125.378906 222.609375 C 123.0625 224.402344 121.757812 225.0625 121.453125 224.59375 C 121.152344 224.128906 121.90625 223.097656 123.71875 221.5 C 125.980469 219.476562 128.015625 216.929688 129.828125 213.855469 C 131.636719 210.820312 132.871094 207.824219 133.523438 204.867188 "/>
<path style=" stroke:none;fill-rule:nonzero;fill:rgb(69.01961%,34.901962%,39.607844%);fill-opacity:1;" d="M 173.882812 203.875 C 173.480469 201.148438 173.507812 199.710938 173.957031 199.554688 C 174.410156 199.359375 175.066406 200.683594 175.921875 203.523438 C 176.925781 206.988281 178.359375 210.160156 180.21875 213.039062 C 181.929688 215.683594 184.292969 218.503906 187.3125 221.5 C 188.71875 222.941406 189.246094 223.777344 188.894531 224.011719 C 188.492188 224.246094 187.460938 223.777344 185.800781 222.609375 C 182.382812 220.199219 179.589844 217.144531 177.429688 213.445312 C 175.617188 210.332031 174.4375 207.140625 173.882812 203.875 "/>
<path style=" stroke:none;fill-rule:nonzero;fill:rgb(69.01961%,34.901962%,39.607844%);fill-opacity:1;" d="M 299.335938 215.839844 C 297.074219 217.085938 295.4375 217.648438 294.433594 217.53125 C 293.425781 217.414062 294.054688 216.714844 296.320312 215.429688 C 301.046875 212.667969 305.019531 208.992188 308.238281 204.398438 C 311.457031 199.808594 313.542969 194.84375 314.5 189.515625 C 315.003906 186.90625 315.554688 185.757812 316.160156 186.070312 C 316.8125 186.421875 316.9375 187.917969 316.535156 190.566406 C 315.679688 196.558594 313.996094 201.460938 311.480469 205.273438 C 308.816406 209.28125 304.769531 212.804688 299.335938 215.839844 "/>
<path style=" stroke:none;fill-rule:nonzero;fill:rgb(5.098039%,7.450981%,10.196079%);fill-opacity:1;" d="M 233.554688 237.261719 C 233.554688 237.027344 233.980469 236.871094 234.835938 236.796875 C 235.691406 236.757812 236.144531 236.871094 236.195312 237.144531 C 236.597656 239.441406 236.394531 243.9375 235.589844 250.628906 C 234.835938 256.933594 234.082031 261.117188 233.328125 263.179688 L 232.574219 264.871094 C 232.171875 265.027344 231.117188 264.558594 229.40625 263.46875 C 226.335938 261.5625 223.21875 258.101562 220.050781 253.082031 C 216.632812 247.671875 214.492188 242.4375 213.640625 237.378906 C 213.589844 237.105469 213.992188 236.929688 214.847656 236.851562 C 215.75 236.777344 216.230469 236.871094 216.28125 237.144531 C 217.035156 241.425781 219.019531 246.152344 222.238281 251.328125 C 225.15625 256 228.097656 259.539062 231.066406 261.953125 C 231.96875 259.695312 232.675781 255.046875 233.175781 248.003906 C 233.578125 241.777344 233.707031 238.253906 233.554688 237.4375 L 233.554688 237.261719 "/>
<path style=" stroke:none;fill-rule:nonzero;fill:rgb(5.098039%,7.450981%,10.196079%);fill-opacity:1;" d="M 112.554688 240.179688 C 112.554688 239.90625 112.90625 239.773438 113.609375 239.773438 C 114.3125 239.734375 114.691406 239.851562 114.742188 240.121094 C 115.34375 252.613281 115.394531 259.949219 114.890625 262.128906 C 114.742188 262.75 114.488281 263.082031 114.136719 263.121094 C 113.632812 263.199219 112.777344 262.789062 111.570312 261.894531 C 108 259.289062 104.582031 255.550781 101.3125 250.6875 C 98.648438 246.71875 97.011719 243.625 96.410156 241.40625 C 96.359375 241.132812 96.710938 240.9375 97.464844 240.824219 C 98.269531 240.667969 98.699219 240.726562 98.746094 240.996094 C 99.25 242.632812 100.785156 245.296875 103.347656 248.996094 C 106.417969 253.351562 109.511719 256.894531 112.628906 259.617188 L 112.703125 250.453125 L 112.554688 240.238281 L 112.554688 240.179688 "/>
<path style=" stroke:none;fill-rule:nonzero;fill:rgb(40.000001%,26.666668%,59.215689%);fill-opacity:1;" d="M 242.003906 341.863281 C 240.796875 345.171875 241.476562 348.167969 244.039062 350.851562 C 245.800781 352.679688 248.339844 354.179688 251.660156 355.347656 C 255.027344 356.476562 258.851562 357.136719 263.125 357.332031 C 269.160156 357.640625 274.667969 357.332031 279.648438 356.398438 C 285.53125 355.347656 289.628906 353.554688 291.941406 351.027344 C 292.898438 350.09375 293.578125 349.121094 293.980469 348.109375 C 294.582031 346.628906 294.433594 345.363281 293.527344 344.3125 C 292.523438 343.148438 290.988281 341.84375 288.925781 340.402344 C 286.761719 338.886719 285.128906 337.992188 284.023438 337.71875 C 282.011719 337.25 279.394531 337.289062 276.175781 337.835938 L 268.332031 338.945312 C 265.363281 339.0625 261.640625 338.261719 257.167969 336.550781 L 251.054688 333.984375 C 246.226562 335.695312 243.210938 338.320312 242.003906 341.863281 M 238.230469 341.105469 C 238.734375 339.429688 240.445312 337.289062 243.363281 334.683594 C 246.328125 332 248.71875 330.519531 250.527344 330.246094 C 251.484375 330.128906 252.96875 330.617188 254.980469 331.707031 L 261.015625 335.09375 C 263.476562 336.335938 265.714844 336.941406 267.726562 336.902344 L 276.253906 335.792969 C 279.722656 335.246094 282.5625 335.226562 284.777344 335.734375 C 286.285156 336.085938 288.449219 337.269531 291.265625 339.292969 C 293.878906 341.164062 295.714844 342.738281 296.769531 344.023438 C 297.929688 345.382812 298.28125 346.941406 297.828125 348.691406 C 297.425781 350.132812 296.546875 351.589844 295.1875 353.070312 C 292.121094 356.339844 286.535156 358.382812 278.441406 359.199219 C 274.515625 359.589844 269.363281 359.648438 262.976562 359.375 C 258.199219 359.140625 253.820312 358.382812 249.847656 357.097656 C 245.777344 355.773438 242.757812 354.101562 240.796875 352.078125 C 237.828125 348.964844 236.972656 345.308594 238.230469 341.105469 "/>
<path style=" stroke:none;fill-rule:nonzero;fill:rgb(40.000001%,26.666668%,59.215689%);fill-opacity:1;" d="M 407.964844 295.808594 L 401.929688 296.625 L 393.03125 297.96875 C 389.609375 298.746094 387.042969 299.953125 385.335938 301.585938 C 383.273438 303.492188 382.84375 305.632812 384.050781 308.007812 C 385.160156 310.1875 387.222656 311.800781 390.238281 312.851562 C 394.160156 314.253906 398.035156 315.089844 401.855469 315.363281 C 406.382812 315.710938 410.152344 315.1875 413.171875 313.785156 C 416.941406 311.996094 420.890625 309.351562 425.015625 305.847656 C 429.039062 302.382812 432.054688 299.136719 434.066406 296.101562 C 435.324219 294.191406 434.921875 292.539062 432.859375 291.136719 C 431.957031 290.515625 429.339844 289.367188 425.015625 287.695312 C 423.003906 287.695312 421.015625 288.609375 419.054688 290.4375 C 416.691406 292.65625 414.929688 293.980469 413.773438 294.40625 C 412.214844 294.953125 410.28125 295.417969 407.964844 295.808594 M 417.546875 288.804688 L 420.5625 286.410156 C 422.171875 285.398438 423.480469 284.835938 424.488281 284.71875 C 425.945312 284.5625 428.160156 285.203125 431.125 286.644531 C 434.144531 288.121094 436.105469 289.5625 437.007812 290.964844 C 437.714844 292.054688 437.765625 293.355469 437.160156 294.875 L 434.972656 298.667969 C 432.808594 301.976562 429.894531 305.246094 426.222656 308.476562 C 422.300781 311.9375 418.402344 314.566406 414.527344 316.355469 C 411.210938 317.910156 406.808594 318.398438 401.328125 317.8125 C 397.054688 317.347656 392.628906 316.316406 388.050781 314.71875 C 386.140625 314.058594 384.203125 312.695312 382.242188 310.632812 C 379.777344 308.066406 378.898438 305.671875 379.601562 303.453125 C 380.558594 300.378906 383.574219 298.183594 388.652344 296.859375 C 390.363281 296.390625 395.191406 295.652344 403.136719 294.640625 L 410.230469 293.648438 C 411.839844 293.335938 413.296875 292.675781 414.605469 291.664062 L 417.546875 288.804688 "/>
<path style=" stroke:none;fill-rule:nonzero;fill:rgb(40.000001%,26.666668%,59.215689%);fill-opacity:1;" d="M 489.816406 206.851562 L 490.269531 205.800781 L 491.929688 201.1875 C 492.28125 199.28125 491.902344 198.132812 490.796875 197.746094 C 489.640625 197.355469 488.179688 197.21875 486.421875 197.335938 L 481.140625 197.976562 L 473.21875 198.796875 C 470.050781 198.914062 467.132812 198.582031 464.46875 197.804688 L 459.792969 197.21875 C 457.832031 197.179688 456.421875 197.394531 455.566406 197.863281 C 453.050781 199.300781 450.335938 202.53125 447.421875 207.550781 C 444.25 213.117188 443.21875 217.394531 444.328125 220.394531 C 445.03125 222.261719 446.515625 223.46875 448.777344 224.011719 C 452.046875 224.789062 456.523438 224.304688 462.207031 222.550781 C 467.035156 221.074219 470.90625 219.382812 473.824219 217.472656 C 474.929688 216.773438 477.015625 215.664062 480.085938 214.148438 L 486.042969 211.054688 C 487.90625 209.769531 489.164062 208.367188 489.816406 206.851562 M 491.851562 195.875 C 492.859375 196.1875 493.636719 197.101562 494.191406 198.621094 C 494.695312 200.019531 494.820312 201.1875 494.570312 202.121094 C 493.5625 206.128906 492.054688 209.070312 490.042969 210.9375 C 488.683594 212.183594 485.84375 213.835938 481.519531 215.898438 L 478.425781 217.824219 L 475.558594 219.925781 C 472.691406 221.753906 468.667969 223.371094 463.488281 224.769531 C 457.152344 226.484375 451.996094 226.871094 448.023438 225.9375 C 444.855469 225.238281 442.769531 223.582031 441.761719 220.976562 C 440.453125 217.472656 441.335938 212.589844 444.402344 206.324219 C 447.269531 200.566406 450.109375 196.90625 452.925781 195.351562 C 454.234375 194.652344 456.371094 194.457031 459.339844 194.769531 C 461.5 195 463.511719 195.390625 465.375 195.933594 C 467.636719 196.558594 470.175781 196.832031 472.992188 196.753906 L 480.613281 195.933594 L 486.496094 195.292969 C 488.609375 195.175781 490.394531 195.371094 491.851562 195.875 "/>
<path style=" stroke:none;fill-rule:nonzero;fill:rgb(40.000001%,26.666668%,59.215689%);fill-opacity:1;" d="M 490.644531 115.148438 L 491.851562 114.332031 C 492.304688 113.789062 492.582031 113.066406 492.683594 112.171875 C 492.78125 111.238281 492.65625 110.402344 492.304688 109.664062 C 491.902344 108.847656 491.25 108.339844 490.34375 108.144531 L 480.3125 108.496094 C 476.539062 109.3125 474.324219 110.363281 473.671875 111.648438 C 472.867188 113.242188 472.339844 114.488281 472.089844 115.382812 C 471.636719 116.980469 471.710938 118.261719 472.3125 119.234375 C 472.96875 120.285156 474.402344 121.085938 476.613281 121.628906 C 477.921875 121.941406 479.984375 121.6875 482.800781 120.871094 C 485.667969 120.09375 487.578125 119.214844 488.535156 118.242188 L 489.210938 116.257812 L 490.644531 115.148438 M 491.097656 104.933594 C 492.808594 105.285156 494.015625 106.199219 494.71875 107.679688 C 495.121094 108.339844 495.324219 109.644531 495.324219 111.589844 L 495.019531 112.816406 L 494.117188 115.382812 L 491.550781 117.25 C 491.300781 118.378906 490.972656 119.117188 490.570312 119.46875 C 489.210938 120.792969 486.949219 122.039062 483.78125 123.203125 C 480.410156 124.449219 477.769531 124.859375 475.859375 124.429688 C 472.941406 123.769531 470.980469 122.621094 469.976562 120.988281 C 468.515625 118.730469 468.945312 115.363281 471.257812 110.890625 C 472.265625 108.941406 475.003906 107.289062 479.480469 105.925781 C 484.007812 104.566406 487.878906 104.234375 491.097656 104.933594 "/>
<path style=" stroke:none;fill-rule:nonzero;fill:rgb(40.000001%,26.666668%,59.215689%);fill-opacity:1;" d="M 159.851562 8.507812 C 159.398438 7.84375 157.992188 7.511719 155.628906 7.511719 C 151.703125 7.511719 146.675781 8.253906 140.539062 9.730469 C 137.523438 10.472656 135.03125 11.367188 133.070312 12.417969 L 129.222656 15.042969 C 126.910156 16.832031 124.296875 17.941406 121.378906 18.371094 L 116.324219 18.894531 C 114.3125 19.167969 112.703125 19.636719 111.496094 20.296875 C 110.742188 20.6875 110.289062 22.398438 110.140625 25.433594 C 109.988281 28.273438 110.113281 30.453125 110.515625 31.972656 C 111.371094 35.316406 113.054688 37.476562 115.570312 38.449219 L 128.242188 38.742188 C 130.457031 38.429688 132.59375 37.496094 134.65625 35.941406 L 140.085938 30.6875 C 141.394531 29.246094 144.511719 26.601562 149.441406 22.75 C 153.566406 19.519531 156.355469 16.753906 157.816406 14.460938 L 157.890625 14.34375 L 159.703125 11.074219 C 160.253906 9.867188 160.304688 9.011719 159.851562 8.507812 M 155.628906 4.652344 C 159.601562 4.652344 161.8125 5.839844 162.265625 8.214844 C 162.667969 10.121094 161.988281 12.457031 160.230469 15.21875 L 160.152344 15.335938 C 158.644531 17.785156 155.828125 20.628906 151.703125 23.859375 C 146.675781 27.789062 143.507812 30.453125 142.199219 31.855469 L 136.238281 37.984375 C 133.828125 40.046875 131.3125 41.253906 128.695312 41.601562 L 114.4375 41.308594 C 110.414062 40.066406 107.875 37.378906 106.820312 33.253906 C 106.367188 31.582031 106.265625 29.460938 106.519531 26.894531 C 106.769531 24.246094 107.324219 22.183594 108.175781 20.707031 C 109.335938 18.683594 112.175781 17.300781 116.703125 16.5625 C 122.234375 15.628906 125.652344 14.75 126.960938 13.933594 L 132.921875 9.90625 C 135.234375 8.46875 137.523438 7.476562 139.785156 6.929688 C 145.921875 5.414062 151.203125 4.652344 155.628906 4.652344 "/>
<path style=" stroke:none;fill-rule:nonzero;fill:rgb(5.098039%,7.450981%,10.196079%);fill-opacity:1;" d="M 203.90625 179.941406 C 203.707031 176.59375 204.308594 174.902344 205.71875 174.863281 C 206.421875 174.824219 207 175.351562 207.453125 176.4375 L 208.207031 179.648438 C 208.410156 182.957031 207.804688 184.667969 206.398438 184.785156 C 204.988281 184.824219 204.160156 183.210938 203.90625 179.941406 "/>
<path style=" stroke:none;fill-rule:nonzero;fill:rgb(5.098039%,7.450981%,10.196079%);fill-opacity:1;" d="M 108.328125 180.640625 C 107.824219 177.566406 108.226562 175.953125 109.535156 175.796875 C 110.238281 175.71875 110.867188 176.1875 111.421875 177.199219 L 112.402344 180.117188 C 112.957031 183.152344 112.554688 184.785156 111.195312 185.019531 C 109.835938 185.175781 108.882812 183.714844 108.328125 180.640625 "/>
</g>
</svg>
